<svg xmlns="http://www.w3.org/2000/svg" xmlns:xlink="http://www.w3.org/1999/xlink" width="503.474" height="265.614" viewBox="0 0 503.474 265.614">
  <defs>
    <filter id="Rectangle_44" x="-9" y="-5" width="521.474" height="283.614" filterUnits="userSpaceOnUse">
      <feOffset dy="4" input="SourceAlpha"/>
      <feGaussianBlur stdDeviation="3" result="blur"/>
      <feFlood flood-opacity="0.161"/>
      <feComposite operator="in" in2="blur"/>
      <feComposite in="SourceGraphic"/>
    </filter>
    <clipPath id="clip-path">
      <g transform="matrix(1, 0, 0, 1, 0, 0)" filter="url(#Rectangle_44)">
        <rect id="Rectangle_44-2" data-name="Rectangle 44" width="503.474" height="265.614" fill="none"/>
      </g>
    </clipPath>
    <filter id="Path_504" x="121.523" y="217.115" width="60.336" height="61.498" filterUnits="userSpaceOnUse">
      <feOffset dy="4" input="SourceAlpha"/>
      <feGaussianBlur stdDeviation="3" result="blur-2"/>
      <feFlood flood-opacity="0.161"/>
      <feComposite operator="in" in2="blur-2"/>
      <feComposite in="SourceGraphic"/>
    </filter>
    <filter id="Path_505" x="170.112" y="220.789" width="60.146" height="54.731" filterUnits="userSpaceOnUse">
      <feOffset dy="4" input="SourceAlpha"/>
      <feGaussianBlur stdDeviation="3" result="blur-3"/>
      <feFlood flood-opacity="0.161"/>
      <feComposite operator="in" in2="blur-3"/>
      <feComposite in="SourceGraphic"/>
    </filter>
    <filter id="Path_506" x="219.424" y="225.187" width="57.438" height="49.607" filterUnits="userSpaceOnUse">
      <feOffset dy="4" input="SourceAlpha"/>
      <feGaussianBlur stdDeviation="3" result="blur-4"/>
      <feFlood flood-opacity="0.161"/>
      <feComposite operator="in" in2="blur-4"/>
      <feComposite in="SourceGraphic"/>
    </filter>
    <filter id="Path_507" x="265.548" y="217.115" width="61.741" height="61.498" filterUnits="userSpaceOnUse">
      <feOffset dy="4" input="SourceAlpha"/>
      <feGaussianBlur stdDeviation="3" result="blur-5"/>
      <feFlood flood-opacity="0.161"/>
      <feComposite operator="in" in2="blur-5"/>
      <feComposite in="SourceGraphic"/>
    </filter>
    <filter id="Path_508" x="315.682" y="219.003" width="54.343" height="58.064" filterUnits="userSpaceOnUse">
      <feOffset dy="4" input="SourceAlpha"/>
      <feGaussianBlur stdDeviation="3" result="blur-6"/>
      <feFlood flood-opacity="0.161"/>
      <feComposite operator="in" in2="blur-6"/>
      <feComposite in="SourceGraphic"/>
    </filter>
    <filter id="Path_509" x="361.274" y="217.118" width="55.939" height="61.448" filterUnits="userSpaceOnUse">
      <feOffset dy="4" input="SourceAlpha"/>
      <feGaussianBlur stdDeviation="3" result="blur-7"/>
      <feFlood flood-opacity="0.161"/>
      <feComposite operator="in" in2="blur-7"/>
      <feComposite in="SourceGraphic"/>
    </filter>
    <filter id="Path_510" x="120.978" y="21.817" width="132.894" height="102.735" filterUnits="userSpaceOnUse">
      <feOffset dy="4" input="SourceAlpha"/>
      <feGaussianBlur stdDeviation="3" result="blur-8"/>
      <feFlood flood-opacity="0.161"/>
      <feComposite operator="in" in2="blur-8"/>
      <feComposite in="SourceGraphic"/>
    </filter>
    <filter id="Path_511" x="379.635" y="-5.001" width="37.578" height="129.549" filterUnits="userSpaceOnUse">
      <feOffset dy="4" input="SourceAlpha"/>
      <feGaussianBlur stdDeviation="3" result="blur-9"/>
      <feFlood flood-opacity="0.161"/>
      <feComposite operator="in" in2="blur-9"/>
      <feComposite in="SourceGraphic"/>
    </filter>
    <filter id="Path_512" x="121.523" y="119.11" width="132.839" height="103.492" filterUnits="userSpaceOnUse">
      <feOffset dy="4" input="SourceAlpha"/>
      <feGaussianBlur stdDeviation="3" result="blur-10"/>
      <feFlood flood-opacity="0.161"/>
      <feComposite operator="in" in2="blur-10"/>
      <feComposite in="SourceGraphic"/>
    </filter>
    <filter id="Path_513" x="379.635" y="119.064" width="132.839" height="103.541" filterUnits="userSpaceOnUse">
      <feOffset dy="4" input="SourceAlpha"/>
      <feGaussianBlur stdDeviation="3" result="blur-11"/>
      <feFlood flood-opacity="0.161"/>
      <feComposite operator="in" in2="blur-11"/>
      <feComposite in="SourceGraphic"/>
    </filter>
    <filter id="Path_514" x="249.703" y="119.923" width="132.826" height="102.685" filterUnits="userSpaceOnUse">
      <feOffset dy="4" input="SourceAlpha"/>
      <feGaussianBlur stdDeviation="3" result="blur-12"/>
      <feFlood flood-opacity="0.161"/>
      <feComposite operator="in" in2="blur-12"/>
      <feComposite in="SourceGraphic"/>
    </filter>
    <filter id="Path_515" x="252.216" y="-4.958" width="130.313" height="129.509" filterUnits="userSpaceOnUse">
      <feOffset dy="4" input="SourceAlpha"/>
      <feGaussianBlur stdDeviation="3" result="blur-13"/>
      <feFlood flood-opacity="0.161"/>
      <feComposite operator="in" in2="blur-13"/>
      <feComposite in="SourceGraphic"/>
    </filter>
    <filter id="Path_516" x="277.072" y="21.059" width="75.054" height="61.507" filterUnits="userSpaceOnUse">
      <feOffset dy="4" input="SourceAlpha"/>
      <feGaussianBlur stdDeviation="3" result="blur-14"/>
      <feFlood flood-opacity="0.161"/>
      <feComposite operator="in" in2="blur-14"/>
      <feComposite in="SourceGraphic"/>
    </filter>
    <filter id="Path_517" x="-9" y="21.82" width="132.839" height="154.168" filterUnits="userSpaceOnUse">
      <feOffset dy="4" input="SourceAlpha"/>
      <feGaussianBlur stdDeviation="3" result="blur-15"/>
      <feFlood flood-opacity="0.161"/>
      <feComposite operator="in" in2="blur-15"/>
      <feComposite in="SourceGraphic"/>
    </filter>
  </defs>
  <g id="Group_49" data-name="Group 49" transform="translate(0 0)">
    <g id="Group_48" data-name="Group 48" transform="translate(0 0)" clip-path="url(#clip-path)">
      <g transform="matrix(1, 0, 0, 1, 0, 0)" filter="url(#Path_504)">
        <path id="Path_504-2" data-name="Path 504" d="M67.078,106.341v9.279H60.312v-9.279H45.573v-1.789H60.312V97.4H43.349V95.612h10.73a60.935,60.935,0,0,0-2.612-8.072l.773-.628H42.382V85.221H60.407V78.794h-14.5V77h14.5V72.123h6.575V77h14.16v1.789H66.983v6.427H84.718v1.691H71.959l5.605,2.513A35.349,35.349,0,0,1,69.3,95.612H83.847V97.4H67.078v7.154H81.82v1.789ZM53.256,86.912a54.871,54.871,0,0,1,7.25,6.286l-3.964,2.414H66.595a38.839,38.839,0,0,0,3.77-8.7Z" transform="translate(88.14 149.99)" fill="#fff"/>
      </g>
      <g transform="matrix(1, 0, 0, 1, 0, 0)" filter="url(#Path_505)">
        <path id="Path_505-2" data-name="Path 505" d="M93.973,109.515a95.122,95.122,0,0,1-10.246.533c-2.368,0-4.783-.1-7.2-.243-7.782-.53-9.473-4.493-9.713-11.647-.1-3.191-.148-6.233-.148-9.181-2.849.24-5.605.53-8.118.819l-.388-2.319,8.46-.727c0-3.671.046-7.3.1-11.21h6.621c-.289,3.77-.385,7.588-.484,10.68,4.062-.339,8.8-.628,12.9-.967,0-3.816-.191-7.684-.385-11.937H91.8c.049,2.03.1,4.01.1,5.9s-.046,3.72-.1,5.556l8.217-.628.29,2.125c-2.707.194-5.605.388-8.555.628a55.133,55.133,0,0,1-.339,6.332c-.48,4.352-1.641,6.671-4.927,6.671-1.934,0-4.592-.822-8.266-2.414V95.4a15.328,15.328,0,0,0,4.931,1.4c1.691,0,2.224-1.161,2.418-3.674.145-1.934.145-3.816.191-5.7-4.155.293-8.891.582-12.95.921,0,1.207-.049,2.464-.049,3.77,0,1.836.049,3.766.1,5.944.148,5.217,1.5,6.378,4.931,6.618,1.451.1,3,.145,4.592.145a79.648,79.648,0,0,0,11.6-.819Z" transform="translate(120.95 152.47)" fill="#fff"/>
      </g>
      <g transform="matrix(1, 0, 0, 1, 0, 0)" filter="url(#Path_506)">
        <path id="Path_506-2" data-name="Path 506" d="M91.667,104.95c9.812-1.694,14.256-6.671,14.69-14.354,0-.385.049-.773.049-1.158,0-8.315-5.026-13.1-11.019-13.1C94.423,89.582,90.6,98.427,83.45,102.772a7.167,7.167,0,0,1-3.77,1.21c-3.141,0-5.51-2.9-5.51-8.651q0-1.307.145-2.756c1.016-9.085,9.618-17.831,21.12-17.831,11.065,0,18.173,5.75,18.173,15.127,0,.339-.049.724-.049,1.112-.533,9.424-8.266,14.838-21.361,15.368ZM80.454,91.562c-.1.967-.145,1.836-.145,2.559,0,2.71.678,3.917,1.839,3.917a4.265,4.265,0,0,0,2.076-.868c4.3-2.95,7.638-10.055,9.085-20.736-7.635,1.109-12.128,8.408-12.855,15.127" transform="translate(154.25 155.44)" fill="#fff"/>
      </g>
      <g transform="matrix(1, 0, 0, 1, 0, 0)" filter="url(#Path_507)">
        <path id="Path_507-2" data-name="Path 507" d="M101.233,110.45a41.521,41.521,0,0,0-1.98-9.815c-1.5,6.381-4.546,11.456-9.184,14.986l-.921-1.21C93.549,107.983,95,101.023,95,91.066V72.123h5.316v14.45a31.234,31.234,0,0,0,2.125-7.1l4.592,3.72a32.053,32.053,0,0,1-6.717,5.463v2.076a44.358,44.358,0,0,1-.727,8.217,44.182,44.182,0,0,1,6.766,7.2ZM89.342,92.859A45.15,45.15,0,0,0,91.47,81.741l1.207.145a78.913,78.913,0,0,1,1.645,12.035ZM124.623,114.6c-3.043,0-5.7-.773-5.7-5.7V98.171h-2.655c-.631,10.44-6.381,14.936-15.42,17.351l-.819-1.5c6.279-3.625,9.954-7.394,10.1-15.854h-6.717V96.434h28.37v1.737h-7.059v9.907c0,.967.631,1.207,1.309,1.207h2.22c1.355,0,2.03-.868,2.756-6.763l1.885.678c-.293,9.907-1.74,11.4-4.786,11.4Zm-1.931-19.282V89.714h-9.716v5.608h-5.217V89.714h-4.641v-1.74h4.641V82.659h5.217v5.316h9.716V82.659h5.217v5.316h4.737v1.74h-4.737v5.608Zm-2.128-15.9V85.56h-5.559V79.422H105.1v-1.74h9.907V72.123h5.559v5.559h10.052v1.74Z" transform="translate(185.4 149.99)" fill="#fff"/>
      </g>
      <g transform="matrix(1, 0, 0, 1, 0, 0)" filter="url(#Path_508)">
        <path id="Path_508-2" data-name="Path 508" d="M134.86,111.882a45.762,45.762,0,0,1-9.713.918c-1.062,0-2.079-.049-3.046-.1-10.1-.628-15.272-3.865-15.272-9.569,0-4.155,3.868-6.865,11.456-7.493.53-.046,1.063-.046,1.592-.046,3.529,0,7.832.773,10.44,2.368a43.342,43.342,0,0,1-6.378-8.943c-6.092.533-12.374.918-18.413,1.115l-.1-1.983c5.753-.194,11.7-.533,17.5-1.013-.868-1.789-1.74-3.674-2.513-5.654-4.349.388-8.651.678-12.519.868l-.191-1.983c3.625-.1,7.779-.339,11.986-.724-.628-1.74-1.256-3.575-1.839-5.46l6.621-1.447a44.669,44.669,0,0,0,1.789,6.23c3.96-.385,8.263-.868,11.259-1.3l.339,2.03c-3,.385-7.1.773-10.874,1.158a60.056,60.056,0,0,0,2.658,5.608c3.914-.388,8.217-.868,11.746-1.352l.385,2.03c-3.335.434-7.394.868-11.065,1.253a49.1,49.1,0,0,0,7.006,8.749l-5.365,4.3a24.144,24.144,0,0,0-12.276-3.964,9.7,9.7,0,0,0-1.158.046c-5.171.437-7.154,1.937-7.154,4.4,0,3.043,2.8,5.122,10.924,5.411h1.063a50.787,50.787,0,0,0,10.727-1.112Z" transform="translate(219.26 151.27)" fill="#fff"/>
      </g>
      <g transform="matrix(1, 0, 0, 1, 0, 0)" filter="url(#Path_509)">
        <path id="Path_509-2" data-name="Path 509" d="M152.42,82.272H141.013a17.333,17.333,0,0,1-.868,2.224A55.857,55.857,0,0,1,151.4,89.038l-4.253,6.089a40.522,40.522,0,0,0-7.585-9.473c-2.177,3.917-5.753,7.1-12.035,8.894l-.678-1.451a15.034,15.034,0,0,0,8.266-10.825h-9.134v33.3h-5.753V80.242h15.226a51.843,51.843,0,0,0,.483-8.118l6.329.773a33.082,33.082,0,0,1-.724,7.345H158.17V109.1c0,3.477-.53,6.477-5.46,6.477a28.864,28.864,0,0,1-7.684-1.4v-1.743a21.11,21.11,0,0,0,4.638.678c2.562,0,2.756-1.306,2.756-3.964Zm-5.171,27.163a42.985,42.985,0,0,0-7.2-8.99c-2.033,4.154-5.51,7.733-12.423,9.181l-.773-1.546c7.4-4.013,8.8-10.052,9.184-16.723l6.427,1.451a33.012,33.012,0,0,1-1.74,6.187,55.7,55.7,0,0,1,10.776,4.349Z" transform="translate(250.04 149.99)" fill="#fff"/>
      </g>
      <g transform="matrix(1, 0, 0, 1, 0, 0)" filter="url(#Path_510)">
        <path id="Path_510-2" data-name="Path 510" d="M157.1,51.075V93.443H137.521V86.784a42.148,42.148,0,0,1-22.79,6.658H84.572a42.367,42.367,0,1,1,0-84.735h30.159A42.366,42.366,0,0,1,157.1,51.075m-19.578,0v0a40.843,40.843,0,0,0-24.246-37.323,33.576,33.576,0,0,0-27.243,0,40.847,40.847,0,0,0,0,74.645,33.576,33.576,0,0,0,27.243,0,40.842,40.842,0,0,0,24.246-37.32" transform="translate(87.77 18.11)" fill="#fff"/>
      </g>
      <g transform="matrix(1, 0, 0, 1, 0, 0)" filter="url(#Path_511)">
        <path id="Path_511-2" data-name="Path 511" d="M126.193,0h19.578V18.152H126.193Zm0,26.057h19.578v85.492H126.193Z" transform="translate(262.44 0)" fill="#fff"/>
      </g>
      <g transform="matrix(1, 0, 0, 1, 0, 0)" filter="url(#Path_512)">
        <path id="Path_512-2" data-name="Path 512" d="M157.221,83.409h-.009v42.343H137.643V83.409h.012a40.811,40.811,0,0,0-24.237-37.3,33.532,33.532,0,0,0-27.224,0A40.811,40.811,0,0,0,61.969,82.883V83.5l-.018,42.29L42.382,125.7l.009-42.29c0-.132.009-.259.009-.391v-.5h-.018V40.3H61.969v7.416a42.125,42.125,0,0,1,22.765-6.649h30.144a42.344,42.344,0,0,1,42.343,42.343" transform="translate(88.14 83.81)" fill="#fff"/>
      </g>
      <g transform="matrix(1, 0, 0, 1, 0, 0)" filter="url(#Path_513)">
        <path id="Path_513-2" data-name="Path 513" d="M126.193,83.484h.009V40.328h19.568V83.484h-.012A40.811,40.811,0,0,0,170,120.782a33.532,33.532,0,0,0,27.224,0A40.811,40.811,0,0,0,221.445,84.01v-.619l.019-43.106,19.568.1-.009,43.1c0,.132-.009.259-.009.391v.5h.018v41.4H221.445v-6.6a42.125,42.125,0,0,1-22.765,6.649H168.536a42.344,42.344,0,0,1-42.343-42.343" transform="translate(262.44 83.78)" fill="#fff"/>
      </g>
      <g transform="matrix(1, 0, 0, 1, 0, 0)" filter="url(#Path_514)">
        <path id="Path_514-2" data-name="Path 514" d="M198.829,82.907v42.343H179.264v-6.655a42.13,42.13,0,0,1-22.777,6.655H126.346a42.343,42.343,0,1,1,0-84.685h30.141a42.342,42.342,0,0,1,42.343,42.343m-19.565,0v0a40.816,40.816,0,0,0-24.234-37.3,33.564,33.564,0,0,0-27.228,0,40.822,40.822,0,0,0,0,74.6,33.564,33.564,0,0,0,27.228,0,40.813,40.813,0,0,0,24.234-37.3" transform="translate(174.7 84.36)" fill="#fff"/>
      </g>
      <g transform="matrix(1, 0, 0, 1, 0, 0)" filter="url(#Path_515)">
        <path id="Path_515-2" data-name="Path 515" d="M166.422,69.027a37.4,37.4,0,0,0-7.776-.995v-.015H104.4v-68H84.819V111.523H104.4V69.538h35.678a40.079,40.079,0,0,1,37.477,39.99v2h19.578v-3.511a40.1,40.1,0,0,0-30.711-38.986" transform="translate(176.4 0.03)" fill="#fff"/>
      </g>
      <g transform="matrix(1, 0, 0, 1, 0, 0)" filter="url(#Path_516)">
        <path id="Path_516-2" data-name="Path 516" d="M119.234,50.959a37.4,37.4,0,0,1-7.776.995v.015H92.89V50.447a40.079,40.079,0,0,0,37.477-39.99v-2h19.578v3.511a40.1,40.1,0,0,1-30.711,38.986" transform="translate(193.18 17.6)" fill="#fff"/>
      </g>
      <g transform="matrix(1, 0, 0, 1, 0, 0)" filter="url(#Path_517)">
        <path id="Path_517-2" data-name="Path 517" d="M114.839,8.8h0V8.709H95.249V51.655A40.8,40.8,0,0,1,71.027,88.39a33.532,33.532,0,0,1-27.224,0,40.811,40.811,0,0,1-24.237-37.3h.012V8.749H.009V51.092H0A42.344,42.344,0,0,0,42.343,93.434H72.487a42.1,42.1,0,0,0,20.083-5.075C86.3,116.951,67.682,134.908,32.1,144.877c34.7,0,54.4-14.376,64.812-26.436a75.141,75.141,0,0,0,17.93-47.683Z" transform="translate(0 18.11)" fill="#fff"/>
      </g>
    </g>
  </g>
</svg>
