<?xml version="1.0" encoding="utf-8"?>
<!-- Generator: Adobe Illustrator 28.1.0, SVG Export Plug-In . SVG Version: 6.00 Build 0)  -->
<svg version="1.1" id="圖層_1" xmlns="http://www.w3.org/2000/svg" xmlns:xlink="http://www.w3.org/1999/xlink" x="0px" y="0px"
	 viewBox="0 0 421.1 89.4" style="enable-background:new 0 0 421.1 89.4;" xml:space="preserve">
<style type="text/css">
	.st0{enable-background:new    ;}
	.st1{fill:#FFFFFF;}
	.st2{fill:#DF9712;}
	.st3{fill:none;stroke:#DF9712;stroke-width:2;stroke-miterlimit:10;}
</style>
<g id="Group_55" transform="translate(-227.5 -1874.5)">
	<g class="st0">
		<path class="st1" d="M233.2,1898.5v-23.8h12.3c1.2,0,2.1,0.3,2.7,1s1,1.6,1,2.6v8.5c0,1-0.3,1.9-1,2.6s-1.5,1-2.7,1h-5.3v8H233.2z
			 M242.3,1884.4v-3.6c0-0.3-0.2-0.4-0.5-0.4h-1.5v4.5h1.5C242.1,1884.8,242.3,1884.7,242.3,1884.4z"/>
		<path class="st1" d="M259.9,1894.3v-3.5c0-0.7-0.4-1.1-1.1-1.1h-1.3v8.7h-7v-23.8h12.6c1.2,0,2.1,0.3,2.7,1c0.6,0.7,1,1.6,1,2.6
			v5.9c0,0.6-0.2,1.1-0.6,1.7s-1,0.9-1.9,1.1c0.9,0.2,1.5,0.6,1.9,1.1c0.4,0.5,0.6,1.1,0.6,1.6v5.3c0,1.6,0.2,2.7,0.5,3.4h-7.2
			c-0.1-0.4-0.1-0.7-0.2-1.1C260,1896.8,259.9,1895.8,259.9,1894.3z M259.9,1883.9v-3.2c0-0.3-0.2-0.4-0.5-0.4h-1.8v4h1.8
			C259.8,1884.4,259.9,1884.2,259.9,1883.9z"/>
		<path class="st1" d="M268.3,1898.5v-23.8h15.3v5.6h-8.3v3.2h6v5.6h-6v3.6h8.3v5.6H268.3z"/>
		<path class="st1" d="M295.5,1885.6l2.9-10.9h7.5v23.8h-7v-8.4l-2.1,8.4h-3l-2.3-8.4v8.4h-6.9v-23.8h8.2L295.5,1885.6z"/>
		<path class="st1" d="M307.3,1898.5v-23.8h7v23.8H307.3z"/>
		<path class="st1" d="M322.6,1874.7v17.7c0,0.3,0.2,0.4,0.5,0.4h1.3c0.4,0,0.5-0.1,0.5-0.4v-17.7h6.8v20.2c0,1-0.3,1.9-1,2.6
			s-1.5,1-2.7,1h-8.8c-1.2,0-2.1-0.3-2.7-1c-0.6-0.7-1-1.6-1-2.6v-20.2H322.6z"/>
		<path class="st1" d="M344,1885.6l2.9-10.9h7.5v23.8h-7v-8.4l-2.1,8.4h-3l-2.3-8.4v8.4h-6.9v-23.8h8.2L344,1885.6z"/>
	</g>
	<g class="st0">
		<path class="st2" d="M367.6,1892.9h0.8c0.3,0,0.5-0.1,0.5-0.4v-17.7h7v20.2c0,1.1-0.3,1.9-1,2.6c-0.6,0.7-1.6,1-2.7,1h-8.4
			c-1.2,0-2.1-0.3-2.7-1c-0.6-0.7-1-1.6-1-2.6v-6.3l7-0.6v4.5C367.1,1892.7,367.3,1892.9,367.6,1892.9z"/>
		<path class="st2" d="M386.9,1898.5l-0.4-3.3h-2.7l-0.4,3.3H377l3.2-23.8h10.6l3.2,23.8H386.9z M385.3,1881.8l-0.9,8.3h1.7
			L385.3,1881.8z"/>
		<path class="st2" d="M395.1,1898.5v-23.8h12.3c1.2,0,2.1,0.3,2.7,1s1,1.6,1,2.6v8.5c0,1-0.3,1.9-1,2.6s-1.5,1-2.7,1H402v8H395.1z
			 M404.1,1884.4v-3.6c0-0.3-0.2-0.4-0.5-0.4H402v4.5h1.5C403.9,1884.8,404.1,1884.7,404.1,1884.4z"/>
		<path class="st2" d="M421,1898.5l-0.4-3.3h-2.7l-0.4,3.3H411l3.2-23.8h10.6l3.2,23.8H421z M419.4,1881.8l-0.9,8.3h1.7
			L419.4,1881.8z"/>
		<path class="st2" d="M435.8,1874.7l3.3,9.6v-9.6h6.9v23.8h-6.5l-3.6-9.8v9.8h-6.9v-23.8H435.8z"/>
		<path class="st2" d="M447.4,1898.5v-23.8h15.3v5.6h-8.3v3.2h6v5.6h-6v3.6h8.3v5.6H447.4z"/>
		<path class="st2" d="M472,1882.8l5.8,3.2c1.6,0.9,2.4,2.3,2.4,4.4v4.5c0,1.1-0.3,1.9-1,2.6c-0.6,0.7-1.5,1-2.7,1h-9
			c-1.2,0-2.1-0.3-2.7-1c-0.6-0.7-1-1.6-1-2.6v-3.6l7-0.6v1.8c0,0.3,0.2,0.4,0.5,0.4h1.3c0.4,0,0.5-0.1,0.5-0.4v-0.6
			c0-0.4-0.1-0.7-0.2-0.8c-0.1-0.1-0.5-0.4-1.1-0.7l-5-2.7c-1.2-0.6-2-1.3-2.4-2c-0.4-0.7-0.6-1.6-0.6-2.8v-4.5c0-1.1,0.3-1.9,1-2.6
			c0.6-0.7,1.5-1,2.7-1h9c1.2,0,2.1,0.3,2.7,1c0.6,0.7,1,1.6,1,2.6v3.7l-7,0.6v-1.9c0-0.3-0.2-0.4-0.5-0.4h-1.3
			c-0.4,0-0.5,0.1-0.5,0.4v0.4c0,0.5,0.1,0.8,0.2,1S471.5,1882.5,472,1882.8z"/>
		<path class="st2" d="M481.5,1898.5v-23.8h15.3v5.6h-8.3v3.2h6v5.6h-6v3.6h8.3v5.6H481.5z"/>
	</g>
	<g class="st0">
		<path class="st1" d="M518.7,1878.3v16.5c0,1.1-0.3,1.9-1,2.6c-0.6,0.7-1.5,1-2.7,1h-12.6v-23.8H515c1.2,0,2.1,0.3,2.7,1
			C518.4,1876.4,518.7,1877.3,518.7,1878.3z M511.7,1892.4v-11.6c0-0.3-0.2-0.4-0.5-0.4h-1.8v12.5h1.8
			C511.6,1892.9,511.7,1892.7,511.7,1892.4z"/>
		<path class="st1" d="M520.1,1898.5v-23.8h7v23.8H520.1z"/>
		<path class="st1" d="M535.1,1874.7l3.3,9.6v-9.6h6.9v23.8h-6.5l-3.6-9.8v9.8h-6.9v-23.8H535.1z"/>
		<path class="st1" d="M546.7,1898.5v-23.8h7v23.8H546.7z"/>
		<path class="st1" d="M561.7,1874.7l3.3,9.6v-9.6h6.9v23.8h-6.5l-3.6-9.8v9.8H555v-23.8H561.7z"/>
		<path class="st1" d="M581.3,1890.1v-5h8.2v13.3h-4.2l-0.8-1c-0.9,0.6-1.8,1-2.9,1h-4.6c-1.2,0-2.1-0.3-2.7-1c-0.6-0.7-1-1.6-1-2.6
			v-16.5c0-1.1,0.3-1.9,1-2.6c0.6-0.7,1.5-1,2.7-1h9c1.2,0,2.1,0.3,2.7,1c0.6,0.7,1,1.6,1,2.6v4.8l-7,0.6v-2.9
			c0-0.3-0.2-0.4-0.5-0.4h-1.3c-0.4,0-0.5,0.1-0.5,0.4v11.6c0,0.3,0.2,0.4,0.5,0.4h1.3c0.4,0,0.5-0.1,0.5-0.4v-2.3H581.3z"/>
		<path class="st1" d="M604.9,1898.5l-0.4-3.3h-2.7l-0.4,3.3H595l3.2-23.8h10.6l3.2,23.8H604.9z M603.3,1881.8l-0.9,8.3h1.7
			L603.3,1881.8z"/>
		<path class="st1" d="M619.8,1874.7l3.3,9.6v-9.6h6.9v23.8h-6.5l-3.6-9.8v9.8h-6.9v-23.8H619.8z"/>
		<path class="st1" d="M647.7,1878.3v16.5c0,1.1-0.3,1.9-1,2.6c-0.6,0.7-1.5,1-2.7,1h-12.6v-23.8H644c1.2,0,2.1,0.3,2.7,1
			C647.3,1876.4,647.7,1877.3,647.7,1878.3z M640.7,1892.4v-11.6c0-0.3-0.2-0.4-0.5-0.4h-1.8v12.5h1.8
			C640.5,1892.9,640.7,1892.7,640.7,1892.4z"/>
	</g>
	<g class="st0">
		<path class="st2" d="M240.1,1912.7l2.2,7.1l1.8-7.1h6.8l-5.3,15.6v8.2h-7v-8.2l-5.9-15.6H240.1z"/>
		<path class="st2" d="M260.7,1936.5l-0.4-3.3h-2.7l-0.4,3.3h-6.4l3.2-23.8h10.6l3.2,23.8H260.7z M259.1,1919.8l-0.9,8.3h1.7
			L259.1,1919.8z"/>
		<path class="st2" d="M275.8,1912.7v9.7l2.8-9.7h7.2l-3,11.3l3.3,12.5h-7.6l-2.6-10.2v10.2h-7v-23.8H275.8z"/>
		<path class="st2" d="M286.6,1936.5v-23.8h7v23.8H286.6z"/>
		<path class="st2" d="M301.7,1912.7l3.3,9.6v-9.6h6.9v23.8h-6.5l-3.6-9.8v9.8H295v-23.8H301.7z"/>
		<path class="st2" d="M313.2,1936.5v-23.8h7v23.8H313.2z"/>
		<path class="st2" d="M328.5,1912.7v9.7l2.8-9.7h7.2l-3,11.3l3.3,12.5h-7.6l-2.6-10.2v10.2h-7v-23.8H328.5z"/>
		<path class="st2" d="M346.3,1912.7v17.7c0,0.3,0.2,0.4,0.5,0.4h1.3c0.4,0,0.5-0.1,0.5-0.4v-17.7h6.8v20.2c0,1-0.3,1.9-1,2.6
			s-1.5,1-2.7,1H343c-1.2,0-2.1-0.3-2.7-1c-0.6-0.7-1-1.6-1-2.6v-20.2H346.3z"/>
	</g>
	<g class="st0">
		<path class="st1" d="M361.3,1936.5v-23.8h15.3v5.6h-8.3v3.2h6v5.6h-6v3.6h8.3v5.6H361.3z"/>
		<path class="st1" d="M384.4,1912.7l1.7,5.3l1.6-5.3h6.5l-3.9,12.1l3.9,11.7h-7.1l-1.6-5l-1.5,5h-6.6l3.8-11.9l-3.8-11.9H384.4z"/>
		<path class="st1" d="M395.3,1936.5v-23.8h12.3c1.2,0,2.1,0.3,2.7,1s1,1.6,1,2.6v8.5c0,1-0.3,1.9-1,2.6s-1.5,1-2.7,1h-5.3v8H395.3z
			 M404.3,1922.4v-3.6c0-0.3-0.2-0.4-0.5-0.4h-1.5v4.5h1.5C404.2,1922.8,404.3,1922.7,404.3,1922.4z"/>
		<path class="st1" d="M412.7,1936.5v-23.8h15.3v5.6h-8.3v3.2h6v5.6h-6v3.6h8.3v5.6H412.7z"/>
		<path class="st1" d="M438.5,1932.3v-3.5c0-0.7-0.4-1.1-1.1-1.1h-1.3v8.7h-7v-23.8h12.6c1.2,0,2.1,0.3,2.7,1c0.6,0.7,1,1.6,1,2.6
			v5.9c0,0.6-0.2,1.1-0.6,1.7s-1,0.9-1.9,1.1c0.9,0.2,1.5,0.6,1.9,1.1c0.4,0.5,0.6,1.1,0.6,1.6v5.3c0,1.6,0.2,2.7,0.5,3.4h-7.2
			c-0.1-0.4-0.1-0.7-0.2-1.1C438.5,1934.8,438.5,1933.8,438.5,1932.3z M438.5,1921.9v-3.2c0-0.3-0.2-0.4-0.5-0.4h-1.8v4h1.8
			C438.3,1922.4,438.5,1922.2,438.5,1921.9z"/>
		<path class="st1" d="M446.8,1936.5v-23.8h7v23.8H446.8z"/>
		<path class="st1" d="M455.2,1936.5v-23.8h15.3v5.6h-8.3v3.2h6v5.6h-6v3.6h8.3v5.6H455.2z"/>
		<path class="st1" d="M478.3,1912.7l3.3,9.6v-9.6h6.9v23.8h-6.5l-3.6-9.8v9.8h-6.9v-23.8H478.3z"/>
		<path class="st1" d="M506.2,1922.1l-7,0.6v-3.9c0-0.3-0.2-0.4-0.5-0.4h-1.3c-0.4,0-0.5,0.1-0.5,0.4v11.6c0,0.3,0.2,0.4,0.5,0.4
			h1.3c0.4,0,0.5-0.1,0.5-0.4v-4.5l7,0.6v6.3c0,1.1-0.3,1.9-1,2.6c-0.6,0.7-1.5,1-2.7,1h-9c-1.2,0-2.1-0.3-2.7-1
			c-0.6-0.7-1-1.6-1-2.6v-16.5c0-1.1,0.3-1.9,1-2.6c0.6-0.7,1.5-1,2.7-1h9c1.2,0,2.1,0.3,2.7,1c0.6,0.7,1,1.6,1,2.6V1922.1z"/>
		<path class="st1" d="M507.6,1936.5v-23.8h15.3v5.6h-8.3v3.2h6v5.6h-6v3.6h8.3v5.6H507.6z"/>
	</g>
	<line id="Line_297" class="st3" x1="227.5" y1="1962.9" x2="644.6" y2="1962.9"/>
</g>
</svg>
