<?xml version="1.0" encoding="utf-8"?>
<!-- Generator: Adobe Illustrator 28.1.0, SVG Export Plug-In . SVG Version: 6.00 Build 0)  -->
<svg version="1.1" id="圖層_1" xmlns="http://www.w3.org/2000/svg" xmlns:xlink="http://www.w3.org/1999/xlink" x="0px" y="0px"
	 viewBox="0 0 595.28 293.14" style="enable-background:new 0 0 595.28 293.14;" xml:space="preserve">
<style type="text/css">
	.st0{fill:#FFFFFF;}
</style>
<g id="Group_49" transform="translate(0 0)">
	<g id="Group_48" transform="translate(0 0)">
		<g transform="matrix(1, 0, 0, 1, 0, 0)">
			<path id="Path_504-2" class="st0" d="M201.12,271.22v9.28h-6.77v-9.28h-14.74v-1.79h14.74v-7.15h-16.96v-1.79h10.73
				c-0.68-2.75-1.55-5.45-2.61-8.07l0.77-0.63h-9.86v-1.69h18.02v-6.43h-14.5v-1.79h14.5V237h6.58v4.88h14.16v1.79h-14.16v6.43
				h17.74v1.69H206l5.61,2.51c-2.44,2.46-5.22,4.54-8.26,6.19h14.55v1.79h-16.77v7.15h14.74v1.79L201.12,271.22z M187.3,251.79
				c2.6,1.88,5.02,3.98,7.25,6.29l-3.96,2.41h10.05c1.61-2.74,2.87-5.66,3.77-8.7H187.3z"/>
		</g>
		<g transform="matrix(1, 0, 0, 1, 0, 0)">
			<path id="Path_505-2" class="st0" d="M260.82,276.88c-3.4,0.36-6.82,0.54-10.25,0.53c-2.37,0-4.78-0.1-7.2-0.24
				c-7.78-0.53-9.47-4.49-9.71-11.65c-0.1-3.19-0.15-6.23-0.15-9.18c-2.85,0.24-5.6,0.53-8.12,0.82l-0.39-2.32l8.46-0.73
				c0-3.67,0.05-7.3,0.1-11.21h6.62c-0.29,3.77-0.38,7.59-0.48,10.68c4.06-0.34,8.8-0.63,12.9-0.97c0-3.82-0.19-7.68-0.38-11.94
				h6.43c0.05,2.03,0.1,4.01,0.1,5.9s-0.05,3.72-0.1,5.56l8.22-0.63l0.29,2.12c-2.71,0.19-5.61,0.39-8.55,0.63
				c0.01,2.12-0.1,4.23-0.34,6.33c-0.48,4.35-1.64,6.67-4.93,6.67c-1.93,0-4.59-0.82-8.27-2.41v-2.09c1.55,0.74,3.22,1.21,4.93,1.4
				c1.69,0,2.22-1.16,2.42-3.67c0.14-1.93,0.14-3.82,0.19-5.7c-4.15,0.29-8.89,0.58-12.95,0.92c0,1.21-0.05,2.46-0.05,3.77
				c0,1.84,0.05,3.77,0.1,5.94c0.15,5.22,1.5,6.38,4.93,6.62c1.45,0.1,3,0.14,4.59,0.14c3.88,0.01,7.76-0.26,11.6-0.82
				L260.82,276.88z"/>
		</g>
		<g transform="matrix(1, 0, 0, 1, 0, 0)">
			<path id="Path_506-2" class="st0" d="M291.82,275.28c9.81-1.69,14.26-6.67,14.69-14.35c0-0.39,0.05-0.77,0.05-1.16
				c0-8.32-5.03-13.1-11.02-13.1c-0.96,13.24-4.79,22.09-11.94,26.43c-1.12,0.75-2.42,1.17-3.77,1.21c-3.14,0-5.51-2.9-5.51-8.65
				c0-0.87,0.05-1.79,0.14-2.76c1.02-9.08,9.62-17.83,21.12-17.83c11.07,0,18.17,5.75,18.17,15.13c0,0.34-0.05,0.72-0.05,1.11
				c-0.53,9.42-8.27,14.84-21.36,15.37L291.82,275.28z M280.61,261.89c-0.1,0.97-0.14,1.84-0.14,2.56c0,2.71,0.68,3.92,1.84,3.92
				c0.76-0.1,1.47-0.4,2.08-0.87c4.3-2.95,7.64-10.05,9.08-20.74C285.83,247.87,281.33,255.17,280.61,261.89"/>
		</g>
		<g transform="matrix(1, 0, 0, 1, 0, 0)">
			<path id="Path_507-2" class="st0" d="M332.53,275.33c-0.26-3.34-0.93-6.64-1.98-9.82c-1.5,6.38-4.55,11.46-9.18,14.99l-0.92-1.21
				c4.4-6.43,5.85-13.39,5.85-23.34V237h5.32v14.45c0.99-2.27,1.7-4.66,2.12-7.1l4.59,3.72c-1.98,2.12-4.24,3.95-6.72,5.46v2.08
				c0.01,2.76-0.23,5.51-0.73,8.22c2.52,2.14,4.79,4.55,6.77,7.2L332.53,275.33z M320.64,257.74c1.17-3.6,1.89-7.34,2.13-11.12
				l1.21,0.14c0.86,3.96,1.41,7.99,1.64,12.04L320.64,257.74z M355.92,279.48c-3.04,0-5.7-0.77-5.7-5.7v-10.73h-2.65
				c-0.63,10.44-6.38,14.94-15.42,17.35l-0.82-1.5c6.28-3.62,9.95-7.39,10.1-15.85h-6.72v-1.73h28.37v1.74h-7.06v9.91
				c0,0.97,0.63,1.21,1.31,1.21h2.22c1.36,0,2.03-0.87,2.76-6.76l1.88,0.68c-0.29,9.91-1.74,11.4-4.79,11.4H355.92z M353.99,260.2
				v-5.6h-9.72v5.61h-5.22v-5.61h-4.64v-1.74h4.64v-5.32h5.22v5.32h9.72v-5.32h5.22v5.32h4.74v1.74h-4.74v5.61L353.99,260.2z
				 M351.87,244.3v6.14h-5.56v-6.14h-9.91v-1.74h9.91V237h5.56v5.56h10.05v1.74L351.87,244.3z"/>
		</g>
		<g transform="matrix(1, 0, 0, 1, 0, 0)">
			<path id="Path_508-2" class="st0" d="M400.02,278.04c-3.2,0.65-6.45,0.96-9.71,0.92c-1.06,0-2.08-0.05-3.05-0.1
				c-10.1-0.63-15.27-3.87-15.27-9.57c0-4.15,3.87-6.87,11.46-7.49c0.53-0.05,1.06-0.05,1.59-0.05c3.53,0,7.83,0.77,10.44,2.37
				c-2.5-2.7-4.64-5.7-6.38-8.94c-6.09,0.53-12.37,0.92-18.41,1.11l-0.1-1.98c5.75-0.19,11.7-0.53,17.5-1.01
				c-0.87-1.79-1.74-3.67-2.51-5.65c-4.35,0.39-8.65,0.68-12.52,0.87l-0.19-1.98c3.62-0.1,7.78-0.34,11.99-0.72
				c-0.63-1.74-1.26-3.57-1.84-5.46l6.62-1.45c0.44,2.12,1.04,4.2,1.79,6.23c3.96-0.39,8.26-0.87,11.26-1.3l0.34,2.03
				c-3,0.38-7.1,0.77-10.87,1.16c0.79,1.91,1.68,3.79,2.66,5.61c3.91-0.39,8.22-0.87,11.75-1.35l0.38,2.03
				c-3.33,0.43-7.39,0.87-11.07,1.25c1.99,3.17,4.34,6.11,7.01,8.75l-5.37,4.3c-3.66-2.41-7.9-3.78-12.28-3.96
				c-0.39-0.01-0.77,0.01-1.16,0.05c-5.17,0.44-7.15,1.94-7.15,4.4c0,3.04,2.8,5.12,10.92,5.41h1.06c3.6,0.01,7.2-0.36,10.73-1.11
				L400.02,278.04z"/>
		</g>
		<g transform="matrix(1, 0, 0, 1, 0, 0)">
			<path id="Path_509-2" class="st0" d="M448.36,247.15h-11.41c-0.24,0.76-0.53,1.5-0.87,2.22c3.91,1.1,7.68,2.62,11.25,4.54
				l-4.25,6.09c-2.04-3.52-4.6-6.71-7.59-9.47c-2.18,3.92-5.75,7.1-12.04,8.89l-0.68-1.45c4.33-2.08,7.4-6.1,8.27-10.82h-9.13v33.3
				h-5.75v-35.33h15.23c0.37-2.69,0.53-5.4,0.48-8.12l6.33,0.77c0.03,2.47-0.21,4.93-0.72,7.35h16.63v28.86
				c0,3.48-0.53,6.48-5.46,6.48c-2.61-0.12-5.2-0.59-7.68-1.4v-1.74c1.52,0.4,3.07,0.62,4.64,0.68c2.56,0,2.76-1.31,2.76-3.96
				L448.36,247.15z M443.19,274.32c-1.99-3.31-4.41-6.33-7.2-8.99c-2.03,4.15-5.51,7.73-12.42,9.18l-0.77-1.55
				c7.4-4.01,8.8-10.05,9.18-16.72l6.43,1.45c-0.38,2.11-0.96,4.19-1.74,6.19c3.73,1.07,7.35,2.53,10.78,4.35L443.19,274.32z"/>
		</g>
		<g transform="matrix(1, 0, 0, 1, 0, 0)">
			<path id="Path_510-2" class="st0" d="M290.77,84.08v42.37h-19.58v-6.66c-6.8,4.36-14.71,6.67-22.79,6.66h-30.16
				c-23.4,0-42.37-18.97-42.37-42.37s18.97-42.37,42.37-42.37h30.16C271.8,41.71,290.77,60.67,290.77,84.08
				C290.77,84.07,290.77,84.07,290.77,84.08 M271.19,84.08L271.19,84.08c0-16.14-9.5-30.76-24.25-37.32
				c-8.67-3.85-18.57-3.85-27.24,0c-20.61,9.17-29.89,33.31-20.72,53.92c4.11,9.23,11.49,16.62,20.72,20.72
				c8.67,3.85,18.57,3.85,27.24,0C261.69,114.84,271.19,100.22,271.19,84.08"/>
		</g>
		<g transform="matrix(1, 0, 0, 1, 0, 0)">
			<path id="Path_511-2" class="st0" d="M434.53,14.89h19.58v18.15h-19.58V14.89z M434.53,40.95h19.58v85.49h-19.58V40.95z"/>
		</g>
		<g transform="matrix(1, 0, 0, 1, 0, 0)">
			<path id="Path_512-2" class="st0" d="M291.26,182.11L291.26,182.11l-0.01,42.34h-19.57v-42.34h0.01c0-16.13-9.5-30.75-24.24-37.3
				c-8.67-3.85-18.56-3.85-27.22,0c-14.56,6.48-24.02,20.84-24.22,36.77v0.62l-0.02,42.29l-19.57-0.09l0.01-42.29
				c0-0.13,0.01-0.26,0.01-0.39v-0.5h-0.02V139h19.59v7.42c6.79-4.35,14.7-6.66,22.76-6.65h30.14
				C272.3,139.77,291.26,158.73,291.26,182.11"/>
		</g>
		<g transform="matrix(1, 0, 0, 1, 0, 0)">
			<path id="Path_513-2" class="st0" d="M434.53,182.15L434.53,182.15l0.01-43.16h19.57v43.16h-0.01c0,16.13,9.5,30.75,24.24,37.3
				c8.67,3.85,18.56,3.85,27.22,0c14.56-6.48,24.02-20.84,24.22-36.77v-0.62l0.02-43.11l19.57,0.1l-0.01,43.1
				c0,0.13-0.01,0.26-0.01,0.39v0.5h0.02v41.4h-19.59v-6.6c-6.79,4.35-14.7,6.66-22.77,6.65h-30.14
				C453.49,224.5,434.54,205.54,434.53,182.15"/>
		</g>
		<g transform="matrix(1, 0, 0, 1, 0, 0)">
			<path id="Path_514-2" class="st0" d="M419.43,182.16v42.34h-19.57v-6.65c-6.8,4.35-14.7,6.66-22.78,6.65h-30.14
				c-23.39,0.11-42.43-18.75-42.55-42.14c-0.11-23.39,18.75-42.43,42.14-42.55c0.14,0,0.27,0,0.41,0h30.14
				C400.47,139.82,419.43,158.77,419.43,182.16C419.43,182.16,419.43,182.16,419.43,182.16 M399.87,182.16L399.87,182.16
				c0-16.13-9.5-30.75-24.23-37.3c-8.67-3.85-18.56-3.85-27.23,0c-20.6,9.16-29.87,33.29-20.71,53.89
				c4.1,9.23,11.48,16.61,20.71,20.71c8.67,3.85,18.56,3.85,27.23,0C390.37,212.91,399.87,198.29,399.87,182.16"/>
		</g>
		<g transform="matrix(1, 0, 0, 1, 0, 0)">
			<path id="Path_515-2" class="st0" d="M388.72,83.95c-2.55-0.6-5.16-0.94-7.78-1v-0.01H326.7v-68h-19.58v111.51h19.58V84.46h35.68
				c21.08,1.37,37.47,18.87,37.48,39.99v2h19.58v-3.51C419.44,104.41,406.74,88.29,388.72,83.95"/>
		</g>
		<g transform="matrix(1, 0, 0, 1, 0, 0)">
			<path id="Path_516-2" class="st0" d="M358.32,83.45c-2.55,0.6-5.16,0.94-7.78,1v0.01h-18.57v-1.52
				c21.08-1.37,37.47-18.87,37.48-39.99v-2h19.58v3.51C389.03,62.99,376.33,79.11,358.32,83.45"/>
		</g>
		<g transform="matrix(1, 0, 0, 1, 0, 0)">
			<path id="Path_517-2" class="st0" d="M160.74,41.8L160.74,41.8v-0.09h-19.59v42.95c-0.21,15.92-9.67,30.27-24.22,36.74
				c-8.67,3.85-18.56,3.85-27.22,0c-14.74-6.55-24.24-21.17-24.24-37.3h0.01V41.75H45.91v42.34H45.9
				c0,23.38,18.96,42.34,42.34,42.34h30.14c7.01,0.01,13.92-1.74,20.08-5.07c-6.27,28.59-24.89,46.55-60.47,56.52
				c34.7,0,54.4-14.38,64.81-26.44c11.35-13.32,17.69-30.19,17.93-47.68L160.74,41.8z"/>
		</g>
	</g>
</g>
</svg>
