<svg xmlns="http://www.w3.org/2000/svg" width="174.905" height="177.933" viewBox="0 0 174.905 177.933">
  <g id="Beer_icon_2" data-name="Beer icon 2" transform="translate(-300.133 -637.799)">
    <path id="Path_472" data-name="Path 472" d="M237.516,510.241l49.162-13.177a7.369,7.369,0,0,0,5.193-9.005L271.25,411.073c-2.72-10.158-11.943-15.471-21.136-13.009a21.238,21.238,0,0,0-35.581,8.45" transform="translate(158.568 289.411)" fill="none" stroke="#fff" stroke-miterlimit="10" stroke-width="2.5"/>
    <path id="Path_473" data-name="Path 473" d="M216.055,414.364l-10.7-2.87a18.925,18.925,0,0,0-23.1,13.336l-8.29,30.95A18.929,18.929,0,0,0,187.3,478.886L198,481.758" transform="translate(128.108 303.676)" fill="none" stroke="#fff" stroke-miterlimit="10" stroke-width="2.5"/>
    <path id="Path_474" data-name="Path 474" d="M195.227,460.638l-7.814-2.094a6.935,6.935,0,0,1-4.864-8.431l6.741-25.162a6.925,6.925,0,0,1,8.43-4.866l7.814,2.085" transform="translate(134.758 310.326)" fill="none" stroke="#fff" stroke-miterlimit="10" stroke-width="2.5"/>
    <path id="Path_475" data-name="Path 475" d="M198.577,410.3l34.43,9.224-2.115,7.894a7.673,7.673,0,1,0,14.823,3.972m2.115-7.883-4.27,15.946a10.14,10.14,0,1,0,19.588,5.254" transform="translate(146.775 303.268)" fill="none" stroke="#fff" stroke-miterlimit="10" stroke-width="2.5"/>
    <path id="Path_476" data-name="Path 476" d="M199.913,506.71l-7.882-2.115a7.376,7.376,0,0,1-5.2-9.016L207.448,418.6c2.72-10.15,11.953-15.471,21.136-13.009a21.246,21.246,0,0,1,35.908,9.631c9.193,2.463,14.525,11.678,11.805,21.826l-20.63,76.995a7.37,7.37,0,0,1-9.005,5.193l-16.37-4.379" transform="translate(137.905 294.978)" fill="none" stroke="#fff" stroke-miterlimit="10" stroke-width="2.5"/>
    <path id="Path_477" data-name="Path 477" d="M289.774,447.694l.15.555a18.923,18.923,0,0,1-13.334,23.108l-10.7,2.87M247.83,406.833l10.7-2.87a18.922,18.922,0,0,1,23.1,13.346" transform="translate(183.179 298.11)" fill="none" stroke="#fff" stroke-miterlimit="10" stroke-width="2.5"/>
    <path id="Path_478" data-name="Path 478" d="M260.366,453.107l7.8-2.085a6.952,6.952,0,0,0,4.875-8.44L266.3,417.42a6.947,6.947,0,0,0-8.438-4.866l-7.8,2.085" transform="translate(184.829 304.762)" fill="none" stroke="#fff" stroke-miterlimit="10" stroke-width="2.5"/>
    <line id="Line_195" data-name="Line 195" x1="28.085" y2="7.527" transform="translate(401.733 700.484)" fill="none" stroke="#fff" stroke-miterlimit="10" stroke-width="2.5"/>
    <line id="Line_196" data-name="Line 196" x2="8.12" y2="13.981" transform="translate(352.054 666.019)" fill="none" stroke="#df9712" stroke-miterlimit="10" stroke-width="2.5"/>
    <line id="Line_197" data-name="Line 197" x2="15.637" y2="4.141" transform="translate(331.544 683.624)" fill="none" stroke="#df9712" stroke-miterlimit="10" stroke-width="2.5"/>
    <line id="Line_198" data-name="Line 198" x1="4.219" y2="15.609" transform="translate(373.369 657.032)" fill="none" stroke="#df9712" stroke-miterlimit="10" stroke-width="2.5"/>
    <path id="Path_479" data-name="Path 479" d="M259.374,383a9.14,9.14,0,1,1-9.143,9.136A9.156,9.156,0,0,1,259.374,383m0-4.348a13.488,13.488,0,1,0,13.49,13.484,13.5,13.5,0,0,0-13.49-13.484" transform="translate(181.741 279.873)" fill="#fff"/>
    <path id="Path_480" data-name="Path 480" d="M239.25,371.6a7.189,7.189,0,1,1-7.188,7.19,7.206,7.206,0,0,1,7.188-7.19m0-4.348a11.537,11.537,0,1,0,11.536,11.537,11.55,11.55,0,0,0-11.536-11.537" transform="translate(168.311 271.449)" fill="#fff"/>
    <path id="Path_481" data-name="Path 481" d="M187.666,371.082a9.14,9.14,0,1,1-9.144,9.146,9.156,9.156,0,0,1,9.144-9.146m0-4.348a13.488,13.488,0,1,0,13.48,13.494,13.508,13.508,0,0,0-13.48-13.494" transform="translate(128.738 271.065)" fill="#fff"/>
    <path id="Path_482" data-name="Path 482" d="M184.261,398.854a7.19,7.19,0,1,1-7.188,7.19,7.2,7.2,0,0,1,7.188-7.19m0-4.348a11.537,11.537,0,1,0,11.525,11.537,11.55,11.55,0,0,0-11.525-11.537" transform="translate(127.667 291.592)" fill="#fff"/>
    <line id="Line_199" data-name="Line 199" x2="0.019" y2="0.01" transform="translate(352.988 805.749)" fill="none" stroke="#e4216c" stroke-miterlimit="10" stroke-width="2.5"/>
    <line id="Line_200" data-name="Line 200" x2="0.01" y2="0.01" transform="translate(468.854 730.601)" fill="none" stroke="#e4216c" stroke-miterlimit="10" stroke-width="2.5"/>
  </g>
</svg>
