<svg xmlns="http://www.w3.org/2000/svg" width="358.486" height="182.542" viewBox="0 0 358.486 182.542">
  <g id="Super_Delicious" data-name="Super Delicious" transform="translate(-161.586 -402.296)">
    <path id="Path_339" data-name="Path 339" d="M161.605,385.529a26.488,26.488,0,0,1-26.458-26.458V353a52.878,52.878,0,0,1,0-88.144v-6.073a26.488,26.488,0,0,1,26.458-26.458H391.679a26.488,26.488,0,0,1,26.458,26.458v6.073a52.878,52.878,0,0,1,0,88.144v6.075a26.488,26.488,0,0,1-26.458,26.458Z" transform="translate(76.839 171.416)" fill="#181217"/>
    <path id="Path_340" data-name="Path 340" d="M392.117,234.2a25.018,25.018,0,0,1,25.019,25.019v6.852a51.44,51.44,0,0,1,0,86.586v6.854a25.018,25.018,0,0,1-25.019,25.018H162.044a25.018,25.018,0,0,1-25.019-25.018v-6.854a51.44,51.44,0,0,1,0-86.586v-6.852A25.018,25.018,0,0,1,162.044,234.2Zm0-2.879H162.044a27.93,27.93,0,0,0-27.9,27.9v5.308a54.317,54.317,0,0,0,0,89.675v5.309a27.929,27.929,0,0,0,27.9,27.9H392.117a27.929,27.929,0,0,0,27.9-27.9V354.2a54.317,54.317,0,0,0,0-89.675v-5.308a27.93,27.93,0,0,0-27.9-27.9" transform="translate(76.399 170.976)" fill="#e4216c"/>
    <path id="Path_444" data-name="Path 444" d="M204.948,383.649l70.925-150.328H221.946L151.021,383.649Z" transform="translate(94.215 171.855)" fill="#e4216c"/>
    <path id="Path_445" data-name="Path 445" d="M207.829,383.649l70.925-150.328H265.312L194.387,383.649Z" transform="translate(113.275 171.855)" fill="#e4216c"/>
    <path id="Path_446" data-name="Path 446" d="M267.764,383.649,338.69,233.321H311.11L240.185,383.649Z" transform="translate(133.404 171.855)" fill="#e4216c"/>
    <path id="Path_447" data-name="Path 447" d="M146.728,383.649l70.925-150.328H214.36L143.435,383.649Z" transform="translate(90.88 171.855)" fill="#e4216c"/>
    <path id="Path_448" data-name="Path 448" d="M179.671,309.286q10.384,0,20.839-1.019a23.444,23.444,0,0,0-1.594,4.907q-.445,2.3-.956,6.118-8.285.32-14.977.318-6.756,0-14.084-.318a70.949,70.949,0,0,1-11.5-1.4,34.628,34.628,0,0,1-9.147-3.314,41.36,41.36,0,0,1-1.019,5.1,25.914,25.914,0,0,0-4.365-1.53q-2.263-.572-5.194-1.146,3.185-8.1,3.187-21.8h8.348q0,3.312-.127,8.156a11.112,11.112,0,0,0,1.146.638V294.31h-10.9v-9.941h10.9v-1.211h-9.941V273.47h9.941v-2.421h10.2v2.421h5.035v8.349a26.656,26.656,0,0,0,4.461-.286,3.9,3.9,0,0,0,2.23-.989,2.654,2.654,0,0,0,.51-.7h-5.99V272.26H199.3v10.579q0,3.122-1.242,4.334t-4.684,1.529q-3.442.319-12.236.318a8.491,8.491,0,0,0-.573-2.611,14.433,14.433,0,0,1-4.524,2.1,51.27,51.27,0,0,1-6.691,1.339,21.777,21.777,0,0,0-3.888-7.647v.956h-5.035v1.211h5.225v9.941h-5.225v1.465h5.225V306.61h-5.225v1.337a38.153,38.153,0,0,0,6.692.956q6.882.384,12.556.383m18.354-1.339h-31.1v-18.1h31.1Zm-11.983-10.641h-7.137v2.038h7.137Zm-1.657-17.463L184,281.5a18.567,18.567,0,0,0,2.709-.128q.732-.125.861-.413a3.222,3.222,0,0,0,.128-1.116Z" transform="translate(88.348 188.438)" fill="#fff"/>
    <path id="Path_449" data-name="Path 449" d="M179.671,309.286q10.384,0,20.839-1.019a23.444,23.444,0,0,0-1.594,4.907q-.445,2.3-.956,6.118-8.285.32-14.977.318-6.756,0-14.084-.318a70.949,70.949,0,0,1-11.5-1.4,34.628,34.628,0,0,1-9.147-3.314,41.36,41.36,0,0,1-1.019,5.1,25.914,25.914,0,0,0-4.365-1.53q-2.263-.572-5.194-1.146,3.185-8.1,3.187-21.8h8.348q0,3.312-.127,8.156a11.112,11.112,0,0,0,1.146.638V294.31h-10.9v-9.941h10.9v-1.211h-9.941V273.47h9.941v-2.421h10.2v2.421h5.035v8.349a26.656,26.656,0,0,0,4.461-.286,3.9,3.9,0,0,0,2.23-.989,2.654,2.654,0,0,0,.51-.7h-5.99V272.26H199.3v10.579q0,3.122-1.242,4.334t-4.684,1.529q-3.442.319-12.236.318a8.491,8.491,0,0,0-.573-2.611,14.433,14.433,0,0,1-4.524,2.1,51.27,51.27,0,0,1-6.691,1.339,21.777,21.777,0,0,0-3.888-7.647v.956h-5.035v1.211h5.225v9.941h-5.225v1.465h5.225V306.61h-5.225v1.337a38.153,38.153,0,0,0,6.692.956Q174,309.287,179.671,309.286Zm18.354-1.339h-31.1v-18.1h31.1Zm-11.983-10.641h-7.137v2.038h7.137Zm-1.657-17.463L184,281.5a18.567,18.567,0,0,0,2.709-.128q.732-.125.861-.413a3.222,3.222,0,0,0,.128-1.116Z" transform="translate(88.348 188.438)" fill="none" stroke="#e4216c" stroke-miterlimit="10" stroke-width="0.5"/>
    <path id="Path_450" data-name="Path 450" d="M239.432,306.132A18.714,18.714,0,0,0,244.4,307.6a41.118,41.118,0,0,1-.51,7.87,4.5,4.5,0,0,1-2.421,3.219,19.107,19.107,0,0,1-6.629,1.274q-3.887.255-9.813.256-4.4,0-8.922-.191a10.915,10.915,0,0,1-4.111-.8,3.878,3.878,0,0,1-1.943-2.485,19.607,19.607,0,0,1-.574-5.512V299.5l-6.946.956-.128-1.273a10.709,10.709,0,0,0-1.211.125v21.031H190.808V300.587q-3.7.447-7.84.764a69.834,69.834,0,0,0-.51-9.367l4.27-.128q1.274-1.4,1.848-2.1a60.6,60.6,0,0,0-6.5-6.309l3.951-8.729c.595.508,1.083.956,1.465,1.337a38.826,38.826,0,0,0,3.124-5.8l9.24,2.295q-4.144,6.119-6.438,9.177l.829.892a134.628,134.628,0,0,0,7.52-11.6l9.5,2.932-6.82,9.5,2.549-.383q.255,1.149.318,1.722a35.3,35.3,0,0,0,3.25-7.009,34.49,34.49,0,0,0,1.339-6.566h11.725l-.19,2.04h16.187l2.8,5.162a3.329,3.329,0,0,0-1.339,1.339q-.764,1.719-1.785,4.779h2.932v21.6Zm-52.066-4.206,2.421-.063q0,5.735-.127,9.082a67.965,67.965,0,0,1-.829,7.805l-2.326-.286a35.326,35.326,0,0,0-4.238-.223,52.462,52.462,0,0,0,1.211-7.583q.255-3.377.256-8.6,1.207,0,3.632-.128m13.956-10.516-.573-3-2.295,3.124Zm7.074,9.751q0,5.1.223,8.666t.859,7.775l-3.567.383-3.187.383q-.382-9.877-.383-16.888Zm1.083-4.909v-9.367l-1.72-.127q1.339,6.689,1.72,9.494M222.162,293h-2.04v3.76h2.04Zm12.013,14.657a3.025,3.025,0,0,0,.541-1.529H220.123v1.084c0,.468.073.754.223.859a3.341,3.341,0,0,0,1.178.288q2.358.188,6.246.19a37.748,37.748,0,0,0,4.971-.19,2.348,2.348,0,0,0,1.435-.7m-12.842-25.619-1.019,2.486h7.9l.764-2.486ZM232.74,293h-2.231v3.76h2.231Z" transform="translate(107.864 188.088)" fill="#fff"/>
    <path id="Path_451" data-name="Path 451" d="M239.432,306.132A18.714,18.714,0,0,0,244.4,307.6a41.118,41.118,0,0,1-.51,7.87,4.5,4.5,0,0,1-2.421,3.219,19.107,19.107,0,0,1-6.629,1.274q-3.887.255-9.813.256-4.4,0-8.922-.191a10.915,10.915,0,0,1-4.111-.8,3.878,3.878,0,0,1-1.943-2.485,19.607,19.607,0,0,1-.574-5.512V299.5l-6.946.956-.128-1.273a10.709,10.709,0,0,0-1.211.125v21.031H190.808V300.587q-3.7.447-7.84.764a69.834,69.834,0,0,0-.51-9.367l4.27-.128q1.274-1.4,1.848-2.1a60.6,60.6,0,0,0-6.5-6.309l3.951-8.729c.595.508,1.083.956,1.465,1.337a38.826,38.826,0,0,0,3.124-5.8l9.24,2.295q-4.144,6.119-6.438,9.177l.829.892a134.628,134.628,0,0,0,7.52-11.6l9.5,2.932-6.82,9.5,2.549-.383q.255,1.149.318,1.722a35.3,35.3,0,0,0,3.25-7.009,34.49,34.49,0,0,0,1.339-6.566h11.725l-.19,2.04h16.187l2.8,5.162a3.329,3.329,0,0,0-1.339,1.339q-.764,1.719-1.785,4.779h2.932v21.6Zm-52.066-4.206,2.421-.063q0,5.735-.127,9.082a67.965,67.965,0,0,1-.829,7.805l-2.326-.286a35.326,35.326,0,0,0-4.238-.223,52.462,52.462,0,0,0,1.211-7.583q.255-3.377.256-8.6Q184.941,302.054,187.366,301.926Zm13.956-10.516-.573-3-2.295,3.124Zm7.074,9.751q0,5.1.223,8.666t.859,7.775l-3.567.383-3.187.383q-.382-9.877-.383-16.888Zm1.083-4.909v-9.367l-1.72-.127Q209.1,293.448,209.479,296.253ZM222.162,293h-2.04v3.76h2.04Zm12.013,14.657a3.025,3.025,0,0,0,.541-1.529H220.123v1.084c0,.468.073.754.223.859a3.341,3.341,0,0,0,1.178.288q2.358.188,6.246.19a37.748,37.748,0,0,0,4.971-.19A2.348,2.348,0,0,0,234.175,307.661Zm-12.842-25.619-1.019,2.486h7.9l.764-2.486ZM232.74,293h-2.231v3.76h2.231Z" transform="translate(107.864 188.088)" fill="none" stroke="#e4216c" stroke-miterlimit="10" stroke-width="0.5"/>
    <path id="Path_452" data-name="Path 452" d="M265.06,307.483a77.847,77.847,0,0,0,9.272,1.337q4.621.382,11.5.383h3.442a26.932,26.932,0,0,0-6.5,11.408,97.666,97.666,0,0,1-13.318-2.359,56.838,56.838,0,0,1-11.472-4.461,34.549,34.549,0,0,1-11.057,4.589,107.312,107.312,0,0,1-13.735,2.295,52.594,52.594,0,0,0-2.772-6.278,21.618,21.618,0,0,0-3.854-5.194q8.028.063,14.306-.415a71.068,71.068,0,0,0,9.91-1.306H227.906v-8.859h22.878v-.892H265.06v.892h22.878v8.859Zm23.325-17.718v7.2H227.46v-7.2h23.2v-1.147H229.245V282.5h21.413v-1.147H229.245v-7.265h11.916c-.128-.338-.265-.71-.415-1.114s-.308-.838-.478-1.306l14.339-.574a29.845,29.845,0,0,0,.511,2.994h5.607q.255-1.082.511-2.994l14.339.574q-.257.7-.478,1.306t-.416,1.114h11.983v7.265H265.252V282.5h21.413v6.118H265.252v1.147Z" transform="translate(127.42 188.457)" fill="#fff"/>
    <path id="Path_453" data-name="Path 453" d="M265.06,307.483a77.847,77.847,0,0,0,9.272,1.337q4.621.382,11.5.383h3.442a26.932,26.932,0,0,0-6.5,11.408,97.666,97.666,0,0,1-13.318-2.359,56.838,56.838,0,0,1-11.472-4.461,34.549,34.549,0,0,1-11.057,4.589,107.312,107.312,0,0,1-13.735,2.295,52.594,52.594,0,0,0-2.772-6.278,21.618,21.618,0,0,0-3.854-5.194q8.028.063,14.306-.415a71.068,71.068,0,0,0,9.91-1.306H227.906v-8.859h22.878v-.892H265.06v.892h22.878v8.859Zm23.325-17.718v7.2H227.46v-7.2h23.2v-1.147H229.245V282.5h21.413v-1.147H229.245v-7.265h11.916c-.128-.338-.265-.71-.415-1.114s-.308-.838-.478-1.306l14.339-.574a29.845,29.845,0,0,0,.511,2.994h5.607q.255-1.082.511-2.994l14.339.574q-.257.7-.478,1.306t-.416,1.114h11.983v7.265H265.252V282.5h21.413v6.118H265.252v1.147Z" transform="translate(127.42 188.457)" fill="none" stroke="#e4216c" stroke-miterlimit="10" stroke-width="0.5"/>
    <path id="Path_454" data-name="Path 454" d="M327.724,320.272a33.652,33.652,0,0,1-7.01-11.916v11.407h-13.7V307.909q-3,8.158-7.2,12.363a28.65,28.65,0,0,0-3.315-8.22v5.161h-13v1.275H272.344V272.412H296.5v31.929a29.964,29.964,0,0,0,7.2-4.779h-6.309V287.389h9.368v-2.231H297.58v-11.6h9.177v-2.421h14.211v2.421h9.815v11.6h-9.815v2.231h11.025v12.173h-8.03a25.516,25.516,0,0,0,8.857,5.607,50.03,50.03,0,0,0-5.1,15.1M283.5,304.532h2.295V284.075H283.5Z" transform="translate(147.539 188.477)" fill="#fff"/>
    <path id="Path_455" data-name="Path 455" d="M327.724,320.272a33.652,33.652,0,0,1-7.01-11.916v11.407h-13.7V307.909q-3,8.158-7.2,12.363a28.65,28.65,0,0,0-3.315-8.22v5.161h-13v1.275H272.344V272.412H296.5v31.929a29.964,29.964,0,0,0,7.2-4.779h-6.309V287.389h9.368v-2.231H297.58v-11.6h9.177v-2.421h14.211v2.421h9.815v11.6h-9.815v2.231h11.025v12.173h-8.03a25.516,25.516,0,0,0,8.857,5.607A50.03,50.03,0,0,0,327.724,320.272ZM283.5,304.532h2.295V284.075H283.5Z" transform="translate(147.539 188.477)" fill="none" stroke="#e4216c" stroke-miterlimit="10" stroke-width="0.5"/>
    <path id="Path_456" data-name="Path 456" d="M119.94,363.325l-17.127,1.867,7.07-15.712-14.957-8.558,14.957-8.555-7.07-15.714,17.127,1.869,3.515-16.868,12.76,11.58,12.76-11.58,3.515,16.868,17.129-1.869-7.07,15.714,14.955,8.555L162.55,349.48l7.07,15.712-17.129-1.867-3.515,16.867-12.76-11.58-12.76,11.58Z" transform="translate(69.559 201.889)" fill="#181217"/>
    <path id="Path_457" data-name="Path 457" d="M148.964,305.251l3.269,15.684L168.16,319.2l-6.574,14.61,13.906,7.955-13.906,7.956,6.574,14.61-15.925-1.738-3.271,15.685L137.1,367.509l-11.863,10.768-3.269-15.684-15.927,1.736,6.574-14.61L98.71,341.764l13.906-7.955-6.574-14.61,15.927,1.736,3.269-15.684L137.1,316.019Zm1.792-5.513-3.727,3.381-9.928,9.011-9.928-9.011-3.727-3.381-1.026,4.926-2.737,13.126-13.329-1.454-5-.546,2.064,4.589,5.5,12.227-11.637,6.658-4.369,2.5,4.369,2.5,11.637,6.659-5.5,12.227-2.064,4.589,5-.546,13.329-1.454,2.737,13.126,1.028,4.926,3.725-3.381L137.1,371.4l9.928,9.011,3.727,3.381,1.026-4.926,2.737-13.126,13.329,1.454,5,.546-2.064-4.589-5.5-12.227,11.639-6.659,4.368-2.5-4.368-2.5-11.639-6.658,5.5-12.227,2.064-4.589-5,.546-13.329,1.454-2.737-13.126Z" transform="translate(68.674 201.048)" fill="#df9712"/>
    <path id="Path_458" data-name="Path 458" d="M130.644,351.078l-7.12,6.461-1.964-9.412L112,349.169l3.946-8.768-8.348-4.776,8.348-4.775L112,322.079l9.558,1.044,1.964-9.413,7.12,6.461,7.121-6.462,1.964,9.414,9.558-1.044-3.946,8.771,8.348,4.775-8.348,4.776,3.946,8.768-9.558-1.042-1.964,9.413Z" transform="translate(75.13 207.188)" fill="#181217"/>
    <path id="Path_459" data-name="Path 459" d="M137.762,315.056l1.87,8.973,9.108-.995-3.759,8.356,7.953,4.549-7.953,4.552,3.759,8.355-9.108-.992-1.87,8.968-6.786-6.158-6.785,6.157-1.868-8.967-9.109.992,3.76-8.355-7.955-4.552,7.955-4.549-3.76-8.356,9.109.995,1.868-8.971,6.785,6.158Zm.672-2.067-1.4,1.268-6.06,5.5-6.058-5.5-1.4-1.268-.386,1.847-1.67,8.011-8.133-.887-1.876-.2.773,1.72,3.358,7.463-7.1,4.062-1.638.937,1.638.937,7.1,4.065-3.358,7.461-.773,1.722,1.876-.2,8.133-.887,1.67,8.008.386,1.848,1.4-1.268,6.058-5.5,6.06,5.5,1.4,1.27.384-1.848,1.67-8.01,8.135.887,1.876.2-.774-1.722-3.357-7.461,7.1-4.065,1.637-.937L153.471,335l-7.1-4.062,3.357-7.463.774-1.72-1.876.2-8.135.887-1.67-8.012Z" transform="translate(74.798 206.872)" fill="#df9712"/>
    <path id="Path_460" data-name="Path 460" d="M159.189,252.8a13.975,13.975,0,0,0,2.4.626c.8.132,1.74.236,2.823.307a11.239,11.239,0,0,1-.507,2.955,1.957,1.957,0,0,1-1.519,1.012,29.028,29.028,0,0,1-4.526.373q-3.783.106-6.711.107-2.9,0-4.74-.079a26.4,26.4,0,0,1-4.275-.4,2.715,2.715,0,0,1-1.758-.959,3.978,3.978,0,0,1-.439-2.131v-6.151h6.391v1.411q5.247-.291,8.748-.612a60.784,60.784,0,0,0,6.193-.852,34.025,34.025,0,0,0,3.2,3.861Zm-11.852,16.166h-6.764V258.6h23.248v10.36h-6.789v-.4h-9.7Zm9.335-14.941q.544-.026.652-.253a1.69,1.69,0,0,0,.053-.785q-4.422.4-11.053.718c.019.177.147.285.387.32a13.383,13.383,0,0,0,1.37.081q.745.026,2.557.026,3.17,0,5.326-.079c.108,0,.343-.009.707-.027m.36,7.457h-9.694v.665h9.694Zm-9.7,3.916h9.694v-.639h-9.694Z" transform="translate(89.342 178.485)" fill="#fff"/>
    <path id="Path_461" data-name="Path 461" d="M159.189,252.8a13.975,13.975,0,0,0,2.4.626c.8.132,1.74.236,2.823.307a11.239,11.239,0,0,1-.507,2.955,1.957,1.957,0,0,1-1.519,1.012,29.028,29.028,0,0,1-4.526.373q-3.783.106-6.711.107-2.9,0-4.74-.079a26.4,26.4,0,0,1-4.275-.4,2.715,2.715,0,0,1-1.758-.959,3.978,3.978,0,0,1-.439-2.131v-6.151h6.391v1.411q5.247-.291,8.748-.612a60.784,60.784,0,0,0,6.193-.852,34.025,34.025,0,0,0,3.2,3.861Zm-11.852,16.166h-6.764V258.6h23.248v10.36h-6.789v-.4h-9.7Zm9.335-14.941q.544-.026.652-.253a1.69,1.69,0,0,0,.053-.785q-4.422.4-11.053.718c.019.177.147.285.387.32a13.383,13.383,0,0,0,1.37.081q.745.026,2.557.026,3.17,0,5.326-.079C156.074,254.049,156.309,254.04,156.673,254.021Zm.36,7.457h-9.694v.665h9.694Zm-9.7,3.916h9.694v-.639h-9.694Z" transform="translate(89.342 178.485)" fill="none" stroke="#e4216c" stroke-miterlimit="10" stroke-width="0.5"/>
    <path id="Path_462" data-name="Path 462" d="M181.521,268.972a14.068,14.068,0,0,1-2.929-4.979v4.766h-5.726v-4.953a14.141,14.141,0,0,1-3.007,5.166,12,12,0,0,0-1.386-3.435v2.156h-5.433v.533h-4.66V248.973h10.093v13.342a12.49,12.49,0,0,0,3.009-2h-2.636V255.23h3.914V254.3h-3.833v-4.847h3.833V248.44H178.7v1.012h4.1V254.3h-4.1v.931H183.3v5.087h-3.356a10.679,10.679,0,0,0,3.7,2.344,20.854,20.854,0,0,0-2.132,6.311m-18.482-6.577H164v-8.548h-.959Z" transform="translate(97.449 178.501)" fill="#fff"/>
    <path id="Path_463" data-name="Path 463" d="M181.521,268.972a14.068,14.068,0,0,1-2.929-4.979v4.766h-5.726v-4.953a14.141,14.141,0,0,1-3.007,5.166,12,12,0,0,0-1.386-3.435v2.156h-5.433v.533h-4.66V248.973h10.093v13.342a12.49,12.49,0,0,0,3.009-2h-2.636V255.23h3.914V254.3h-3.833v-4.847h3.833V248.44H178.7v1.012h4.1V254.3h-4.1v.931H183.3v5.087h-3.356a10.679,10.679,0,0,0,3.7,2.344A20.854,20.854,0,0,0,181.521,268.972Zm-18.482-6.577H164v-8.548h-.959Z" transform="translate(97.449 178.501)" fill="none" stroke="#e4216c" stroke-miterlimit="10" stroke-width="0.5"/>
    <path id="Path_464" data-name="Path 464" d="M190.617,254.983l-3.3.239a30.826,30.826,0,0,1-2.6,7.67,21.761,21.761,0,0,1-4.3,5.965,27.193,27.193,0,0,0-2.132-3.381,18.491,18.491,0,0,0-2.129-2.371,12.071,12.071,0,0,0,2.9-3.262,15.545,15.545,0,0,0,1.7-4.434h-2.45l-.053-5.3,3.276-.026.105-1.625h6.419q0,.479-.053,1.385,2.716-.186,4.368-.345v3.168a47.018,47.018,0,0,1,7.4-.586h.959l.747,5.593q-.453-.026-1.385-.026a54.655,54.655,0,0,0-9.482.905Zm7.365,7.749a18.513,18.513,0,0,0,3.582-.718,28.107,28.107,0,0,0-1.012,6.285,19.591,19.591,0,0,1-2.663.412q-1.544.147-3.142.147c-.479,0-1.111-.017-1.892-.053q-6.949-.371-6.951-4.5a8.7,8.7,0,0,1,.933-3.543,27.305,27.305,0,0,0,3-.492,12.775,12.775,0,0,0,2.09-.626,11.084,11.084,0,0,0-.187,1.572,1.748,1.748,0,0,0,.479,1.438,2.474,2.474,0,0,0,1.519.373,34.678,34.678,0,0,0,4.248-.294" transform="translate(105.263 178.509)" fill="#fff"/>
    <path id="Path_465" data-name="Path 465" d="M190.617,254.983l-3.3.239a30.826,30.826,0,0,1-2.6,7.67,21.761,21.761,0,0,1-4.3,5.965,27.193,27.193,0,0,0-2.132-3.381,18.491,18.491,0,0,0-2.129-2.371,12.071,12.071,0,0,0,2.9-3.262,15.545,15.545,0,0,0,1.7-4.434h-2.45l-.053-5.3,3.276-.026.105-1.625h6.419q0,.479-.053,1.385,2.716-.186,4.368-.345v3.168a47.018,47.018,0,0,1,7.4-.586h.959l.747,5.593q-.453-.026-1.385-.026a54.655,54.655,0,0,0-9.482.905Zm7.365,7.749a18.513,18.513,0,0,0,3.582-.718,28.107,28.107,0,0,0-1.012,6.285,19.591,19.591,0,0,1-2.663.412q-1.544.147-3.142.147c-.479,0-1.111-.017-1.892-.053q-6.949-.371-6.951-4.5a8.7,8.7,0,0,1,.933-3.543,27.305,27.305,0,0,0,3-.492,12.775,12.775,0,0,0,2.09-.626,11.084,11.084,0,0,0-.187,1.572,1.748,1.748,0,0,0,.479,1.438,2.474,2.474,0,0,0,1.519.373A34.678,34.678,0,0,0,197.982,262.732Z" transform="translate(105.263 178.509)" fill="none" stroke="#e4216c" stroke-miterlimit="10" stroke-width="0.5"/>
    <path id="Path_466" data-name="Path 466" d="M199.086,263.958a14.634,14.634,0,0,0-1.759-3.155q2.665.106,3.782.107a33.235,33.235,0,0,0,8.9-.986,4.762,4.762,0,0,0,1.477-.586.989.989,0,0,0,.334-.825,1.632,1.632,0,0,0-1.026-1.506,6.757,6.757,0,0,0-2.97-.518,33.218,33.218,0,0,0-5.378.559,35.967,35.967,0,0,0-5.46,1.306l-1.251-5.912q3.673-.773,6.963-1.212a43.474,43.474,0,0,1,5.606-.439,16.267,16.267,0,0,1,5.58.852,7.648,7.648,0,0,1,3.57,2.476,6.193,6.193,0,0,1,1.237,3.862,7.026,7.026,0,0,1-2.489,5.765,14.209,14.209,0,0,1-6.538,2.783,59.2,59.2,0,0,1-9.747.826,13.5,13.5,0,0,0-.825-3.4" transform="translate(113.865 179.533)" fill="#fff"/>
    <path id="Path_467" data-name="Path 467" d="M199.086,263.958a14.634,14.634,0,0,0-1.759-3.155q2.665.106,3.782.107a33.235,33.235,0,0,0,8.9-.986,4.762,4.762,0,0,0,1.477-.586.989.989,0,0,0,.334-.825,1.632,1.632,0,0,0-1.026-1.506,6.757,6.757,0,0,0-2.97-.518,33.218,33.218,0,0,0-5.378.559,35.967,35.967,0,0,0-5.46,1.306l-1.251-5.912q3.673-.773,6.963-1.212a43.474,43.474,0,0,1,5.606-.439,16.267,16.267,0,0,1,5.58.852,7.648,7.648,0,0,1,3.57,2.476,6.193,6.193,0,0,1,1.237,3.862,7.026,7.026,0,0,1-2.489,5.765,14.209,14.209,0,0,1-6.538,2.783,59.2,59.2,0,0,1-9.747.826A13.5,13.5,0,0,0,199.086,263.958Z" transform="translate(113.865 179.533)" fill="none" stroke="#e4216c" stroke-miterlimit="10" stroke-width="0.5"/>
    <path id="Path_468" data-name="Path 468" d="M236.932,256.536l-1.65-.053a26.234,26.234,0,0,1,2.9,5.513,32.487,32.487,0,0,1,1.6,6.311q-2,.294-3.317.56t-2.731.692a27.959,27.959,0,0,0-1.078-6.632,15.329,15.329,0,0,0-2.783-5.06l3.649-1.491q-4.288-.24-8.869-.8a9.943,9.943,0,0,0,2.4,1.758,10.51,10.51,0,0,1,4.129,3.368,7.76,7.76,0,0,1,1.225,4.329,4.339,4.339,0,0,1-1.585,3.554,7.354,7.354,0,0,1-4.727,1.293q-2.371,0-3.888-.053a29.1,29.1,0,0,0-.905-3.941,30.737,30.737,0,0,1-3.436,4.393,33.557,33.557,0,0,0-2.621-2.437,11.654,11.654,0,0,0-2.678-1.611,23.006,23.006,0,0,0,3.475-3.528,13.543,13.543,0,0,0,2.037-3.662l2.318.4a15.422,15.422,0,0,1-1.638-1.225q-.812-.693-1.025-.88l-1.012-.852a37.62,37.62,0,0,0,4.261-1.385l-3.436-.505a5.775,5.775,0,0,0-.638-.108l1.49-4.926A137.179,137.179,0,0,0,233.444,251a3.507,3.507,0,0,1,1.185-4.94,3.5,3.5,0,0,1,3.488,0,3.4,3.4,0,0,1,1.28,1.278,3.447,3.447,0,0,1,.465,1.745,3.41,3.41,0,0,1-.652,2.05,3.487,3.487,0,0,1-1.717,1.28Zm-11.238,5.886a8.621,8.621,0,0,0-1.89-1.225,29.516,29.516,0,0,1-1.545,3.115,12.5,12.5,0,0,0,2.584.294,2.162,2.162,0,0,0,1.17-.226,1.031,1.031,0,0,0,.321-.892,1.587,1.587,0,0,0-.641-1.065m9.322-14.687a1.858,1.858,0,0,0-.56,1.345,1.889,1.889,0,0,0,.56,1.372,1.9,1.9,0,0,0,2.716,0,1.893,1.893,0,0,0,.559-1.372,1.862,1.862,0,0,0-.559-1.345,1.9,1.9,0,0,0-2.716,0" transform="translate(121.265 177.249)" fill="#fff"/>
    <path id="Path_469" data-name="Path 469" d="M236.932,256.536l-1.65-.053a26.234,26.234,0,0,1,2.9,5.513,32.487,32.487,0,0,1,1.6,6.311q-2,.294-3.317.56t-2.731.692a27.959,27.959,0,0,0-1.078-6.632,15.329,15.329,0,0,0-2.783-5.06l3.649-1.491q-4.288-.24-8.869-.8a9.943,9.943,0,0,0,2.4,1.758,10.51,10.51,0,0,1,4.129,3.368,7.76,7.76,0,0,1,1.225,4.329,4.339,4.339,0,0,1-1.585,3.554,7.354,7.354,0,0,1-4.727,1.293q-2.371,0-3.888-.053a29.1,29.1,0,0,0-.905-3.941,30.737,30.737,0,0,1-3.436,4.393,33.557,33.557,0,0,0-2.621-2.437,11.654,11.654,0,0,0-2.678-1.611,23.006,23.006,0,0,0,3.475-3.528,13.543,13.543,0,0,0,2.037-3.662l2.318.4a15.422,15.422,0,0,1-1.638-1.225q-.812-.693-1.025-.88l-1.012-.852a37.62,37.62,0,0,0,4.261-1.385l-3.436-.505a5.775,5.775,0,0,0-.638-.108l1.49-4.926A137.179,137.179,0,0,0,233.444,251a3.507,3.507,0,0,1,1.185-4.94,3.5,3.5,0,0,1,3.488,0,3.4,3.4,0,0,1,1.28,1.278,3.447,3.447,0,0,1,.465,1.745,3.41,3.41,0,0,1-.652,2.05,3.487,3.487,0,0,1-1.717,1.28Zm-11.238,5.886a8.621,8.621,0,0,0-1.89-1.225,29.516,29.516,0,0,1-1.545,3.115,12.5,12.5,0,0,0,2.584.294,2.162,2.162,0,0,0,1.17-.226,1.031,1.031,0,0,0,.321-.892A1.587,1.587,0,0,0,225.693,262.422Zm9.322-14.687a1.858,1.858,0,0,0-.56,1.345,1.889,1.889,0,0,0,.56,1.372,1.9,1.9,0,0,0,2.716,0,1.893,1.893,0,0,0,.559-1.372,1.862,1.862,0,0,0-.559-1.345,1.9,1.9,0,0,0-2.716,0Z" transform="translate(121.265 177.249)" fill="none" stroke="#e4216c" stroke-miterlimit="10" stroke-width="0.5"/>
    <path id="Path_470" data-name="Path 470" d="M251.53,250.383a8.027,8.027,0,0,1,3.3,3.05A8.607,8.607,0,0,1,256,257.947a8.889,8.889,0,0,1-2.01,5.846,12.538,12.538,0,0,1-5.857,3.728,29.268,29.268,0,0,1-9.255,1.291,7.645,7.645,0,0,0-1.6-2.77,19.086,19.086,0,0,0-3.2-2.77,53.818,53.818,0,0,0,8.441-.705,11.111,11.111,0,0,0,4.726-1.771,3.67,3.67,0,0,0,1.5-3.036,3.168,3.168,0,0,0-1.024-2.5,4.136,4.136,0,0,0-2.836-.905,7.708,7.708,0,0,0-1.093.079,4.805,4.805,0,0,0-3.037,1.519,4.475,4.475,0,0,0-1.119,3.089,6.319,6.319,0,0,0,.242,1.677l-7.034.852a39.447,39.447,0,0,1-.186-4.048,49.847,49.847,0,0,1,.772-8.708l6.819-.373c-.089.443-.161.888-.214,1.332s-.105,1.012-.157,1.7a9.2,9.2,0,0,1,3.049-1.625,12.1,12.1,0,0,1,3.714-.559,10.549,10.549,0,0,1,4.874,1.091" transform="translate(130.103 178.501)" fill="#fff"/>
    <path id="Path_471" data-name="Path 471" d="M251.53,250.383a8.027,8.027,0,0,1,3.3,3.05A8.607,8.607,0,0,1,256,257.947a8.889,8.889,0,0,1-2.01,5.846,12.538,12.538,0,0,1-5.857,3.728,29.268,29.268,0,0,1-9.255,1.291,7.645,7.645,0,0,0-1.6-2.77,19.086,19.086,0,0,0-3.2-2.77,53.818,53.818,0,0,0,8.441-.705,11.111,11.111,0,0,0,4.726-1.771,3.67,3.67,0,0,0,1.5-3.036,3.168,3.168,0,0,0-1.024-2.5,4.136,4.136,0,0,0-2.836-.905,7.708,7.708,0,0,0-1.093.079,4.805,4.805,0,0,0-3.037,1.519,4.475,4.475,0,0,0-1.119,3.089,6.319,6.319,0,0,0,.242,1.677l-7.034.852a39.447,39.447,0,0,1-.186-4.048,49.847,49.847,0,0,1,.772-8.708l6.819-.373c-.089.443-.161.888-.214,1.332s-.105,1.012-.157,1.7a9.2,9.2,0,0,1,3.049-1.625,12.1,12.1,0,0,1,3.714-.559A10.549,10.549,0,0,1,251.53,250.383Z" transform="translate(130.103 178.501)" fill="none" stroke="#e4216c" stroke-miterlimit="10" stroke-width="0.5"/>
  </g>
</svg>
