<svg xmlns="http://www.w3.org/2000/svg" width="146.144" height="135.018" viewBox="0 0 146.144 135.018">
  <g id="Flame" transform="translate(-1164.79 -347.291)">
    <path id="Path_500" data-name="Path 500" d="M766.954,329.24c23.164-11.238,27.687-40.884,14.88-61.32-10.569-16.864-37.882-45.264-27.621-67.407,0,0-34.741,14.376-20.913,46.275,0,0-9.619-8.4-16.019-8.654,5.05,17.3-5.824,28.139-10.572,43.623-4.1,13.381.367,25.125,8.242,34.995a43.3,43.3,0,0,0,51.259,12.824c.247-.11.5-.221.744-.336" transform="translate(521.204 148.206)" fill="#181217"/>
    <path id="Path_501" data-name="Path 501" d="M766.954,329.24c23.164-11.238,27.687-40.884,14.88-61.32-10.569-16.864-37.882-45.264-27.621-67.407,0,0-34.741,14.376-20.913,46.275,0,0-9.619-8.4-16.019-8.654,5.05,17.3-5.824,28.139-10.572,43.623-4.1,13.381.367,25.125,8.242,34.995a43.3,43.3,0,0,0,51.259,12.824C766.457,329.466,766.705,329.355,766.954,329.24Z" transform="translate(521.204 148.206)" fill="none" stroke="#e4216c" stroke-miterlimit="10" stroke-width="1.5"/>
    <path id="Path_502" data-name="Path 502" d="M683.8,308.492a25.941,25.941,0,0,0,30.715-7.685c4.72-5.913,7.4-12.951,4.941-20.97-2.845-9.276-9.362-15.772-6.336-26.139-3.835.151-9.6,5.186-9.6,5.186,8.287-19.115-12.532-27.73-12.532-27.73,6.149,13.27-10.217,30.287-16.55,40.393-7.675,12.247-4.965,30.01,8.917,36.744.148.07.3.136.445.2" transform="translate(495.384 170.853)" fill="#181217"/>
    <path id="Path_503" data-name="Path 503" d="M683.8,308.492a25.941,25.941,0,0,0,30.715-7.685c4.72-5.913,7.4-12.951,4.941-20.97-2.845-9.276-9.362-15.772-6.336-26.139-3.835.151-9.6,5.186-9.6,5.186,8.287-19.115-12.532-27.73-12.532-27.73,6.149,13.27-10.217,30.287-16.55,40.393-7.675,12.247-4.965,30.01,8.917,36.744C683.5,308.36,683.652,308.426,683.8,308.492Z" transform="translate(495.384 170.853)" fill="none" stroke="#e4216c" stroke-miterlimit="10" stroke-width="1.5"/>
  </g>
</svg>
