<svg width="431" height="61" viewBox="0 0 431 61" fill="none" xmlns="http://www.w3.org/2000/svg">
<g clip-path="url(#clip0_4_1418)">
<path d="M336.497 38.2806V41.7502H333.966V38.2806H328.455V37.6121H333.966V34.9378H327.627V34.2693H331.63C331.354 33.1512 330.998 32.1138 330.653 31.2493L330.94 31.0187H327.259V30.3847H333.989V27.9756H328.57V27.3071H333.989V25.4858H336.439V27.3071H341.731V27.9756H336.439V30.3847H343.065V31.0187H338.303L340.396 31.9639C339.568 32.8515 338.429 33.6468 337.313 34.2808H342.743V34.9494H336.474V37.6236H341.984V38.2922H336.474L336.497 38.2806ZM331.331 31.0072C332.194 31.6181 333.137 32.4365 334.035 33.3587L332.551 34.2578H336.301C336.911 33.2088 337.405 32.0677 337.704 31.0072H331.308H331.331Z" fill="white"/>
<path d="M358.791 40.39C357.64 40.5168 356.34 40.5859 354.96 40.5859C354.074 40.5859 353.177 40.5514 352.268 40.4937C349.358 40.2978 348.725 38.8108 348.644 36.1366C348.61 34.9378 348.587 33.8082 348.587 32.7016C347.517 32.7938 346.493 32.8975 345.55 33.0128L345.4 32.1483L348.564 31.8716C348.564 30.5 348.587 29.1398 348.598 27.6759H351.072C350.968 29.0822 350.922 30.5115 350.888 31.6757C352.406 31.5489 354.178 31.4452 355.708 31.3184C355.708 29.889 355.639 28.4482 355.558 26.8459H357.963C357.986 27.6067 357.997 28.3444 357.997 29.0476C357.997 29.7507 357.974 30.4423 357.963 31.1224L361.034 30.8919L361.138 31.6872C360.125 31.7564 359.044 31.8371 357.939 31.9178C357.939 32.7131 357.905 33.4969 357.813 34.2923C357.629 35.9176 357.203 36.7936 355.972 36.7936C355.248 36.7936 354.258 36.4824 352.889 35.8945V35.1107C353.741 35.4565 354.339 35.6409 354.73 35.6409C355.363 35.6409 355.558 35.2029 355.627 34.2692C355.685 33.543 355.685 32.8399 355.696 32.1368C354.143 32.2405 352.372 32.3558 350.853 32.4826C350.853 32.9321 350.83 33.4047 350.83 33.8888C350.83 34.5805 350.853 35.2951 350.865 36.1135C350.922 38.0616 351.428 38.4996 352.705 38.5918C353.246 38.6264 353.821 38.6494 354.419 38.6494C355.903 38.6494 357.468 38.5457 358.756 38.3382V40.4015L358.791 40.39Z" fill="white"/>
<path d="M370.375 39.802C374.045 39.168 375.701 37.3007 375.863 34.4305C375.863 34.2807 375.886 34.1423 375.886 33.9925C375.886 30.8802 374.01 29.0936 371.767 29.0936C371.411 34.0501 369.984 37.3583 367.304 38.9836C366.821 39.2948 366.326 39.4332 365.9 39.4332C364.727 39.4332 363.841 38.3496 363.841 36.1941C363.841 35.8714 363.864 35.5256 363.899 35.1567C364.278 31.7563 367.488 28.4827 371.79 28.4827C376.093 28.4827 378.577 30.6382 378.577 34.1423C378.577 34.2691 378.554 34.419 378.554 34.5573C378.359 38.0845 375.471 40.1132 370.571 40.3092L370.375 39.779V39.802ZM366.188 34.7878C366.153 35.1452 366.13 35.4795 366.13 35.7446C366.13 36.7589 366.383 37.2085 366.821 37.2085C367.039 37.2085 367.292 37.0817 367.591 36.8857C369.202 35.7792 370.444 33.128 370.985 29.1282C368.132 29.5431 366.452 32.275 366.188 34.7878Z" fill="white"/>
<path d="M385.583 39.8135C385.434 38.3842 385.204 37.1162 384.847 36.1364C384.283 38.5225 383.144 40.4244 381.419 41.75L381.074 41.3005C382.719 38.8914 383.259 36.2863 383.259 32.5631V25.4741H385.25V30.8802C385.595 30.0849 385.882 29.1858 386.043 28.2175L387.757 29.6123C387.09 30.3384 386.227 31.0646 385.25 31.6525V32.4248C385.25 33.5083 385.158 34.5457 384.973 35.5025C385.917 36.3209 386.63 37.0586 387.504 38.1997L385.595 39.8135H385.583ZM381.143 33.2317C381.557 31.9522 381.844 30.5344 381.937 29.0705L382.385 29.1281C382.696 30.592 382.891 31.8946 382.995 33.6351L381.131 33.2317H381.143ZM394.326 41.3696C393.187 41.3696 392.198 41.0815 392.198 39.2372V35.2258H391.209C390.978 39.1334 388.827 40.8163 385.445 41.7154L385.135 41.1506C387.481 39.7904 388.85 38.3842 388.908 35.2143H386.4V34.5688H396.995V35.2143H394.361V38.9259C394.361 39.2833 394.591 39.3755 394.844 39.3755H395.672C396.178 39.3755 396.431 39.0527 396.696 36.8396L397.398 37.0932C397.294 40.8048 396.742 41.3581 395.614 41.3581H394.315L394.326 41.3696ZM393.601 34.1538V32.0559H389.978V34.1538H388.033V32.0559H386.296V31.3989H388.033V29.4048H389.978V31.3989H393.601V29.4048H395.545V31.3989H397.317V32.0559H395.545V34.1538H393.601ZM392.808 28.206V30.4998H390.737V28.206H387.033V27.549H390.737V25.4741H392.808V27.549H396.558V28.206H392.808Z" fill="white"/>
<path d="M410.788 40.8278C409.925 41.0469 408.476 41.1737 407.164 41.1737C406.762 41.1737 406.393 41.1506 406.025 41.1391C402.252 40.9085 400.319 39.6867 400.319 37.5542C400.319 35.9981 401.769 34.9837 404.599 34.7532C404.794 34.7302 405.001 34.7302 405.197 34.7302C406.52 34.7302 408.119 35.0183 409.097 35.6177C408.211 34.661 407.417 33.5775 406.715 32.2749C404.438 32.4709 402.091 32.6207 399.836 32.6899L399.802 31.9522C401.953 31.883 404.173 31.7562 406.336 31.5718C406.014 30.9032 405.68 30.2001 405.393 29.4509C403.771 29.6007 402.16 29.7045 400.722 29.7736L400.653 29.0359C402.01 29.0013 403.563 28.9091 405.128 28.7593C404.898 28.1022 404.656 27.4221 404.438 26.719L406.911 26.1772C407.072 27.0302 407.325 27.7679 407.578 28.5057C409.062 28.3558 410.661 28.1829 411.789 28.0215L411.915 28.7823C410.799 28.9322 409.258 29.0705 407.854 29.2203C408.165 29.958 408.487 30.6497 408.844 31.3182C410.305 31.1684 411.915 30.9955 413.227 30.811L413.376 31.5718C412.134 31.7332 410.615 31.8946 409.246 32.0444C409.948 33.2201 410.857 34.2691 411.869 35.318L409.868 36.9318C408.372 35.9866 406.704 35.4448 405.278 35.4448C405.128 35.4448 404.99 35.4448 404.84 35.4679C402.908 35.6293 402.172 36.1941 402.172 37.1162C402.172 38.2574 403.218 39.0297 406.255 39.1449H406.658C407.889 39.1449 409.603 38.9951 410.661 38.73L410.811 40.8509L410.788 40.8278Z" fill="white"/>
<path d="M428.849 29.2666H424.592C424.5 29.5547 424.397 29.8314 424.27 30.0965C425.72 30.5115 427.284 31.1224 428.481 31.7909L426.893 34.0732C426.203 32.8283 425.145 31.5373 424.063 30.523C423.247 31.9869 421.912 33.1857 419.565 33.8542L419.312 33.3125C421.118 32.3327 422.004 31.0647 422.395 29.255H418.979V41.7155H416.827V28.4943H422.51C422.66 27.6067 422.694 26.5923 422.694 25.4512L425.064 25.7393C425.064 26.6961 424.995 27.6182 424.788 28.4827H431V39.2834C431 40.5859 430.804 41.704 428.964 41.704C428.262 41.704 427.342 41.5426 426.088 41.1738V40.5167C426.859 40.7012 427.411 40.7703 427.825 40.7703C428.78 40.7703 428.849 40.2862 428.849 39.2834V29.2204V29.2666ZM426.916 39.4332C426.283 38.2921 425.237 37.0587 424.224 36.0674C423.465 37.6235 422.165 38.9606 419.588 39.5024L419.301 38.926C422.062 37.4276 422.591 35.1683 422.729 32.667L425.133 33.2087C424.984 33.9695 424.788 34.7649 424.489 35.5256C425.892 35.9636 427.468 36.54 428.515 37.1509L426.928 39.4332H426.916Z" fill="white"/>
<path d="M91.4664 25.9007V41.7616H84.15V39.2718C81.6882 40.851 78.7778 41.7616 75.6373 41.7616H64.3751C55.6322 41.7616 48.5459 34.6611 48.5459 25.9007C48.5459 17.1403 55.6322 10.0398 64.3751 10.0398H75.6373C84.3801 10.0398 91.4664 17.1403 91.4664 25.9007ZM84.15 25.9007C84.15 19.6647 80.4343 14.3163 75.0966 11.9302C71.864 10.4893 68.1483 10.4893 64.9158 11.9302C59.578 14.3047 55.8623 19.6647 55.8623 25.9007C55.8623 32.1367 59.5895 37.4852 64.9158 39.8712C68.1483 41.3121 71.864 41.3121 75.0966 39.8712C80.4343 37.4967 84.15 32.1367 84.15 25.9007Z" fill="white"/>
<path d="M145.166 6.7893V0H152.482V6.7893H145.166ZM145.166 9.7517H152.482V41.7502H145.166V9.7517Z" fill="white"/>
<path d="M214.591 25.8893V41.7387H207.286V25.8893C207.286 19.6648 203.571 14.3048 198.233 11.9303C195 10.4894 191.296 10.4894 188.063 11.9303C182.783 14.2818 179.091 19.5495 179.01 25.6933V41.7502L171.694 41.7156V25.8893C171.694 25.8893 171.694 25.7971 171.694 25.7394V25.555V9.75171H179.01V12.5297C181.472 10.9505 184.382 10.0399 187.511 10.0399H198.773C207.505 10.0399 214.591 17.1404 214.591 25.8893Z" fill="white"/>
<path d="M268.107 25.9009V9.75181H275.412V25.9009C275.412 32.1254 279.127 37.4854 284.465 39.8599C287.698 41.3008 291.402 41.3008 294.634 39.8599C299.915 37.5084 303.607 32.2407 303.688 26.0969V9.72876L311.004 9.76334V25.9009C311.004 25.9009 311.004 25.9931 311.004 26.0508V26.2352V41.7272H303.688V39.2605C301.226 40.8397 298.316 41.7503 295.187 41.7503H283.924C275.193 41.7503 268.107 34.6498 268.107 25.9009Z" fill="white"/>
<path d="M262.47 25.9009V41.7503H255.165V39.2605C252.703 40.8397 249.793 41.7503 246.652 41.7503H235.39C226.659 41.7503 219.572 34.6498 219.572 25.9009C219.572 17.152 226.659 10.0515 235.39 10.0515H246.652C255.383 10.0515 262.47 17.152 262.47 25.9009ZM255.165 25.9009C255.165 19.6764 251.449 14.3164 246.111 11.9419C242.879 10.5011 239.163 10.5011 235.942 11.9419C230.604 14.3164 226.889 19.6764 226.889 25.9009C226.889 32.1254 230.604 37.4854 235.942 39.8599C239.175 41.3008 242.879 41.3008 246.111 39.8599C251.449 37.4854 255.165 32.1254 255.165 25.9009Z" fill="white"/>
<path d="M128.06 25.8431C127.105 25.6126 126.139 25.4973 125.161 25.4742H121.33H104.891V0.0114746H97.575V41.7501H104.891V26.0391H118.224C126.035 26.5462 132.224 33.0474 132.224 41.0124V41.7617H139.541V40.4476C139.541 33.3701 134.652 27.4338 128.071 25.8546L128.06 25.8431Z" fill="white"/>
<path d="M116.694 25.6588C115.739 25.8893 114.773 26.0046 113.795 26.0277H109.964H106.858V25.4628C114.669 24.9557 120.858 18.4545 120.858 10.4895V9.74023H128.175V11.0543C128.175 18.1318 123.286 24.0681 116.706 25.6473L116.694 25.6588Z" fill="white"/>
<path d="M42.8975 10.0744V10.0398H35.5811V26.1197C35.5006 32.252 31.8079 37.5198 26.5277 39.8712C23.2951 41.3121 19.5909 41.3121 16.3584 39.8712C11.0206 37.4967 7.30489 32.1367 7.30489 25.9122V10.0628H0V25.9122C0 34.6611 7.08632 41.7616 15.8177 41.7616H27.0799C29.7947 41.7616 32.3486 41.07 34.5803 39.8597C32.2335 50.5566 25.2853 57.2883 11.9869 61.0115C24.9517 61.0115 32.3026 55.6284 36.2023 51.1214C40.4012 46.2571 42.8975 39.5831 42.8975 33.2779V10.0744Z" fill="white"/>
</g>
<defs>
<clipPath id="clip0_4_1418">
<rect width="431" height="61" fill="white"/>
</clipPath>
</defs>
</svg>
