<svg xmlns="http://www.w3.org/2000/svg" width="134.461" height="317.286" viewBox="0 0 134.461 317.286">
  <g id="Eat_Happy" data-name="Eat Happy" transform="translate(-2.478 -399.921)">
    <path id="Path_494" data-name="Path 494" d="M77,273.768a18.007,18.007,0,0,1-2.546,2.376q1.865.115,5.318.226A31.613,31.613,0,0,0,78,280.331q-.652,1.813-1.33,4.132c-.19.715-.32,1.188-.4,1.414a60.83,60.83,0,0,1-11.374-2.97,46.325,46.325,0,0,1-10.3-5.235v5.263q-14.768,1.644-27.786,2.546a33.64,33.64,0,0,0-.99-4.527,25.536,25.536,0,0,0-1.67-4.414l5.207-.17V257.3c-.757.077-1.923.151-3.51.226q-.057-2.377-.424-5.828t-.819-5.6q.621.057,2.205.056,3.282,0,6.962-.339a39.345,39.345,0,0,0,6.45-1.077,14.812,14.812,0,0,0,3.763-1.442,2.943,2.943,0,0,0,1.33-2.122H59.294a10.021,10.021,0,0,1-1.075,2.376,64.846,64.846,0,0,0,18.955,2.6c1.322,0,2.3-.017,2.943-.056q-.509,2.15-.99,5.517t-.708,5.913q-2.322-.224-3.282-.4V272.3H70.894ZM63.085,259.62H41.412v.849H63.085Zm0,5.433H41.412v.962H63.085ZM41.412,275.521q4.581-.394,8.995-1.13L48.372,272.3h-6.96Zm6.054-23.6q-1.756.848-3.623,1.64h3.623Zm8.09-.339q-2.2-.963-4.186-1.925-.848.569-2.659,1.586Zm5.038,1.979q-2.549-.848-4.47-1.7v1.7ZM64.5,272.3H59.631q2.15,1.075,3.678,1.7a5.564,5.564,0,0,0,1.19-1.7" transform="translate(17.851 178.259)" fill="#fff"/>
    <path id="Path_495" data-name="Path 495" d="M65.66,285.168a98.857,98.857,0,0,0,15.5,7.3,33.923,33.923,0,0,0-2.546,5.969q-.908,2.914-1.868,7.158l-.282,1.19a130.255,130.255,0,0,1-14.8-8.233q-5.744-3.822-10.723-7.894-3.112-2.434-3.9-2.944a1.571,1.571,0,0,0-.793-.283.838.838,0,0,0-.623.228q-1.641,1.414-2.32,2.037-3.566,3.172-7.1,5.913t-9.534,6.48a64.868,64.868,0,0,0-2.943-14.939,57.258,57.258,0,0,0,8.63-4.67,46.741,46.741,0,0,0,6.423-5.007q3.96-3.905,7.753-3.906a8.949,8.949,0,0,1,3.875.964,21.371,21.371,0,0,1,4.273,2.83q3.509,2.888,6.621,5.036a49.691,49.691,0,0,0-2.6-6.056l5.207-1.64a46.939,46.939,0,0,1,3.791,9.845Zm3.621-1.132a50.046,50.046,0,0,0-3.734-9.79l5.205-1.64a42.386,42.386,0,0,1,3.849,9.845Z" transform="translate(17.538 201.492)" fill="#fff"/>
    <path id="Path_496" data-name="Path 496" d="M65.987,310.571a19.438,19.438,0,0,0-8.659,2.207,13.916,13.916,0,0,0-5.346,4.951,11.787,11.787,0,0,0-1.783,6.139,4.173,4.173,0,0,0,.763,2.661A5.457,5.457,0,0,0,54.1,328a36.7,36.7,0,0,0,7.13.51q5.262,0,11.826-.452a22.7,22.7,0,0,0-1.838,6.2,61.433,61.433,0,0,0-.424,6.875q-1.586.06-4.583.059-12.79,0-19.61-1.729t-9.165-4.7a11.813,11.813,0,0,1-2.35-7.555,19.678,19.678,0,0,1,2.037-8.969,22.726,22.726,0,0,1,5.717-7.158l-17.033,2.6V300.554q4.357,0,14.826-.282l10.922-.284q5.828-.112,10.753-.311t13.523-.65L76,310.571Z" transform="translate(19.077 221.021)" fill="#fff"/>
    <path id="Path_497" data-name="Path 497" d="M79.1,345.858q-1.049,1.5-2.461,3.99l-.736,1.3h3.337v7.809H60.057q7.3,1.813,19.581,1.981a40.658,40.658,0,0,0-3.028,4.953,30.408,30.408,0,0,0-2.009,5.176,50.91,50.91,0,0,1-8.346-2.376,39.353,39.353,0,0,1-7.612-3.791v5.772H46.42V364.9a36.185,36.185,0,0,1-7.525,3.847,45.646,45.646,0,0,1-8.433,2.32,30.554,30.554,0,0,0-2.009-5.176,40.877,40.877,0,0,0-3.028-4.953q12.449-.17,19.579-1.981H25.822v-7.809h3.96q-1.923-3.224-3.111-4.894a13.339,13.339,0,0,0-2.943-2.97,38.343,38.343,0,0,0,7.753-4.981,32.877,32.877,0,0,0-7.3-1.642,24,24,0,0,0,2.376-4.329q.9-2.176,1.868-5.177a48.091,48.091,0,0,1,9.675,3.339l-1.525,3.282,1.64,1.923v-6.734h8.092l.452-1.924,12.393.226-.454,1.7h8.094v7.469l1.923-2.264-1.755-3.676a51.4,51.4,0,0,1,9.734-3.339q1.02,3.17,1.9,5.29a23.567,23.567,0,0,0,2.292,4.216,46.618,46.618,0,0,0-6.623,1.529,37.256,37.256,0,0,0,7.3,5.035,12.6,12.6,0,0,0-2.461,2.633m-40.885-.65a46,46,0,0,1-5.433,5.941H46.42v-1.019H38.215ZM56.1,335.19H48.909v1.245H56.1ZM48.909,343.4H56.1v-1.188H48.909Zm9.734,7.753H72.9a45.5,45.5,0,0,1-6.111-6.79v5.77h-8.15Z" transform="translate(17.538 241.727)" fill="#fff"/>
    <path id="Path_498" data-name="Path 498" d="M68.139,392.738Q61.148,398.2,48.757,398.2q-8.431,0-13.242-1.642a12.11,12.11,0,0,1-6.932-5.318q-2.123-3.678-2.122-10.13,0-4.3.68-24.163L42.532,357q-.736,6.112-1.047,10.471t-.311,9.449a16.316,16.316,0,0,0,.623,5.32,3.659,3.659,0,0,0,2.433,2.235,20.449,20.449,0,0,0,5.83.595q6.222,0,9.534-3.169t3.877-10.186a39.08,39.08,0,0,0,4.64,2.177q2.264.879,5.941,2.068l2.661.847q-1.586,10.471-8.572,15.93" transform="translate(19.558 263.83)" fill="#fff"/>
    <path id="Path_499" data-name="Path 499" d="M76.065,405a82.205,82.205,0,0,1,.508,8.826q0,7.417-4.045,10.47T61.86,427.578q-2.374.112-5.092.115t-5.092-.115a35.945,35.945,0,0,1-5.631-.764,15.991,15.991,0,0,1-5.009-1.783,5.825,5.825,0,0,1-2.715,1.9,11.25,11.25,0,0,1-4.188.765,7.924,7.924,0,0,1-4.584-1.443,9.993,9.993,0,0,1-3.339-4.075,14.058,14.058,0,0,1-1.245-6.083q0-6.79,3.226-10.016a11.122,11.122,0,0,1,8.205-3.228,16.5,16.5,0,0,1,2.83.228v-2.094q-9.167,0-12.506-.169,0-3.848-.085-6.424a44.118,44.118,0,0,0-.48-5.176q7.7.339,14.259.337a41.155,41.155,0,0,1,1.075-4.751H55.3q-.793,2.431-1.245,4.47,2.943-.112,4.3-.226a56.465,56.465,0,0,0,6.111-.763q2.943-.537,6.678-1.445a117.549,117.549,0,0,1,7.414,15.054,102.58,102.58,0,0,0-10.809,1.81,57.689,57.689,0,0,0,8.318,1.3M38.715,417a4.383,4.383,0,0,0,.567-2.659A8.231,8.231,0,0,0,39,411.82a1.52,1.52,0,0,0-.706-.993,3.062,3.062,0,0,0-1.1-.167c-.45,0-.81.358-1.075,1.075a7.4,7.4,0,0,0-.395,2.546,6.892,6.892,0,0,0,.369,2.405q.365.989,1.1.99a1.879,1.879,0,0,0,1.529-.68m23.937-7.3a26.988,26.988,0,0,0-.226-3.48,34.492,34.492,0,0,0-1.019-4.555q1.359.566,4.075,1.471a60.242,60.242,0,0,0-4.243-9.451v6.79l-9,.284q-.339,4.075-.341,7.583a22.259,22.259,0,0,0,.482,5.433,2.569,2.569,0,0,0,2.407,1.979q1.581.115,2.15.115c.376,0,1.094-.038,2.15-.115a4,4,0,0,0,2.8-1.186,4.807,4.807,0,0,0,.763-3Z" transform="translate(18.452 284.417)" fill="#fff"/>
    <line id="Line_207" data-name="Line 207" y2="317.286" transform="translate(3.478 399.921)" fill="none" stroke="#e4216c" stroke-miterlimit="10" stroke-width="2"/>
    <line id="Line_208" data-name="Line 208" y2="317.286" transform="translate(135.939 399.921)" fill="none" stroke="#e4216c" stroke-miterlimit="10" stroke-width="2"/>
  </g>
</svg>
