<svg width="23" height="23" viewBox="0 0 23 23" fill="none" xmlns="http://www.w3.org/2000/svg">
<g clip-path="url(#clip0_4_1396)">
<path d="M17.1443 7.22872C17.0131 6.89139 16.8564 6.64946 16.6025 6.39561C16.3487 6.14176 16.1084 5.98502 15.7694 5.85383C15.5138 5.75502 15.1305 5.63746 14.4252 5.60509C13.6619 5.57102 13.4319 5.5625 11.4999 5.5625C9.56791 5.5625 9.33791 5.56931 8.57465 5.60509C7.86932 5.63746 7.48599 5.75502 7.23043 5.85383C6.8931 5.98502 6.65117 6.14176 6.39732 6.39561C6.14347 6.64946 5.98673 6.88968 5.85554 7.22872C5.75673 7.48428 5.63917 7.86761 5.6068 8.57294C5.57273 9.3362 5.56421 9.5662 5.56421 11.4982C5.56421 13.4302 5.57102 13.6602 5.6068 14.4235C5.63917 15.1288 5.75673 15.5121 5.85554 15.7677C5.98673 16.105 6.14347 16.3469 6.39732 16.6008C6.65117 16.8546 6.89139 17.0114 7.23043 17.1426C7.48599 17.2414 7.86932 17.3589 8.57465 17.3913C9.33791 17.4254 9.56621 17.4339 11.4999 17.4339C13.4336 17.4339 13.6619 17.4271 14.4252 17.3913C15.1305 17.3589 15.5138 17.2414 15.7694 17.1426C16.1067 17.0114 16.3487 16.8546 16.6025 16.6008C16.8564 16.3469 17.0131 16.1067 17.1443 15.7677C17.2431 15.5121 17.3607 15.1288 17.393 14.4235C17.4271 13.6602 17.4356 13.4302 17.4356 11.4982C17.4356 9.5662 17.4288 9.3362 17.393 8.57294C17.3607 7.86761 17.2431 7.48428 17.1443 7.22872ZM11.4999 15.2174C9.44695 15.2174 7.78243 13.5529 7.78243 11.4999C7.78243 9.44694 9.44695 7.78243 11.4999 7.78243C13.5529 7.78243 15.2174 9.44694 15.2174 11.4999C15.2174 13.5529 13.5529 15.2174 11.4999 15.2174ZM15.3656 8.50309C14.8852 8.50309 14.4967 8.11465 14.4967 7.6342C14.4967 7.15376 14.8852 6.76531 15.3656 6.76531C15.8461 6.76531 16.2345 7.15376 16.2345 7.6342C16.2345 8.11465 15.8461 8.50309 15.3656 8.50309Z" fill="white"/>
<path d="M11.5001 13.9142C12.8334 13.9142 13.9142 12.8334 13.9142 11.5001C13.9142 10.1668 12.8334 9.08594 11.5001 9.08594C10.1668 9.08594 9.08594 10.1668 9.08594 11.5001C9.08594 12.8334 10.1668 13.9142 11.5001 13.9142Z" fill="white"/>
<path d="M11.5 0C5.14859 0 0 5.14859 0 11.5C0 17.8514 5.14859 23 11.5 23C17.8514 23 23 17.8514 23 11.5C23 5.14859 17.8514 0 11.5 0ZM18.6964 14.4849C18.6607 15.255 18.5397 15.7814 18.3591 16.2431C18.1734 16.7184 17.9264 17.1222 17.5243 17.526C17.1222 17.9281 16.7184 18.1768 16.2414 18.3608C15.7814 18.5397 15.255 18.6624 14.4832 18.6981C13.7114 18.7339 13.4644 18.7424 11.4983 18.7424C9.53222 18.7424 9.28519 18.7339 8.51341 18.6981C7.74333 18.6624 7.21689 18.5414 6.75519 18.3608C6.27985 18.1751 5.87607 17.9281 5.4723 17.526C5.07022 17.1239 4.82148 16.7201 4.63748 16.2431C4.45859 15.7831 4.33593 15.2567 4.30015 14.4849C4.26437 13.7131 4.25585 13.4661 4.25585 11.5C4.25585 9.53393 4.26437 9.28689 4.30015 8.51511C4.33593 7.74504 4.45689 7.21859 4.63748 6.75689C4.82318 6.28156 5.07022 5.87778 5.4723 5.474C5.87437 5.07193 6.27815 4.82318 6.75519 4.63918C7.21519 4.4603 7.74163 4.33763 8.51341 4.30185C9.28519 4.26607 9.53222 4.25756 11.4983 4.25756C13.4644 4.25756 13.7114 4.26607 14.4832 4.30185C15.2533 4.33763 15.7797 4.45859 16.2414 4.63918C16.7167 4.82489 17.1205 5.07193 17.5243 5.474C17.9264 5.87607 18.1751 6.27985 18.3591 6.75689C18.538 7.21689 18.6607 7.74333 18.6964 8.51511C18.7322 9.28689 18.7407 9.53393 18.7407 11.5C18.7407 13.4661 18.7322 13.7131 18.6964 14.4849Z" fill="white"/>
</g>
<defs>
<clipPath id="clip0_4_1396">
<rect width="23" height="23" fill="white"/>
</clipPath>
</defs>
</svg>
