<svg xmlns="http://www.w3.org/2000/svg" width="416.507" height="252.481" viewBox="0 0 416.507 252.481">
  <g id="Charcoal_Aroma" data-name="Charcoal Aroma" transform="translate(-555.955 -642.308)">
    <rect id="Rectangle_39" data-name="Rectangle 39" width="326.127" height="202.835" rx="11.558" transform="translate(569.144 690.215)" fill="#181217"/>
    <path id="Path_388" data-name="Path 388" d="M634.024,399.351a18.362,18.362,0,0,1,18.362,18.362V580.346a18.362,18.362,0,0,1-18.362,18.362H348.1a18.362,18.362,0,0,1-18.362-18.362V417.713A18.362,18.362,0,0,1,348.1,399.351Zm0-3.478H348.1a21.864,21.864,0,0,0-21.84,21.84V580.346a21.864,21.864,0,0,0,21.84,21.84H634.024a21.865,21.865,0,0,0,21.84-21.84V417.713a21.865,21.865,0,0,0-21.84-21.84" transform="translate(241.148 292.603)" fill="#df9712"/>
    <path id="Path_389" data-name="Path 389" d="M502.7,421.9c-2.777,11.689-6.4,15.315-18.092,18.092a1.423,1.423,0,0,0,0,2.765c11.689,2.777,15.315,6.4,18.092,18.092a1.423,1.423,0,0,0,2.765,0c2.777-11.689,6.4-15.315,18.092-18.092a1.423,1.423,0,0,0,0-2.765c-11.689-2.777-15.315-6.4-18.092-18.092a1.423,1.423,0,0,0-2.765,0" transform="translate(357.383 311.038)" fill="#df9712"/>
    <path id="Path_390" data-name="Path 390" d="M486.847,405.977c-1.659,6.984-3.826,9.151-10.812,10.812a.85.85,0,0,0,0,1.652c6.986,1.659,9.153,3.826,10.812,10.81a.85.85,0,0,0,1.652,0c1.659-6.984,3.828-9.151,10.812-10.81a.85.85,0,0,0,0-1.652c-6.984-1.661-9.153-3.828-10.812-10.812a.85.85,0,0,0-1.652,0" transform="translate(351.373 299.591)" fill="#e4216c"/>
    <path id="Path_391" data-name="Path 391" d="M359.711,388.507c-11.689-2.777-15.315-6.4-18.092-18.092a1.423,1.423,0,0,0-2.765,0c-2.777,11.689-6.4,15.315-18.092,18.092a1.423,1.423,0,0,0,0,2.765c11.689,2.777,15.315,6.4,18.092,18.092a1.423,1.423,0,0,0,2.765,0c2.777-11.689,6.4-15.315,18.092-18.092a1.423,1.423,0,0,0,0-2.765" transform="translate(236.281 272.981)" fill="#df9712"/>
    <path id="Path_392" data-name="Path 392" d="M368.331,414.828c-6.984-1.659-9.151-3.826-10.812-10.812a.85.85,0,0,0-1.652,0c-1.659,6.986-3.826,9.153-10.81,10.812a.85.85,0,0,0,0,1.652c6.984,1.659,9.151,3.828,10.81,10.812a.85.85,0,0,0,1.652,0c1.661-6.984,3.828-9.153,10.812-10.812a.85.85,0,0,0,0-1.652" transform="translate(254.562 298.141)" fill="#e4216c"/>
    <path id="Path_393" data-name="Path 393" d="M396.907,517.936a17.3,17.3,0,0,0,7.36,4.266,62.229,62.229,0,0,0,12.579,2.449,58.118,58.118,0,0,0-4.087,7.386,53.2,53.2,0,0,0-2.845,7.2,44.854,44.854,0,0,1-13.866-5.588,32.267,32.267,0,0,1-10.282-9.781,26.353,26.353,0,0,1-10.32,8.179,37.835,37.835,0,0,1-13.75,3.381,76.631,76.631,0,0,0-4.285-10.866,25.2,25.2,0,0,1-1.673,5.183,38.2,38.2,0,0,1-2.689,4.652A78.612,78.612,0,0,0,345.182,529a68.474,68.474,0,0,0-7.866-4.12,33,33,0,0,0,3.7-6.868,26.616,26.616,0,0,0,1.323-7.228q.274-4.307.273-14.348V483.522a366.265,366.265,0,0,0,70.887,7.233V502.8q-9.738-.11-19.475-.645-.036,3.754-.077,7.5a12.83,12.83,0,0,0,.932,5.115,25.241,25.241,0,0,0,2.3-4.51q.9-2.314,2.143-6.1.274-.861.546-1.722,7.088,1.782,14.176,3.332a80.7,80.7,0,0,1-7.4,14.357q-4.868-1.043-9.736-2.2m-1.558-46.261q8.489.451,16.981.558v17.023a365.472,365.472,0,0,1-69.174-7.106V465.127q8.491,1.753,16.983,3.026,0,1.79,0,3.581,4.362.658,8.725,1.2v-4.715q8.88,1.106,17.762,1.765V474.7q4.362.326,8.723.556,0-1.789,0-3.581m-22.475,45.732c3.087-1.748,4.663-4.774,4.713-9.014q.039-2.353.078-4.708a43.864,43.864,0,0,1-6.231,14.167q-6.425-1.057-12.852-2.362-.081,1.735-.391,4.393c6.7.174,11.6-.734,14.684-2.477m-13.9-18.878v1.049q0,8.118-.233,13.755a36.822,36.822,0,0,0,4.751-12.915q7.088,1.565,14.177,2.831v-2.357q-9.35-.929-18.7-2.364" transform="translate(249.321 343.791)" fill="#e4216c"/>
    <path id="Path_394" data-name="Path 394" d="M437.278,500.754c5.137,7.21,13.816,11.53,26.017,12.776a66.094,66.094,0,0,0-6.077,9.91,90.2,90.2,0,0,0-4.205,10.668,42.416,42.416,0,0,1-17.449-7.859,43.158,43.158,0,0,1-12.932-15.889,53,53,0,0,1-13.009,17.452,47.364,47.364,0,0,1-17.371,9.922,80.817,80.817,0,0,0-4.207-10.223,58.667,58.667,0,0,0-6.075-9.306c10.278-2.021,18.017-6.17,23.212-12.085s7.816-13.414,7.868-22.374q.039-7.816.078-15.631,9.543-.376,19.083-1.012-.036,7.727-.077,15.457a34.19,34.19,0,0,0,2.024,12.329,74.075,74.075,0,0,0,2.844-8.692q1.124-4.367,2.61-11.125.35-1.685.7-3.374,8.958,1.956,17.917,3.762a205.767,205.767,0,0,1-9.348,27.433q-5.8-1.036-11.607-2.137m-26.8-21.69a195.173,195.173,0,0,1-7.944,28.323q-8.139-.18-16.28-.6a140.388,140.388,0,0,0,7.557-28.957q8.332.741,16.668,1.237" transform="translate(282.328 345.25)" fill="#e4216c"/>
    <path id="Path_395" data-name="Path 395" d="M484.784,466.208a28.021,28.021,0,0,1,12.97,10.543,29.289,29.289,0,0,1,4.713,16.549,37.772,37.772,0,0,1-13.593,29.25,39.919,39.919,0,0,1-14.762,7.823,29.431,29.431,0,0,0-9.426-10.635,19.913,19.913,0,0,1-15.579,9.79q-9.657,1.077-15.151-4.678t-5.492-16.843a45.065,45.065,0,0,1,18.617-36.61,39.937,39.937,0,0,1,19.163-7.442,36.884,36.884,0,0,1,18.539,2.254M452.73,506.556a26.685,26.685,0,0,0,1.908-6.849q.934-5.037,2.181-15.741a19.993,19.993,0,0,0-7.557,7.746,22.429,22.429,0,0,0-2.725,11.04q0,6.2,3.584,5.8a3.377,3.377,0,0,0,2.609-1.995m26.524.023q3.42-4.654,3.426-11.988,0-10.3-8.567-12.929-1.088,10.949-2.687,18.852A76.427,76.427,0,0,1,467.568,514q8.254-2.765,11.685-7.421" transform="translate(316.692 342.704)" fill="#e4216c"/>
    <path id="Path_396" data-name="Path 396" d="M549.114,494.4q-.7,4.007-1.323,9.845c-1.454-.774-3.48-1.9-6.077-3.358V526.2q-8.413-.005-16.826.264v-1.31c-9.27.289-18.539.8-27.809,1.471v1.31q-8.416.608-16.826,1.376V504.956q-2.181,1.375-4.362,2.758-.618-5.789-1.325-9.739a50.134,50.134,0,0,0-1.713-6.995,70.5,70.5,0,0,0,17.059-5.884q-7.516.605-15.033,1.325V476.3c9.452-.9,18.9-1.687,28.355-2.294v-1.4c-8.31.563-16.619,1.266-24.927,2.059q0-3.579-.118-6.186a21.99,21.99,0,0,0-.663-4.654c18.8-1.763,41.076-3.962,66.837-4.661a69.761,69.761,0,0,0-.7,11.868c-8.31-.009-16.617.2-24.927.572v1.57c9.424-.39,18.85-.565,28.275-.456v10.125q-6.621-.076-13.242.026a70.077,70.077,0,0,0,17.061,4.4,52.793,52.793,0,0,0-1.715,7.127m-52.035,10.84c9.268-.67,18.539-1.181,27.809-1.47v-1.833c-9.27.289-18.539.8-27.809,1.471Zm0,8.9v2.1c9.268-.671,18.539-1.183,27.809-1.471v-2.1c-9.27.289-18.539.8-27.809,1.47m28.9-22.1q-3.2-1.915-7.245-4.544v3.143q-7.75.321-15.5.826v-1.922c-2.751,1.983-4.6,3.308-5.532,3.957,9.426-.675,18.852-1.183,28.278-1.459" transform="translate(349.501 339.384)" fill="#e4216c"/>
    <path id="Path_397" data-name="Path 397" d="M575.078,470.463a32.174,32.174,0,0,1,9.661,11.91,35.62,35.62,0,0,1,3.428,15.555c0,7.452-1.96,13.376-5.882,17.889s-9.635,7.482-17.139,9.172-16.525,2.01-27.068,1.242a27.809,27.809,0,0,0-4.675-9.393,59.368,59.368,0,0,0-9.348-9.541,217.536,217.536,0,0,0,24.7-.605c6.282-.668,10.889-1.974,13.826-4.12s4.4-5.219,4.4-9.3a12.1,12.1,0,0,0-11.294-12.741,19.073,19.073,0,0,0-3.195-.111,11.841,11.841,0,0,0-8.88,4.087,14.622,14.622,0,0,0-3.271,9.854,24.013,24.013,0,0,0,.7,5.555q-10.283.566-20.565,1.668-.545-5.862-.546-13.285a180.794,180.794,0,0,1,2.259-28.473q9.97-.274,19.943-.063-.389,2.152-.623,4.313c-.16,1.444-.31,3.292-.468,5.55a22.343,22.343,0,0,1,8.918-4.5,28.283,28.283,0,0,1,10.868-.516,30.006,30.006,0,0,1,14.254,5.849" transform="translate(384.295 339.757)" fill="#e4216c"/>
    <path id="Path_398" data-name="Path 398" d="M394.607,512.836a17.317,17.317,0,0,0,7.36,4.263,62.451,62.451,0,0,0,12.581,2.438,57.949,57.949,0,0,0-4.089,7.39,53.441,53.441,0,0,0-2.845,7.2,44.748,44.748,0,0,1-13.864-5.577,32.18,32.18,0,0,1-10.282-9.776,26.408,26.408,0,0,1-10.322,8.184,37.832,37.832,0,0,1-13.748,3.384,75.994,75.994,0,0,0-4.285-10.866,25.511,25.511,0,0,1-1.675,5.183,37.66,37.66,0,0,1-2.689,4.654,78.059,78.059,0,0,0-7.868-5.4,69.336,69.336,0,0,0-7.866-4.12,32.793,32.793,0,0,0,3.7-6.868,26.458,26.458,0,0,0,1.323-7.228q.274-4.307.273-14.346v-12.92a364.186,364.186,0,0,0,70.887,7.207V497.69q-9.738-.1-19.475-.63-.036,3.751-.077,7.5a12.755,12.755,0,0,0,.932,5.113,25.173,25.173,0,0,0,2.3-4.51q.895-2.316,2.143-6.1.274-.861.546-1.724,7.088,1.776,14.176,3.322a81.175,81.175,0,0,1-7.4,14.364q-4.868-1.041-9.736-2.191m-1.558-46.258q8.489.443,16.981.544v17.023a363.574,363.574,0,0,1-69.172-7.08V460.041q8.491,1.756,16.981,3.028v3.581q4.362.657,8.725,1.2v-4.713q8.88,1.1,17.762,1.757v4.715q4.362.326,8.724.551v-3.579m-22.475,45.741c3.087-1.748,4.661-4.774,4.713-9.016q.039-2.353.078-4.706a43.815,43.815,0,0,1-6.231,14.169q-6.425-1.057-12.852-2.36-.078,1.737-.39,4.393c6.7.174,11.591-.736,14.682-2.48m-13.9-18.875v1.049q0,8.118-.231,13.755a36.822,36.822,0,0,0,4.75-12.915q7.09,1.565,14.177,2.828V495.8q-9.347-.923-18.7-2.358" transform="translate(247.621 340.031)" fill="#fff"/>
    <path id="Path_399" data-name="Path 399" d="M394.607,512.836a17.317,17.317,0,0,0,7.36,4.263,62.451,62.451,0,0,0,12.581,2.438,57.949,57.949,0,0,0-4.089,7.39,53.441,53.441,0,0,0-2.845,7.2,44.748,44.748,0,0,1-13.864-5.577,32.18,32.18,0,0,1-10.282-9.776,26.408,26.408,0,0,1-10.322,8.184,37.832,37.832,0,0,1-13.748,3.384,75.994,75.994,0,0,0-4.285-10.866,25.511,25.511,0,0,1-1.675,5.183,37.66,37.66,0,0,1-2.689,4.654,78.059,78.059,0,0,0-7.868-5.4,69.336,69.336,0,0,0-7.866-4.12,32.793,32.793,0,0,0,3.7-6.868,26.458,26.458,0,0,0,1.323-7.228q.274-4.307.273-14.346v-12.92a364.186,364.186,0,0,0,70.887,7.207V497.69q-9.738-.1-19.475-.63-.036,3.751-.077,7.5a12.755,12.755,0,0,0,.932,5.113,25.173,25.173,0,0,0,2.3-4.51q.895-2.316,2.143-6.1.274-.861.546-1.724,7.088,1.776,14.176,3.322a81.175,81.175,0,0,1-7.4,14.364Q399.475,513.986,394.607,512.836Zm-1.558-46.258q8.489.443,16.981.544v17.023a363.574,363.574,0,0,1-69.172-7.08V460.041q8.491,1.756,16.981,3.028v3.581q4.362.657,8.725,1.2v-4.713q8.88,1.1,17.762,1.757v4.715q4.362.326,8.724.551Zm-22.475,45.741c3.087-1.748,4.661-4.774,4.713-9.016q.039-2.353.078-4.706a43.815,43.815,0,0,1-6.231,14.169q-6.425-1.057-12.852-2.36-.078,1.737-.39,4.393C362.6,514.973,367.484,514.064,370.574,512.319Zm-13.9-18.875v1.049q0,8.118-.231,13.755a36.822,36.822,0,0,0,4.75-12.915q7.09,1.565,14.177,2.828V495.8Q366.019,494.879,356.67,493.445Z" transform="translate(247.621 340.031)" fill="none" stroke="#e4216c" stroke-miterlimit="10" stroke-width="0.5"/>
    <path id="Path_400" data-name="Path 400" d="M434.981,495.614c5.141,7.2,13.814,11.515,26.017,12.743a65.7,65.7,0,0,0-6.077,9.917,90,90,0,0,0-4.205,10.673,42.367,42.367,0,0,1-17.449-7.835,43.055,43.055,0,0,1-12.932-15.873,53.036,53.036,0,0,1-13.009,17.468,47.459,47.459,0,0,1-17.372,9.939,80.5,80.5,0,0,0-4.207-10.217,58.283,58.283,0,0,0-6.075-9.3c10.283-2.028,18.023-6.188,23.214-12.106s7.819-13.423,7.866-22.384q.042-7.816.078-15.63,9.543-.389,19.085-1.037-.039,7.727-.076,15.457a34.187,34.187,0,0,0,2.024,12.327,74.251,74.251,0,0,0,2.843-8.7c.756-2.913,1.617-6.621,2.61-11.129l.7-3.376q8.958,1.943,17.918,3.739a207.177,207.177,0,0,1-9.348,27.445q-5.8-1.03-11.607-2.123m-26.8-21.657a195.361,195.361,0,0,1-7.946,28.332q-8.139-.172-16.28-.586a140.5,140.5,0,0,0,7.557-28.965q8.335.733,16.67,1.219" transform="translate(280.629 341.456)" fill="#fff"/>
    <path id="Path_401" data-name="Path 401" d="M434.981,495.614c5.141,7.2,13.814,11.515,26.017,12.743a65.7,65.7,0,0,0-6.077,9.917,90,90,0,0,0-4.205,10.673,42.367,42.367,0,0,1-17.449-7.835,43.055,43.055,0,0,1-12.932-15.873,53.036,53.036,0,0,1-13.009,17.468,47.459,47.459,0,0,1-17.372,9.939,80.5,80.5,0,0,0-4.207-10.217,58.283,58.283,0,0,0-6.075-9.3c10.283-2.028,18.023-6.188,23.214-12.106s7.819-13.423,7.866-22.384q.042-7.816.078-15.63,9.543-.389,19.085-1.037-.039,7.727-.076,15.457a34.187,34.187,0,0,0,2.024,12.327,74.251,74.251,0,0,0,2.843-8.7c.756-2.913,1.617-6.621,2.61-11.129l.7-3.376q8.958,1.943,17.918,3.739a207.177,207.177,0,0,1-9.348,27.445Q440.783,496.707,434.981,495.614Zm-26.8-21.657a195.361,195.361,0,0,1-7.946,28.332q-8.139-.172-16.28-.586a140.5,140.5,0,0,0,7.557-28.965Q399.85,473.471,408.184,473.957Z" transform="translate(280.629 341.456)" fill="none" stroke="#e4216c" stroke-miterlimit="10" stroke-width="0.5"/>
    <path id="Path_402" data-name="Path 402" d="M482.486,461a27.981,27.981,0,0,1,12.969,10.527,29.215,29.215,0,0,1,4.713,16.543,37.6,37.6,0,0,1-3.583,16.294,38.094,38.094,0,0,1-10.01,12.974,40.05,40.05,0,0,1-14.762,7.842,29.341,29.341,0,0,0-9.426-10.621,19.94,19.94,0,0,1-15.579,9.81q-9.66,1.091-15.151-4.657t-5.49-16.837a45.124,45.124,0,0,1,18.617-36.637,39.961,39.961,0,0,1,19.164-7.468A36.866,36.866,0,0,1,482.486,461M450.43,501.391a26.931,26.931,0,0,0,1.91-6.852q.937-5.037,2.181-15.744a20.08,20.08,0,0,0-7.557,7.757,22.458,22.458,0,0,0-2.725,11.045q0,6.2,3.583,5.793a3.386,3.386,0,0,0,2.609-2m26.523-.014q3.425-4.659,3.428-11.993-.005-10.3-8.569-12.917-1.1,10.949-2.687,18.856a76.345,76.345,0,0,1-3.857,13.49q8.259-2.776,11.685-7.436" transform="translate(314.993 338.868)" fill="#fff"/>
    <path id="Path_403" data-name="Path 403" d="M482.486,461a27.981,27.981,0,0,1,12.969,10.527,29.215,29.215,0,0,1,4.713,16.543,37.6,37.6,0,0,1-3.583,16.294,38.094,38.094,0,0,1-10.01,12.974,40.05,40.05,0,0,1-14.762,7.842,29.341,29.341,0,0,0-9.426-10.621,19.94,19.94,0,0,1-15.579,9.81q-9.66,1.091-15.151-4.657t-5.49-16.837a45.124,45.124,0,0,1,18.617-36.637,39.961,39.961,0,0,1,19.164-7.468A36.866,36.866,0,0,1,482.486,461ZM450.43,501.391a26.931,26.931,0,0,0,1.91-6.852q.937-5.037,2.181-15.744a20.08,20.08,0,0,0-7.557,7.757,22.458,22.458,0,0,0-2.725,11.045q0,6.2,3.583,5.793A3.386,3.386,0,0,0,450.43,501.391Zm26.523-.014q3.425-4.659,3.428-11.993-.005-10.3-8.569-12.917-1.1,10.949-2.687,18.856a76.345,76.345,0,0,1-3.857,13.49Q473.528,506.038,476.954,501.377Z" transform="translate(314.993 338.868)" fill="none" stroke="#e4216c" stroke-miterlimit="10" stroke-width="0.5"/>
    <path id="Path_404" data-name="Path 404" d="M546.816,489.148q-.7,4.007-1.325,9.845c-1.451-.774-3.477-1.9-6.077-3.357v25.317q-8.413,0-16.826.273v-1.31c-9.27.294-18.539.814-27.809,1.494v1.308q-8.413.618-16.826,1.393V499.757q-2.181,1.377-4.362,2.763-.624-5.789-1.323-9.737a50.367,50.367,0,0,0-1.715-6.993,70.527,70.527,0,0,0,17.061-5.9q-7.516.616-15.035,1.343,0-5.064,0-10.127c9.452-.908,18.9-1.706,28.355-2.322v-1.4c-8.308.57-16.617,1.282-24.927,2.085q0-3.579-.117-6.186a21.855,21.855,0,0,0-.663-4.654c18.8-1.784,41.078-4,66.835-4.713a69.944,69.944,0,0,0-.7,11.868c-8.31-.005-16.617.207-24.927.586v1.57c9.426-.4,18.852-.577,28.277-.471V477.6q-6.621-.076-13.242.031a70.294,70.294,0,0,0,17.059,4.391,53.436,53.436,0,0,0-1.713,7.129m-52.037,10.875c9.27-.68,18.539-1.2,27.809-1.494V496.7c-9.27.3-18.539.816-27.809,1.494Zm0,8.9v2.1c9.27-.68,18.539-1.2,27.809-1.494v-2.1c-9.27.3-18.539.814-27.809,1.494m28.9-22.129c-2.127-1.275-4.55-2.79-7.245-4.539V485.4q-7.75.329-15.5.84v-1.922q-4.127,2.979-5.532,3.962c9.426-.683,18.852-1.2,28.278-1.482" transform="translate(347.801 335.505)" fill="#fff"/>
    <path id="Path_405" data-name="Path 405" d="M546.816,489.148q-.7,4.007-1.325,9.845c-1.451-.774-3.477-1.9-6.077-3.357v25.317q-8.413,0-16.826.273v-1.31c-9.27.294-18.539.814-27.809,1.494v1.308q-8.413.618-16.826,1.393V499.757q-2.181,1.377-4.362,2.763-.624-5.789-1.323-9.737a50.367,50.367,0,0,0-1.715-6.993,70.527,70.527,0,0,0,17.061-5.9q-7.516.616-15.035,1.343,0-5.064,0-10.127c9.452-.908,18.9-1.706,28.355-2.322v-1.4c-8.308.57-16.617,1.282-24.927,2.085q0-3.579-.117-6.186a21.855,21.855,0,0,0-.663-4.654c18.8-1.784,41.078-4,66.835-4.713a69.944,69.944,0,0,0-.7,11.868c-8.31-.005-16.617.207-24.927.586v1.57c9.426-.4,18.852-.577,28.277-.471V477.6q-6.621-.076-13.242.031a70.294,70.294,0,0,0,17.059,4.391A53.436,53.436,0,0,0,546.816,489.148Zm-52.037,10.875c9.27-.68,18.539-1.2,27.809-1.494V496.7c-9.27.3-18.539.816-27.809,1.494Zm0,8.9v2.1c9.27-.68,18.539-1.2,27.809-1.494v-2.1C513.318,507.729,504.049,508.248,494.779,508.928Zm28.9-22.129c-2.127-1.275-4.55-2.79-7.245-4.539V485.4q-7.75.329-15.5.84v-1.922q-4.127,2.979-5.532,3.962C504.828,487.6,514.254,487.081,523.68,486.8Z" transform="translate(347.801 335.505)" fill="none" stroke="#e4216c" stroke-miterlimit="10" stroke-width="0.5"/>
    <path id="Path_406" data-name="Path 406" d="M572.78,465.23a32.212,32.212,0,0,1,9.661,11.92,35.621,35.621,0,0,1,3.428,15.558c0,7.452-1.96,13.374-5.883,17.882s-9.64,7.471-17.137,9.158-16.527,2-27.068,1.231a27.809,27.809,0,0,0-4.675-9.393,58.927,58.927,0,0,0-9.348-9.541,218.354,218.354,0,0,0,24.7-.6c6.282-.664,10.889-1.969,13.824-4.113s4.4-5.216,4.4-9.292a12.111,12.111,0,0,0-11.3-12.748,18.856,18.856,0,0,0-3.195-.115,11.847,11.847,0,0,0-8.88,4.087,14.65,14.65,0,0,0-3.271,9.852,23.92,23.92,0,0,0,.7,5.555q-10.283.564-20.565,1.67c-.367-3.91-.541-8.339-.546-13.285a180.181,180.181,0,0,1,2.259-28.475q9.97-.276,19.943-.063c-.261,1.435-.471,2.873-.623,4.313-.167,1.443-.306,3.292-.468,5.55a22.293,22.293,0,0,1,8.917-4.494,28.221,28.221,0,0,1,10.868-.513,30.039,30.039,0,0,1,14.256,5.859" transform="translate(382.596 335.876)" fill="#fff"/>
    <path id="Path_407" data-name="Path 407" d="M572.78,465.23a32.212,32.212,0,0,1,9.661,11.92,35.621,35.621,0,0,1,3.428,15.558c0,7.452-1.96,13.374-5.883,17.882s-9.64,7.471-17.137,9.158-16.527,2-27.068,1.231a27.809,27.809,0,0,0-4.675-9.393,58.927,58.927,0,0,0-9.348-9.541,218.354,218.354,0,0,0,24.7-.6c6.282-.664,10.889-1.969,13.824-4.113s4.4-5.216,4.4-9.292a12.111,12.111,0,0,0-11.3-12.748,18.856,18.856,0,0,0-3.195-.115,11.847,11.847,0,0,0-8.88,4.087,14.65,14.65,0,0,0-3.271,9.852,23.92,23.92,0,0,0,.7,5.555q-10.283.564-20.565,1.67c-.367-3.91-.541-8.339-.546-13.285a180.181,180.181,0,0,1,2.259-28.475q9.97-.276,19.943-.063c-.261,1.435-.471,2.873-.623,4.313-.167,1.443-.306,3.292-.468,5.55a22.293,22.293,0,0,1,8.917-4.494,28.221,28.221,0,0,1,10.868-.513A30.039,30.039,0,0,1,572.78,465.23Z" transform="translate(382.596 335.876)" fill="none" stroke="#e4216c" stroke-miterlimit="10" stroke-width="0.5"/>
    <path id="Path_408" data-name="Path 408" d="M348.227,442.853v-8.4c0-.456-.2-.657-.659-.657h-1.619c-.454,0-.657.2-.657.657V456.82c0,.456.2.659.657.659h1.619c.456,0,.659-.2.659-.659v-9.21l6.123.913v9.412a5.42,5.42,0,0,1-5.416,5.414h-4.353a5.419,5.419,0,0,1-5.414-5.414v-24.6a5.42,5.42,0,0,1,5.414-5.414h4.353a5.422,5.422,0,0,1,5.416,5.414v8.605Z" transform="translate(250.69 316.293)" fill="#fff"/>
    <path id="Path_409" data-name="Path 409" d="M358.12,442.2V427.924h6.123v35.424H358.12V448.065h-2.936v15.283H349.06V427.924h6.124V442.2Z" transform="translate(258.002 316.292)" fill="#fff"/>
    <path id="Path_410" data-name="Path 410" d="M367.822,457.479h-3.137l-.607,5.87h-5.416l3.948-35.424h7.944l4,35.424h-6.122Zm-2.53-5.769h2.226l-1.061-13.157Z" transform="translate(265.099 316.293)" fill="#fff"/>
    <path id="Path_411" data-name="Path 411" d="M377.731,450.291a1.436,1.436,0,0,0-1.569-1.567H374.8v14.624h-6.124V427.924h9.767a5.422,5.422,0,0,1,5.416,5.414v8.3a4.151,4.151,0,0,1-2.986,4.15,4.135,4.135,0,0,1,2.986,4.1v8.351a19.907,19.907,0,0,0,.656,5.11h-6.376c-.05-.454-.15-.962-.2-1.569a36.346,36.346,0,0,1-.2-4.656Zm0-15.838c0-.456-.2-.657-.659-.657H374.8v9.057h2.277c.456,0,.659-.2.659-.657Z" transform="translate(272.497 316.293)" fill="#fff"/>
    <path id="Path_412" data-name="Path 412" d="M387.566,442.853v-8.4c0-.456-.2-.657-.659-.657h-1.619c-.454,0-.657.2-.657.657V456.82c0,.456.2.659.657.659h1.619c.456,0,.659-.2.659-.659v-9.21l6.124.913v9.412a5.42,5.42,0,0,1-5.416,5.414h-4.353a5.419,5.419,0,0,1-5.414-5.414v-24.6a5.42,5.42,0,0,1,5.414-5.414h4.353a5.422,5.422,0,0,1,5.416,5.414v8.605Z" transform="translate(279.767 316.293)" fill="#fff"/>
    <path id="Path_413" data-name="Path 413" d="M403.583,457.934a5.42,5.42,0,0,1-5.416,5.414h-4.353a5.419,5.419,0,0,1-5.414-5.414v-24.6a5.42,5.42,0,0,1,5.414-5.414h4.353a5.422,5.422,0,0,1,5.416,5.414Zm-6.123-23.482c0-.456-.2-.657-.659-.657h-1.619c-.454,0-.657.2-.657.657V456.82c0,.456.2.659.657.659H396.8c.456,0,.659-.2.659-.659Z" transform="translate(287.079 316.293)" fill="#fff"/>
    <path id="Path_414" data-name="Path 414" d="M407.161,457.479h-3.137l-.607,5.87H398l3.948-35.424h7.944l4,35.424H407.77Zm-2.529-5.769h2.226L405.8,438.554Z" transform="translate(294.176 316.293)" fill="#fff"/>
    <path id="Path_415" data-name="Path 415" d="M414.135,457.479h6.73v5.87H408.011V427.924h6.124Z" transform="translate(301.574 316.292)" fill="#fff"/>
    <path id="Path_416" data-name="Path 416" d="M428.926,457.479h-3.137l-.607,5.87h-5.416l3.948-35.424h7.944l4,35.424h-6.122Zm-2.53-5.769h2.226l-1.061-13.157Z" transform="translate(310.263 316.293)" fill="#fff"/>
    <path id="Path_417" data-name="Path 417" d="M438.835,450.291a1.436,1.436,0,0,0-1.569-1.567H435.9v14.624h-6.124V427.924h9.767a5.422,5.422,0,0,1,5.416,5.414v8.3a4.151,4.151,0,0,1-2.986,4.15,4.135,4.135,0,0,1,2.986,4.1v8.351a19.907,19.907,0,0,0,.656,5.11h-6.376c-.05-.454-.15-.962-.2-1.569a36.346,36.346,0,0,1-.2-4.656Zm0-15.838c0-.456-.2-.657-.659-.657H435.9v9.057h2.277c.456,0,.659-.2.659-.657Z" transform="translate(317.661 316.293)" fill="#fff"/>
    <path id="Path_418" data-name="Path 418" d="M454.794,457.934a5.42,5.42,0,0,1-5.416,5.414h-4.353a5.419,5.419,0,0,1-5.414-5.414v-24.6a5.42,5.42,0,0,1,5.414-5.414h4.353a5.422,5.422,0,0,1,5.416,5.414Zm-6.123-23.482c0-.456-.2-.657-.659-.657h-1.619c-.454,0-.657.2-.657.657V456.82c0,.456.2.659.657.659h1.619c.456,0,.659-.2.659-.659Z" transform="translate(324.931 316.293)" fill="#fff"/>
    <path id="Path_419" data-name="Path 419" d="M463.927,427.924h6.781v35.424h-6.124v-15.03L462,463.348h-3.694l-2.835-15.03v15.03H449.5V427.924h7.59l3.24,18.826Z" transform="translate(332.243 316.292)" fill="#fff"/>
    <path id="Path_420" data-name="Path 420" d="M471.728,457.479h-3.137l-.607,5.87h-5.416l3.948-35.424h7.944l4,35.424h-6.122Zm-2.53-5.769h2.226l-1.061-13.157Z" transform="translate(341.899 316.293)" fill="#fff"/>
  </g>
</svg>
