<?xml version="1.0" encoding="utf-8"?>
<!-- Generator: Adobe Illustrator 28.1.0, SVG Export Plug-In . SVG Version: 6.00 Build 0)  -->
<svg version="1.1" id="圖層_1" xmlns="http://www.w3.org/2000/svg" xmlns:xlink="http://www.w3.org/1999/xlink" x="0px" y="0px"
	 viewBox="0 0 48 294" style="enable-background:new 0 0 48 294;" xml:space="preserve">
<style type="text/css">
	.st0{enable-background:new    ;}
	.st1{fill:#FFFFFF;}
</style>
<g class="st0">
	<path class="st1" d="M31,0.5h16.8v8.7c0,0.8-0.2,1.5-0.7,1.9c-0.5,0.5-1.1,0.7-1.8,0.7h-6c-0.7,0-1.3-0.2-1.8-0.7
		c-0.5-0.5-0.7-1.1-0.7-1.9V5.4H31V0.5z M41,6.8h2.5c0.2,0,0.3-0.1,0.3-0.4V5.4h-3.2v1.1C40.6,6.7,40.8,6.8,41,6.8z"/>
	<path class="st1" d="M34,19.3h2.5c0.5,0,0.7-0.3,0.7-0.8v-0.9H31v-4.9h16.8v8.9c0,0.8-0.2,1.5-0.7,1.9c-0.5,0.5-1.1,0.7-1.8,0.7
		h-4.2c-0.4,0-0.8-0.1-1.2-0.4s-0.6-0.7-0.8-1.3c-0.1,0.6-0.4,1-0.8,1.3s-0.8,0.4-1.2,0.4h-3.7c-1.1,0-1.9,0.1-2.4,0.4v-5.1
		c0.3-0.1,0.5-0.1,0.7-0.1C32.2,19.4,32.9,19.3,34,19.3z M41.3,19.3h2.2c0.2,0,0.3-0.1,0.3-0.4v-1.3H41v1.3
		C41,19.2,41.1,19.3,41.3,19.3z"/>
	<path class="st1" d="M31,25.2h16.8V36h-4v-5.9h-2.3v4.2h-4v-4.2H35V36h-4V25.2z"/>
	<path class="st1" d="M40.1,44.4l7.7,2v5.3H31v-4.9h5.9L31,45.4v-2.1l5.9-1.6H31v-4.8h16.8v5.8L40.1,44.4z"/>
	<path class="st1" d="M31,52.8h16.8v4.9H31V52.8z"/>
	<path class="st1" d="M47.8,63.6H35.3c-0.2,0-0.3,0.1-0.3,0.4v0.9c0,0.3,0.1,0.4,0.3,0.4h12.5v4.8H33.6c-0.7,0-1.3-0.2-1.8-0.7
		c-0.5-0.5-0.7-1.1-0.7-1.9v-6.2c0-0.8,0.2-1.5,0.7-1.9c0.5-0.5,1.1-0.7,1.8-0.7h14.2V63.6z"/>
	<path class="st1" d="M40.1,78.6l7.7,2V86H31V81h5.9L31,79.6v-2.1l5.9-1.6H31V71h16.8v5.8L40.1,78.6z"/>
	<path class="st1" d="M35,95.4v0.6c0,0.2,0.1,0.4,0.3,0.4h12.5v4.9H33.6c-0.8,0-1.4-0.2-1.8-0.7c-0.5-0.5-0.7-1.1-0.7-1.9v-6
		c0-0.8,0.2-1.5,0.7-1.9c0.5-0.5,1.1-0.7,1.8-0.7H38l0.4,4.9h-3.2C35.1,95,35,95.1,35,95.4z"/>
	<path class="st1" d="M31,108.9l2.3-0.3v-1.9l-2.3-0.3v-4.5l16.8,2.3v7.5L31,114V108.9z M42.8,107.8l-5.9-0.6v1.2L42.8,107.8z"/>
	<path class="st1" d="M31,114.7h16.8v8.7c0,0.8-0.2,1.5-0.7,1.9c-0.5,0.5-1.1,0.7-1.8,0.7h-6c-0.7,0-1.3-0.2-1.8-0.7
		c-0.5-0.5-0.7-1.1-0.7-1.9v-3.8H31V114.7z M41,121.1h2.5c0.2,0,0.3-0.1,0.3-0.4v-1.1h-3.2v1.1C40.6,120.9,40.8,121.1,41,121.1z"/>
	<path class="st1" d="M31,133l2.3-0.3v-1.9l-2.3-0.3V126l16.8,2.3v7.5L31,138V133z M42.8,131.9l-5.9-0.6v1.2L42.8,131.9z"/>
	<path class="st1" d="M47.8,143.5l-6.8,2.4h6.8v4.8H31v-4.6l6.9-2.5H31v-4.8h16.8V143.5z"/>
	<path class="st1" d="M31,151.6h16.8v10.8h-4v-5.9h-2.3v4.2h-4v-4.2H35v5.9h-4V151.6z"/>
	<path class="st1" d="M42.1,169l-2.3,4.1c-0.6,1.1-1.6,1.7-3.1,1.7h-3.2c-0.8,0-1.4-0.2-1.8-0.7c-0.5-0.5-0.7-1.1-0.7-1.9v-6.3
		c0-0.8,0.2-1.5,0.7-1.9c0.5-0.5,1.1-0.7,1.8-0.7h2.5l0.4,4.9h-1.2c-0.2,0-0.3,0.1-0.3,0.4v0.9c0,0.3,0.1,0.4,0.3,0.4h0.5
		c0.3,0,0.5,0,0.6-0.1c0.1-0.1,0.3-0.4,0.5-0.8l1.9-3.5c0.4-0.9,0.9-1.4,1.4-1.7c0.5-0.3,1.1-0.4,2-0.4h3.2c0.8,0,1.4,0.2,1.8,0.7
		c0.5,0.5,0.7,1.1,0.7,1.9v6.3c0,0.8-0.2,1.5-0.7,1.9c-0.5,0.5-1.1,0.7-1.8,0.7h-2.6l-0.4-4.9h1.3c0.2,0,0.3-0.1,0.3-0.4v-0.9
		c0-0.3-0.1-0.4-0.3-0.4h-0.3c-0.3,0-0.5,0.1-0.7,0.2C42.4,168.4,42.3,168.6,42.1,169z"/>
	<path class="st1" d="M31,175.7h16.8v10.8h-4v-5.9h-2.3v4.2h-4v-4.2H35v5.9h-4V175.7z"/>
	<path class="st1" d="M45.2,202H33.6c-0.8,0-1.4-0.2-1.8-0.7c-0.5-0.5-0.7-1.1-0.7-1.9v-8.9h16.8v8.9c0,0.8-0.2,1.5-0.7,1.9
		C46.6,201.8,46,202,45.2,202z M35.3,197.1h8.2c0.2,0,0.3-0.1,0.3-0.4v-1.3H35v1.3C35,196.9,35.1,197.1,35.3,197.1z"/>
	<path class="st1" d="M31,202.9h16.8v4.9H31V202.9z"/>
	<path class="st1" d="M47.8,213.5l-6.8,2.4h6.8v4.8H31v-4.6l6.9-2.5H31v-4.8h16.8V213.5z"/>
	<path class="st1" d="M31,221.7h16.8v4.9H31V221.7z"/>
	<path class="st1" d="M47.8,232.3l-6.8,2.4h6.8v4.8H31V235l6.9-2.5H31v-4.8h16.8V232.3z"/>
	<path class="st1" d="M36.9,246.2h3.5v5.8H31v-3l0.7-0.6c-0.4-0.6-0.7-1.3-0.7-2.1v-3.3c0-0.8,0.2-1.5,0.7-1.9
		c0.5-0.5,1.1-0.7,1.8-0.7h11.7c0.8,0,1.4,0.2,1.8,0.7c0.5,0.5,0.7,1.1,0.7,1.9v6.3c0,0.8-0.2,1.5-0.7,1.9c-0.5,0.5-1.1,0.7-1.8,0.7
		h-3.4l-0.4-4.9h2.1c0.2,0,0.3-0.1,0.3-0.4v-0.9c0-0.3-0.1-0.4-0.3-0.4h-8.2c-0.2,0-0.3,0.1-0.3,0.4v0.9c0,0.3,0.1,0.4,0.3,0.4h1.6
		V246.2z"/>
	<path class="st1" d="M31,262.8l2.3-0.3v-1.9l-2.3-0.3v-4.5l16.8,2.3v7.5L31,267.9V262.8z M42.8,261.7l-5.9-0.6v1.2L42.8,261.7z"/>
	<path class="st1" d="M47.8,273.3l-6.8,2.4h6.8v4.8H31V276l6.9-2.5H31v-4.8h16.8V273.3z"/>
	<path class="st1" d="M45.2,293H33.6c-0.8,0-1.4-0.2-1.8-0.7c-0.5-0.5-0.7-1.1-0.7-1.9v-8.9h16.8v8.9c0,0.8-0.2,1.5-0.7,1.9
		C46.6,292.8,46,293,45.2,293z M35.3,288.1h8.2c0.2,0,0.3-0.1,0.3-0.4v-1.3H35v1.3C35,288,35.1,288.1,35.3,288.1z"/>
</g>
<g class="st0">
	<path class="st1" d="M20.8,5.3l-5,1.6l5,1.3v4.8l-11-3.7H4V4.3h5.8l11-4.2V5.3z"/>
	<path class="st1" d="M4,19.8l2.3-0.3v-1.9L4,17.3v-4.5l16.8,2.3v7.5L4,24.9V19.8z M15.8,18.7L9.9,18v1.2L15.8,18.7z"/>
	<path class="st1" d="M20.8,30.5h-6.9l6.9,1.9v5.1l-8-2.1L4,37.7v-5.4l7.2-1.8H4v-4.9h16.8V30.5z"/>
	<path class="st1" d="M4,38.2h16.8v4.9H4V38.2z"/>
	<path class="st1" d="M20.8,48.8L14,51.1h6.8V56H4v-4.6l6.9-2.5H4V44h16.8V48.8z"/>
	<path class="st1" d="M4,56.9h16.8v4.9H4V56.9z"/>
	<path class="st1" d="M20.8,67.7h-6.9l6.9,1.9v5.1l-8-2.1L4,74.9v-5.4l7.2-1.8H4v-4.9h16.8V67.7z"/>
	<path class="st1" d="M20.8,80.3H8.3c-0.2,0-0.3,0.1-0.3,0.4v0.9C8,81.9,8.1,82,8.3,82h12.5v4.8H6.6c-0.7,0-1.3-0.2-1.8-0.7
		C4.2,85.7,4,85,4,84.2V78c0-0.8,0.2-1.5,0.7-1.9c0.5-0.5,1.1-0.7,1.8-0.7h14.2V80.3z"/>
	<path class="st1" d="M4,90.9h16.8v10.8h-4v-5.9h-2.3v4.2h-4v-4.2H8v5.9H4V90.9z"/>
	<path class="st1" d="M20.8,107.2l-3.7,1.2l3.7,1.2v4.6l-8.5-2.7L4,114.2v-5l3.6-1.2L4,106.9v-4.7l8.4,2.7l8.4-2.7V107.2z"/>
	<path class="st1" d="M4,114.9h16.8v8.7c0,0.8-0.2,1.5-0.7,1.9c-0.5,0.5-1.1,0.7-1.8,0.7h-6c-0.7,0-1.3-0.2-1.8-0.7
		c-0.5-0.5-0.7-1.1-0.7-1.9v-3.8H4V114.9z M14,121.2h2.5c0.2,0,0.3-0.1,0.3-0.4v-1.1h-3.2v1.1C13.6,121.1,13.8,121.2,14,121.2z"/>
	<path class="st1" d="M4,127.1h16.8v10.8h-4V132h-2.3v4.2h-4V132H8v5.9H4V127.1z"/>
	<path class="st1" d="M7,145.3h2.5c0.5,0,0.7-0.3,0.7-0.8v-0.9H4v-4.9h16.8v8.9c0,0.8-0.2,1.5-0.7,1.9c-0.5,0.5-1.1,0.7-1.8,0.7
		h-4.2c-0.4,0-0.8-0.1-1.2-0.4c-0.4-0.3-0.6-0.7-0.8-1.3c-0.1,0.6-0.4,1-0.8,1.3c-0.4,0.3-0.8,0.4-1.2,0.4H6.4
		c-1.1,0-1.9,0.1-2.4,0.4v-5.1c0.3-0.1,0.5-0.1,0.7-0.1C5.2,145.4,5.9,145.3,7,145.3z M14.3,145.3h2.2c0.2,0,0.3-0.1,0.3-0.4v-1.3
		H14v1.3C14,145.2,14.1,145.3,14.3,145.3z"/>
	<path class="st1" d="M4,151.2h16.8v4.9H4V151.2z"/>
	<path class="st1" d="M4,157.1h16.8v10.8h-4V162h-2.3v4.2h-4V162H8v5.9H4V157.1z"/>
	<path class="st1" d="M20.8,173.5l-6.8,2.4h6.8v4.8H4v-4.6l6.9-2.5H4v-4.8h16.8V173.5z"/>
	<path class="st1" d="M14.2,193.1l-0.4-4.9h2.8c0.2,0,0.3-0.1,0.3-0.4v-0.9c0-0.3-0.1-0.4-0.3-0.4H8.3c-0.2,0-0.3,0.1-0.3,0.4v0.9
		c0,0.3,0.1,0.4,0.3,0.4h3.2l-0.4,4.9H6.6c-0.8,0-1.4-0.2-1.8-0.7C4.2,192,4,191.4,4,190.6v-6.3c0-0.8,0.2-1.5,0.7-1.9
		c0.5-0.5,1.1-0.7,1.8-0.7h11.7c0.8,0,1.4,0.2,1.8,0.7c0.5,0.5,0.7,1.1,0.7,1.9v6.3c0,0.8-0.2,1.5-0.7,1.9c-0.5,0.5-1.1,0.7-1.8,0.7
		H14.2z"/>
	<path class="st1" d="M4,194.1h16.8v10.8h-4V199h-2.3v4.2h-4V199H8v5.9H4V194.1z"/>
</g>
</svg>
