<svg xmlns="http://www.w3.org/2000/svg" xmlns:xlink="http://www.w3.org/1999/xlink" width="374.658" height="52.923" viewBox="0 0 374.658 52.923">
  <defs>
    <clipPath id="clip-path">
      <rect id="Rectangle_29" data-name="Rectangle 29" width="374.658" height="52.923" transform="translate(0 0)" fill="none"/>
    </clipPath>
  </defs>
  <g id="Group_32" data-name="Group 32" transform="translate(0 0)" clip-path="url(#clip-path)">
    <path id="Path_229" data-name="Path 229" d="M292.508,33.209v3.013h-2.2V33.209h-4.786v-.581h4.786V30.305H284.8v-.58h3.484a19.783,19.783,0,0,0-.848-2.621l.251-.2h-3.2v-.549h5.853V24.264h-4.707v-.581h4.707V22.1h2.135v1.585h4.6v.581h-4.6v2.087h5.759V26.9h-4.143l1.82.816a11.478,11.478,0,0,1-2.683,2.009h4.723v.58h-5.445v2.323H297.3v.581ZM288.02,26.9a17.817,17.817,0,0,1,2.354,2.041l-1.287.784h3.264a12.611,12.611,0,0,0,1.224-2.825Z" fill="#e4216c"/>
    <path id="Path_230" data-name="Path 230" d="M311.895,35.045a30.886,30.886,0,0,1-3.327.173c-.769,0-1.553-.032-2.338-.079-2.527-.172-3.076-1.459-3.154-3.782-.032-1.036-.048-2.024-.048-2.981-.925.078-1.82.172-2.636.266l-.126-.753,2.747-.236c0-1.192.015-2.369.031-3.64h2.15c-.094,1.224-.125,2.464-.157,3.468,1.319-.11,2.857-.2,4.19-.314,0-1.239-.062-2.495-.125-3.876h2.087c.016.659.031,1.3.031,1.915s-.015,1.208-.031,1.8l2.668-.2.094.69c-.879.063-1.82.126-2.778.2a17.9,17.9,0,0,1-.11,2.056c-.156,1.413-.533,2.166-1.6,2.166a7.52,7.52,0,0,1-2.684-.784v-.676a4.977,4.977,0,0,0,1.6.456c.549,0,.722-.377.785-1.193.047-.628.047-1.239.062-1.852-1.349.1-2.887.189-4.2.3,0,.392-.016.8-.016,1.224,0,.6.016,1.223.031,1.93.048,1.694.487,2.071,1.6,2.149.471.032.973.047,1.491.047a25.863,25.863,0,0,0,3.766-.266Z" fill="#e4216c"/>
    <path id="Path_231" data-name="Path 231" d="M321.96,34.527c3.186-.55,4.629-2.166,4.77-4.661,0-.125.016-.251.016-.376,0-2.7-1.632-4.254-3.578-4.254-.313,4.3-1.553,7.173-3.876,8.584a2.327,2.327,0,0,1-1.224.393c-1.02,0-1.789-.942-1.789-2.809q0-.424.047-.895a6.852,6.852,0,0,1,6.858-5.79c3.593,0,5.9,1.867,5.9,4.912,0,.11-.016.235-.016.361-.173,3.06-2.684,4.818-6.936,4.99Zm-3.641-4.347c-.031.314-.047.6-.047.831,0,.88.22,1.272.6,1.272a1.385,1.385,0,0,0,.674-.282c1.4-.958,2.48-3.265,2.95-6.733-2.479.36-3.938,2.73-4.174,4.912" fill="#e4216c"/>
    <path id="Path_232" data-name="Path 232" d="M335.179,34.543a13.482,13.482,0,0,0-.643-3.187,8.271,8.271,0,0,1-2.982,4.866l-.3-.393c1.429-2.087,1.9-4.347,1.9-7.58V22.1h1.726V26.79a10.144,10.144,0,0,0,.69-2.307l1.491,1.208a10.409,10.409,0,0,1-2.181,1.774v.674a14.4,14.4,0,0,1-.236,2.668,14.347,14.347,0,0,1,2.2,2.339Zm-3.861-5.712a14.66,14.66,0,0,0,.691-3.61l.392.047a25.623,25.623,0,0,1,.534,3.908Zm11.456,7.061c-.988,0-1.852-.251-1.852-1.852V30.556h-.862c-.2,3.39-2.072,4.85-5.007,5.634l-.266-.486c2.039-1.177,3.232-2.4,3.279-5.148h-2.181v-.564H345.1v.564H342.8v3.217c0,.314.205.392.425.392h.721c.44,0,.659-.282.9-2.2l.612.22c-.1,3.217-.565,3.7-1.554,3.7Zm-.627-6.261V27.81h-3.155v1.821H337.3V27.81h-1.507v-.565H337.3V25.519h1.694v1.726h3.155V25.519h1.694v1.726h1.538v.565h-1.538v1.821Zm-.691-5.163v1.993h-1.8V24.468h-3.217V23.9h3.217V22.1h1.8V23.9h3.264v.565Z" fill="#e4216c"/>
    <path id="Path_233" data-name="Path 233" d="M357.092,35.422a14.859,14.859,0,0,1-3.154.3c-.345,0-.675-.016-.989-.032-3.28-.2-4.959-1.255-4.959-3.107,0-1.349,1.256-2.229,3.72-2.433.172-.015.345-.015.517-.015a7.147,7.147,0,0,1,3.39.769,14.074,14.074,0,0,1-2.071-2.9c-1.978.173-4.018.3-5.979.362l-.032-.644c1.868-.063,3.8-.173,5.681-.329-.282-.581-.565-1.193-.816-1.836-1.412.126-2.809.22-4.065.282l-.062-.644c1.177-.031,2.526-.11,3.892-.235-.2-.565-.408-1.161-.6-1.773l2.15-.47a14.508,14.508,0,0,0,.581,2.023c1.286-.125,2.683-.282,3.656-.423l.11.659c-.973.125-2.306.251-3.531.376a19.5,19.5,0,0,0,.863,1.821c1.271-.126,2.668-.282,3.814-.439l.125.659c-1.083.141-2.4.282-3.593.407a15.943,15.943,0,0,0,2.275,2.841l-1.742,1.4a7.84,7.84,0,0,0-3.986-1.287,3.152,3.152,0,0,0-.376.015c-1.679.142-2.323.629-2.323,1.429,0,.988.91,1.663,3.547,1.757h.345a16.491,16.491,0,0,0,3.483-.361Z" fill="#e4216c"/>
    <path id="Path_234" data-name="Path 234" d="M372.791,25.394h-3.7a5.626,5.626,0,0,1-.282.722,18.137,18.137,0,0,1,3.656,1.475l-1.381,1.977a13.157,13.157,0,0,0-2.463-3.076,6.036,6.036,0,0,1-3.908,2.888l-.22-.471a4.882,4.882,0,0,0,2.684-3.515h-2.966V36.207h-1.868V24.735h4.944a16.833,16.833,0,0,0,.157-2.636l2.055.251a10.742,10.742,0,0,1-.235,2.385h5.4V34.1c0,1.129-.172,2.1-1.773,2.1a9.372,9.372,0,0,1-2.495-.455v-.566a6.854,6.854,0,0,0,1.506.22c.832,0,.895-.424.895-1.287Zm-1.679,8.82a13.956,13.956,0,0,0-2.338-2.919,5.338,5.338,0,0,1-4.034,2.981l-.251-.5c2.4-1.3,2.857-3.264,2.982-5.43l2.087.471a10.72,10.72,0,0,1-.565,2.009,18.086,18.086,0,0,1,3.5,1.412Z" fill="#e4216c"/>
    <path id="Path_235" data-name="Path 235" d="M79.512,22.465V36.222H73.155V34.06a13.686,13.686,0,0,1-7.4,2.162H55.962a13.757,13.757,0,0,1,0-27.514h9.793A13.757,13.757,0,0,1,79.512,22.465m-6.357,0h0a13.262,13.262,0,0,0-7.873-12.119,10.9,10.9,0,0,0-8.846,0,13.263,13.263,0,0,0,0,24.238,10.9,10.9,0,0,0,8.846,0,13.262,13.262,0,0,0,7.873-12.118" fill="#fff"/>
    <path id="Path_236" data-name="Path 236" d="M126.193,0h6.357V5.894h-6.357Zm0,8.461h6.357v27.76h-6.357Z" fill="#fff"/>
    <path id="Path_237" data-name="Path 237" d="M186.539,22.46h0V36.209h-6.354V22.46h0a13.252,13.252,0,0,0-7.87-12.111,10.888,10.888,0,0,0-8.84,0,13.252,13.252,0,0,0-7.866,11.94v.2L155.6,36.222l-6.354-.03,0-13.732c0-.043,0-.084,0-.127V22.17h-.006V8.462h6.36V10.87A13.678,13.678,0,0,1,163,8.711h9.788A13.749,13.749,0,0,1,186.539,22.46" fill="#fff"/>
    <path id="Path_238" data-name="Path 238" d="M233.062,22.473h0V8.462h6.354V22.473h0a13.252,13.252,0,0,0,7.87,12.111,10.888,10.888,0,0,0,8.84,0,13.252,13.252,0,0,0,7.866-11.94v-.2l.006-14,6.354.031,0,14c0,.043,0,.084,0,.127v.163h.006V36.207h-6.36V34.063a13.678,13.678,0,0,1-7.392,2.159h-9.788a13.749,13.749,0,0,1-13.749-13.749" fill="#fff"/>
    <path id="Path_239" data-name="Path 239" d="M228.157,22.473V36.222H221.8V34.061a13.68,13.68,0,0,1-7.4,2.161h-9.787a13.749,13.749,0,1,1,0-27.5h9.787a13.749,13.749,0,0,1,13.749,13.749m-6.353,0h0a13.253,13.253,0,0,0-7.869-12.111,10.9,10.9,0,0,0-8.841,0,13.255,13.255,0,0,0,0,24.223,10.9,10.9,0,0,0,8.841,0A13.252,13.252,0,0,0,221.8,22.474" fill="#fff"/>
    <path id="Path_240" data-name="Path 240" d="M111.316,22.423a12.144,12.144,0,0,0-2.525-.323v-.005H91.176V.014H84.819V36.222h6.358V22.589h11.585a13.014,13.014,0,0,1,12.169,12.985v.648h6.357v-1.14a13.021,13.021,0,0,0-9.972-12.659" fill="#fff"/>
    <path id="Path_241" data-name="Path 241" d="M101.444,22.261a12.144,12.144,0,0,1-2.525.323v.005H92.89v-.494A13.014,13.014,0,0,0,105.059,9.11V8.462h6.357V9.6a13.021,13.021,0,0,1-9.972,12.659" fill="#fff"/>
    <path id="Path_242" data-name="Path 242" d="M37.289,8.739h0v-.03H30.928V22.654a13.25,13.25,0,0,1-7.865,11.928,10.888,10.888,0,0,1-8.84,0,13.252,13.252,0,0,1-7.87-12.111h0V8.722H0V22.471H0A13.749,13.749,0,0,0,13.749,36.22h9.788a13.671,13.671,0,0,0,6.521-1.648c-2.035,9.284-8.081,15.115-19.636,18.352,11.267,0,17.663-4.668,21.045-8.584a24.4,24.4,0,0,0,5.822-15.483Z" fill="#fff"/>
  </g>
</svg>
