<svg xmlns="http://www.w3.org/2000/svg" width="139.418" height="309.793" viewBox="0 0 139.418 309.793">
  <g id="Kan_Pai_1" data-name="Kan Pai 1" transform="translate(0 -31.221)">
    <path id="Path_315" data-name="Path 315" d="M68.969,325.267A68.046,68.046,0,0,1,1,257.3V86.923a67.97,67.97,0,0,1,135.939,0V257.3a68.046,68.046,0,0,1-67.971,67.97" transform="translate(0.739 14.008)" fill="#181217"/>
    <path id="Path_316" data-name="Path 316" d="M69.71,21.43a66.231,66.231,0,0,1,66.23,66.231V258.038a66.231,66.231,0,0,1-132.461,0V87.662A66.232,66.232,0,0,1,69.71,21.43m0-3.478A69.788,69.788,0,0,0,0,87.662V258.038a69.709,69.709,0,0,0,139.418,0V87.662A69.788,69.788,0,0,0,69.71,17.952" transform="translate(0 13.269)" fill="#e4216c"/>
    <path id="Path_317" data-name="Path 317" d="M35.381,109.333V96.46H23.844V93.926H35.381V86.117h-8.3V63.465h8.3V56.64H24.687V54.108H35.381V46.089h7.95v8.019H53.955V56.64H43.331v6.824h8.723V86.117H43.331v7.809H55.009V96.46H43.331v12.873ZM45.02,66H34.044v7.317H45.02Zm0,9.849H34.044v7.739H45.02ZM66.126,59.666A66.554,66.554,0,0,1,54.587,74.3L53.11,72.821c4.995-8.652,7.245-17.729,8.442-26.311l9.638,1.9a79.2,79.2,0,0,1-3.729,8.722H86.315v2.534Zm-1.478,48.751c-6.4,0-9.077-2.32-9.077-5.908,0-2.393,1.2-5.417,3.167-8.795a254.18,254.18,0,0,1,16.04-22.864H60.355V68.319H82.375v5.064a216.438,216.438,0,0,0-17.8,24.061,6.517,6.517,0,0,0-1.123,2.744c0,1.054.913,1.546,2.812,1.546H77.521c4.362,0,5.981-1.546,7.035-9.918l2.532,1.2c-.351,12.663-2.6,15.405-8.37,15.405Z" transform="translate(17.624 34.066)" fill="#e4216c"/>
    <path id="Path_318" data-name="Path 318" d="M34.326,199.956v-31.8a80.754,80.754,0,0,1-8.864,15.407l-1.617-1.407a94.249,94.249,0,0,0,8.864-29.617H25.18v-2.532h9.146v-13.3h8.021v13.3h8.442v2.532H42.347v4.292a101.585,101.585,0,0,1,10.059,10.551l-5.489,7.247a137.521,137.521,0,0,0-4.57-14.843v40.169Zm27.859,0V166.609A78.238,78.238,0,0,1,46.917,182.79l-1.264-1.828c10.692-13.3,15.125-23.92,18.15-38.271H47.764v-2.532H85.47v2.532H74.707a65.3,65.3,0,0,1-4.221,11.045v46.219Zm19.908-20.33c-3.445-9.075-6.894-15.266-10.27-19.838l1.336-1.689A94.533,94.533,0,0,1,88.5,170.689Z" transform="translate(17.624 101.048)" fill="#e4216c"/>
    <path id="Path_319" data-name="Path 319" d="M32.273,106.315V93.441H20.736V90.908H32.273V83.1h-8.3V60.447h8.3V53.622H21.579V51.09H32.273V43.071h7.95V51.09H50.847v2.532H40.223v6.824h8.723V83.1H40.223v7.809H51.9v2.534H40.223v12.873Zm9.638-43.336H30.936V70.3H41.912Zm0,9.849H30.936v7.739H41.912ZM63.018,56.648A66.554,66.554,0,0,1,51.479,71.28L50,69.8C55,61.151,57.247,52.074,58.444,43.492l9.638,1.9a79.2,79.2,0,0,1-3.729,8.722H83.207v2.534ZM61.54,105.4c-6.4,0-9.077-2.32-9.077-5.908,0-2.393,1.2-5.417,3.167-8.795A254.18,254.18,0,0,1,71.67,67.833H57.247V65.3H79.267v5.064a216.442,216.442,0,0,0-17.8,24.061,6.517,6.517,0,0,0-1.123,2.744c0,1.054.913,1.546,2.812,1.546H74.413c4.362,0,5.981-1.546,7.035-9.918l2.532,1.2c-.351,12.663-2.6,15.405-8.37,15.405Z" transform="translate(15.327 31.835)" fill="#fff"/>
    <path id="Path_320" data-name="Path 320" d="M31.219,196.939v-31.8a80.849,80.849,0,0,1-8.864,15.407l-1.619-1.407A94.2,94.2,0,0,0,29.6,149.523H22.073v-2.532h9.146V133.7h8.019v13.3H47.68v2.532H39.239v4.292A101.794,101.794,0,0,1,49.3,164.366l-5.49,7.247a137.128,137.128,0,0,0-4.57-14.843v40.169Zm27.857,0V163.592a78.237,78.237,0,0,1-15.268,16.181l-1.263-1.828c10.69-13.3,15.123-23.92,18.148-38.271H44.656v-2.532H82.362v2.532H71.6a65.44,65.44,0,0,1-4.219,11.045v46.219Zm19.908-20.33c-3.445-9.075-6.894-15.266-10.27-19.838l1.336-1.689a94.532,94.532,0,0,1,15.337,12.591Z" transform="translate(15.327 98.818)" fill="#fff"/>
    <path id="Path_321" data-name="Path 321" d="M24.843,111.056l2.266-9.925h4.207l-2.337,11.616L31.461,126.3H26.929l-2.085-11.148V126.3H20.492V101.131h4.351Z" transform="translate(15.146 74.749)" fill="#df9712"/>
    <path id="Path_322" data-name="Path 322" d="M33.616,122.132h-2.23l-.431,4.17H27.108l2.8-25.17h5.645L38.4,126.3H34.047Zm-1.8-4.1H33.4l-.755-9.348Z" transform="translate(20.036 74.75)" fill="#df9712"/>
    <path id="Path_323" data-name="Path 323" d="M40.908,112.351V101.132h4.243V126.3H40.908l-2.443-11.758V126.3H34.219v-25.17h4.245Z" transform="translate(25.293 74.75)" fill="#df9712"/>
    <path id="Path_324" data-name="Path 324" d="M44.02,101.132h6.652a3.852,3.852,0,0,1,3.849,3.847v7.911a3.853,3.853,0,0,1-3.849,3.847h-2.3V126.3H44.02Zm6.15,4.638c0-.323-.144-.468-.468-.468h-1.33v7.264H49.7c.323,0,.468-.144.468-.468Z" transform="translate(32.537 74.75)" fill="#df9712"/>
    <path id="Path_325" data-name="Path 325" d="M56.566,122.132h-2.23L53.9,126.3H50.058l2.8-25.17h5.645l2.842,25.17H57Zm-1.8-4.1H56.35l-.755-9.348Z" transform="translate(37 74.75)" fill="#df9712"/>
    <rect id="Rectangle_33" data-name="Rectangle 33" width="4.351" height="25.17" transform="translate(99.424 175.882)" fill="#df9712"/>
    <line id="Line_190" data-name="Line 190" x2="77.896" transform="translate(31.122 159.667)" fill="none" stroke="#e4216c" stroke-miterlimit="10" stroke-width="1"/>
    <line id="Line_191" data-name="Line 191" x2="77.896" transform="translate(31.122 216.296)" fill="none" stroke="#e4216c" stroke-miterlimit="10" stroke-width="1"/>
  </g>
</svg>
