<svg xmlns="http://www.w3.org/2000/svg" width="330.937" height="188.574" viewBox="0 0 330.937 188.574">
  <g id="Supreme_yakiniku" data-name="Supreme yakiniku" transform="translate(-165.975 -31.2)">
    <path id="Rectangle_35" data-name="Rectangle 35" d="M10.618,0H286.8a10.619,10.619,0,0,1,10.619,10.619V174.477A10.619,10.619,0,0,1,286.8,185.1H10.618A10.618,10.618,0,0,1,0,174.478V10.618A10.618,10.618,0,0,1,10.618,0Z" transform="translate(197.759 32.939)" fill="#181217"/>
    <path id="Path_337" data-name="Path 337" d="M393.4,21.418a16.728,16.728,0,0,1,16.727,16.729v148.16A16.727,16.727,0,0,1,393.4,203.036H132.917a16.729,16.729,0,0,1-16.729-16.729V38.147a16.73,16.73,0,0,1,16.729-16.729Zm0-3.478H132.917A20.229,20.229,0,0,0,112.71,38.147v148.16a20.228,20.228,0,0,0,20.207,20.207H393.4A20.228,20.228,0,0,0,413.6,186.307V38.147A20.229,20.229,0,0,0,393.4,17.94" transform="translate(83.308 13.26)" fill="#df9712"/>
    <path id="Path_341" data-name="Path 341" d="M273.628,41.832c-2.532,10.649-5.835,13.953-16.483,16.482a1.3,1.3,0,0,0,0,2.52c10.649,2.53,13.951,5.833,16.483,16.482a1.3,1.3,0,0,0,2.518,0c2.529-10.649,5.833-13.951,16.482-16.482a1.3,1.3,0,0,0,0-2.52c-10.649-2.529-13.953-5.833-16.482-16.482a1.3,1.3,0,0,0-2.518,0" transform="translate(189.331 30.187)" fill="#df9712"/>
    <path id="Path_342" data-name="Path 342" d="M259.187,27.324c-1.511,6.365-3.485,8.337-9.849,9.85a.775.775,0,0,0,0,1.506c6.363,1.51,8.337,3.487,9.849,9.847a.774.774,0,0,0,1.506,0c1.511-6.36,3.485-8.337,9.849-9.847a.775.775,0,0,0,0-1.506c-6.363-1.513-8.337-3.485-9.849-9.85a.775.775,0,0,0-1.506,0" transform="translate(183.857 19.758)" fill="#e4216c"/>
    <path id="Path_343" data-name="Path 343" d="M174.83,133.9q0,4.826-.157,7.111a17.781,17.781,0,0,1-.783,4.238q-.942,3.013-2.663,3.934a8.743,8.743,0,0,1-4.07.953q-5.4.065-10.8-.052c-2.245-.05-3.852-.737-4.816-2.033s-1.445-3.351-1.449-6.158v-14.3q-2.7-.12-5.4-.294,2.152,1.148,4.3,2.261a37.113,37.113,0,0,1-7.28,12.663,22.866,22.866,0,0,1-13.23,7.1c-1.67-1.859-4.776-4.932-9.317-9.4q-.939-.952-2.113-2.087c-.783-.76-1.595-1.6-2.426-2.523a37.878,37.878,0,0,1-8.3,10.311q-2.5-5.859-4.148-9.365a58.623,58.623,0,0,0-4.228-7.372,20.8,20.8,0,0,0,5.518-3.922,13.31,13.31,0,0,0,3.014-5.8,34.668,34.668,0,0,0,1.174-8.191q.243-5.079.235-14.29V77.38q6.146,1.453,12.29,2.53v18.6q.936-5.982,1.176-9.369,1.448.853,2.9,1.683v-7.9q7.829,1.174,15.657,1.816,0-1.4,0-2.805,8.063.67,16.127.849V85.6q7.868.185,15.736-.031V98.11q-7.868.2-15.736.03v1.581q5.637.13,11.273.056,0,1.4,0,2.807,3.091-.039,6.184-.136,0,5.134,0,10.264-3.091.1-6.184.136,0,1.4,0,2.807,2.306-.029,4.619-.09v12.2q-4.268.112-8.532.117,0,3.9,0,7.807,0,.441,1.25.437a.847.847,0,0,0,.939-.97q0-3.07-.076-4.037c-.054-.642-.106-1.169-.157-1.577a64.758,64.758,0,0,0,9.471,1.294Zm-74.057-15.562a18.113,18.113,0,0,0-2.661-.555q2.27-11.468,2.27-28.5v-2.9q3.4,1.179,6.81,2.235a242.2,242.2,0,0,1-1.722,31.438,43.954,43.954,0,0,0-4.7-1.722m13.936,16.723a27.833,27.833,0,0,0,3.678-.1q-1.1-1.6-2.191-3.209-.71,1.8-1.487,3.313m9.393-21.713q-2-1.09-3.993-2.219-.078,2.533-.546,6.838c2.085,2.054,3.6,3.456,4.539,4.242Zm6.264,18.271a14.073,14.073,0,0,0,4.461-5.151q-3.17-.331-6.341-.746,1.409,1.02,2.817,2.021a109.9,109.9,0,0,0-9.237,6.871,20.029,20.029,0,0,0,8.3-2.995m-5.482-18.593q1.917.282,3.837.532v-2.807q-1.565-.206-3.13-.431-.355,1.354-.706,2.706m3.837-15.348q5.6.73,11.195,1.191,0-.788,0-1.579-5.95-.5-11.9-1.283l-.47,4.323,1.174.157V97.679m23.8,2.814q-4.581-.164-9.16-.482v1.93q4.578.321,9.16.482Zm-9.16,11.713v2.807q4.578.321,9.16.482v-2.807q-4.581-.164-9.16-.482" transform="translate(72.402 57.194)" fill="#e4216c"/>
    <path id="Path_344" data-name="Path 344" d="M217.872,77.613q0,26.977,0,53.955a10.189,10.189,0,0,1-1.8,6.308q-1.805,2.358-6.969,4.005a95.793,95.793,0,0,1-15.5,3.024c-1.614.209-4.83.572-9.63,1.033-.52.063-1.044.125-1.565.186a63.936,63.936,0,0,0-1.917-9.294,21.135,21.135,0,0,0-3.955-7.23c5.995-.487,10.647-.983,13.936-1.4-4.176-1.983-7.177-3.527-9-4.6-2.817,2.9-7.384,6.416-13.7,10.416A48.589,48.589,0,0,0,161.9,127v20.355q-8.924.757-17.849,1.16v-62.9c8.977-.388,17.953-1.1,26.93-2.007l.078-3.43c6.367-.645,12.734-1.395,19.1-2.2L190,81.413c9.29-1.181,18.581-2.489,27.871-3.8M161.9,99.455V103.4a34.963,34.963,0,0,0,5.363-1.885,7.249,7.249,0,0,0,3.17-2.242,1.521,1.521,0,0,0,.157-.235,2,2,0,0,0,.157-.41q-4.424.446-8.847.824m0,22.021a30.884,30.884,0,0,0,4.972-2.289,9.829,9.829,0,0,0,3.17-3.026,10.682,10.682,0,0,0,1.565-3.492q-2.309,1.156-4.617,2.3c-.993-1.776-1.85-3.249-2.584-4.41a23.071,23.071,0,0,0-2.506-3.292v14.214m13.544-10.88q4.972-.54,9.943-1.148-2.387-1.114-4.776-2.24a37,37,0,0,1-5.167,3.388m25.05-15.562q-6.613.9-13.23,1.723-.156.459-.313.917a50.577,50.577,0,0,0,13.543,2.1Zm-12.917,19.231a40.557,40.557,0,0,0,12.917,2.351V100.123q-4.03,6.162-8.063,12.3-2-.8-3.993-1.6a19.026,19.026,0,0,1-.861,3.442m6.5,13.383a16.4,16.4,0,0,0,4.306-1.271,3.5,3.5,0,0,0,1.722-1.68,7.884,7.884,0,0,0,.391-2.817v-4.911q-3.209,5.348-6.419,10.68" transform="translate(106.471 57.366)" fill="#e4216c"/>
    <path id="Path_345" data-name="Path 345" d="M263.116,115.4q-.819,2.838-1.136,3.9c-.416,1.656-.81,3.047-1.174,4.172q1.37-.057,2.741-.1,0,7.017,0,14.037c-17.614.607-35.228,2.5-52.842,4.791q0-7.02,0-14.038c5.532-.72,11.064-1.4,16.6-2.014q-.31-1.106-1.1-3.3-2.348.263-4.7.543v1.93q-4.307.511-8.614,1.066V112.872q-1.487,5.236-2.972,10.475-.511-2.783-1.019-5.569v25.706q-7.359.97-14.717,2.009V129.439a57.431,57.431,0,0,1-3.445,10.748,124.615,124.615,0,0,0-3.209-23.059q4.229-4.37,6.654-12.781v-1.141l-4.228.595V86.43q2.113-.3,4.228-.593V78.116q7.357-1.03,14.717-2.009v7.72c.626-.082,1.252-.165,1.88-.245V76.3c17.51-2.282,35.017-4.158,52.529-4.774v13.16c-10.412.365-20.824,1.177-31.237,2.254q-.548.848-1.1,1.694,6.224-.655,12.447-1.174V110.8q0,2.019-.078,3.077a17.4,17.4,0,0,0,4.071-2.424A47.142,47.142,0,0,1,243.505,105q2.23-2.992,4.463-5.962-1.448.107-2.9.221V87.326c5.558-.44,11.117-.784,16.675-1q.783,5.1,1.567,10.207a71.968,71.968,0,0,1-2.35,12.635q1.92.579,3.837,1.177-.863,2.22-1.684,5.057M208.9,101.549l1.88,2.386q1.057,1.31,2.111,2.621V96.73q2.429-.31,4.854-.61-1.1-1.093-2.191-2.183,1.409-2.723,2.819-5.44-3.446.423-6.889.87V100.86q-1.291.167-2.584.337Zm11.43,11.8c.809-.1,1.619-.193,2.426-.287V104.2c-.807.1-1.617.191-2.426.289ZM231.45,96.743l-1.33.141c-.183.021-.367.04-.55.059v20.969a2.285,2.285,0,0,0,1.605-1.005,5.937,5.937,0,0,0,.353-2.449q-.039-8.857-.078-17.715m8.3,28.144q3.13-.282,6.263-.525a17.855,17.855,0,0,0-3.289-6.226,14.76,14.76,0,0,1-2.974,6.751m19.1-1.329c-.894-.777-2.216-2-3.993-3.652a33.165,33.165,0,0,1-5.324,4.2q4.659-.324,9.317-.544m-8.69-24.677a25.258,25.258,0,0,0,2.193,4.068c.1-.475.341-1.894.7-4.256q-1.448.089-2.9.188" transform="translate(138.612 52.867)" fill="#e4216c"/>
    <path id="Path_346" data-name="Path 346" d="M277.6,103.873v16.757a214.029,214.029,0,0,1,27.793,5.85v18.864c-23.485-6.628-46.972-8.718-70.457-8.341V118.14c7.671-.123,15.343.017,23.016.492V71.61c6.55.405,13.1,1.056,19.649,1.995V85.713a214.578,214.578,0,0,1,26.617,5.523V109.4a214.516,214.516,0,0,0-26.617-5.523" transform="translate(173.646 52.929)" fill="#e4216c"/>
    <path id="Path_347" data-name="Path 347" d="M172.519,128.753q0,4.826-.157,7.113a17.958,17.958,0,0,1-.783,4.237q-.942,3.016-2.663,3.939a8.738,8.738,0,0,1-4.07.958q-5.4.073-10.8-.038c-2.247-.049-3.849-.734-4.816-2.03s-1.447-3.35-1.449-6.157v-14.3q-2.7-.117-5.4-.29,2.152,1.148,4.3,2.257a37.247,37.247,0,0,1-7.28,12.67,22.868,22.868,0,0,1-13.23,7.108c-1.671-1.859-4.776-4.93-9.317-9.4q-.942-.952-2.113-2.087c-.783-.76-1.6-1.6-2.426-2.523a38.009,38.009,0,0,1-8.3,10.311q-2.507-5.862-4.148-9.367a58.644,58.644,0,0,0-4.228-7.376,20.669,20.669,0,0,0,5.518-3.918,13.35,13.35,0,0,0,3.014-5.8,34.593,34.593,0,0,0,1.174-8.193q.24-5.077.235-14.289v-19.3q6.146,1.456,12.29,2.53v18.6q.939-5.979,1.176-9.367,1.448.85,2.9,1.682v-7.9Q129.773,79,137.6,79.639q0-1.4,0-2.807,8.063.665,16.127.835v2.807q7.868.175,15.736-.05V92.969q-7.87.214-15.736.049V94.6q5.637.125,11.273.042v2.807q3.091-.042,6.184-.143,0,5.131,0,10.263-3.091.1-6.184.144v2.807q2.309-.031,4.619-.1v12.195q-4.268.117-8.532.129v7.807q0,.441,1.25.435a.848.848,0,0,0,.939-.972q0-3.07-.077-4.035t-.157-1.577a64.507,64.507,0,0,0,9.471,1.28ZM98.461,113.237a18.065,18.065,0,0,0-2.661-.555q2.272-11.468,2.27-28.5v-2.9q3.4,1.182,6.81,2.238a241.241,241.241,0,0,1-1.722,31.437,44.444,44.444,0,0,0-4.7-1.723M112.4,129.964a27.821,27.821,0,0,0,3.678-.1q-1.1-1.6-2.191-3.209a34.463,34.463,0,0,1-1.487,3.313m9.393-21.715q-2-1.09-3.993-2.217-.076,2.533-.546,6.838c2.085,2.054,3.6,3.456,4.539,4.24Zm6.264,18.27a14.067,14.067,0,0,0,4.461-5.155q-3.17-.326-6.341-.741,1.409,1.017,2.817,2.017a111.726,111.726,0,0,0-9.237,6.875,20.028,20.028,0,0,0,8.3-3m-5.482-18.591q1.917.282,3.837.53v-2.807q-1.565-.2-3.13-.43-.355,1.354-.706,2.706m3.837-15.348q5.6.725,11.195,1.184,0-.79,0-1.579-5.95-.493-11.9-1.278-.235,2.163-.47,4.323.587.081,1.174.157V92.579m23.8,2.795q-4.581-.159-9.16-.473v1.93q4.581.316,9.16.473Zm-9.16,11.722V109.9q4.581.316,9.16.473v-2.807q-4.581-.159-9.16-.473" transform="translate(70.694 53.426)" fill="#fff"/>
    <path id="Path_348" data-name="Path 348" d="M172.519,128.753q0,4.826-.157,7.113a17.958,17.958,0,0,1-.783,4.237q-.942,3.016-2.663,3.939a8.738,8.738,0,0,1-4.07.958q-5.4.073-10.8-.038c-2.247-.049-3.849-.734-4.816-2.03s-1.447-3.35-1.449-6.157v-14.3q-2.7-.117-5.4-.29,2.152,1.148,4.3,2.257a37.247,37.247,0,0,1-7.28,12.67,22.868,22.868,0,0,1-13.23,7.108c-1.671-1.859-4.776-4.93-9.317-9.4q-.942-.952-2.113-2.087c-.783-.76-1.6-1.6-2.426-2.523a38.009,38.009,0,0,1-8.3,10.311q-2.507-5.862-4.148-9.367a58.644,58.644,0,0,0-4.228-7.376,20.669,20.669,0,0,0,5.518-3.918,13.35,13.35,0,0,0,3.014-5.8,34.593,34.593,0,0,0,1.174-8.193q.24-5.077.235-14.289v-19.3q6.146,1.456,12.29,2.53v18.6q.939-5.979,1.176-9.367,1.448.85,2.9,1.682v-7.9Q129.773,79,137.6,79.639q0-1.4,0-2.807,8.063.665,16.127.835v2.807q7.868.175,15.736-.05V92.969q-7.87.214-15.736.049V94.6q5.637.125,11.273.042v2.807q3.091-.042,6.184-.143,0,5.131,0,10.263-3.091.1-6.184.144v2.807q2.309-.031,4.619-.1v12.195q-4.268.117-8.532.129v7.807q0,.441,1.25.435a.848.848,0,0,0,.939-.972q0-3.07-.077-4.035t-.157-1.577a64.507,64.507,0,0,0,9.471,1.28ZM98.461,113.237a18.065,18.065,0,0,0-2.661-.555q2.272-11.468,2.27-28.5v-2.9q3.4,1.182,6.81,2.238a241.241,241.241,0,0,1-1.722,31.437A44.444,44.444,0,0,0,98.461,113.237ZM112.4,129.964a27.821,27.821,0,0,0,3.678-.1q-1.1-1.6-2.191-3.209A34.463,34.463,0,0,1,112.4,129.964Zm9.393-21.715q-2-1.09-3.993-2.217-.076,2.533-.546,6.838c2.085,2.054,3.6,3.456,4.539,4.24Zm6.264,18.27a14.067,14.067,0,0,0,4.461-5.155q-3.17-.326-6.341-.741,1.409,1.017,2.817,2.017a111.726,111.726,0,0,0-9.237,6.875A20.028,20.028,0,0,0,128.054,126.519Zm-5.482-18.591q1.917.282,3.837.53v-2.807q-1.565-.2-3.13-.43Q122.924,106.575,122.573,107.927Zm3.837-15.348q5.6.725,11.195,1.184,0-.79,0-1.579-5.95-.493-11.9-1.278-.235,2.163-.47,4.323.587.081,1.174.157Zm23.8,2.795q-4.581-.159-9.16-.473v1.93q4.581.316,9.16.473Zm-9.16,11.722V109.9q4.581.316,9.16.473v-2.807Q145.627,107.41,141.048,107.1Z" transform="translate(70.694 53.426)" fill="none" stroke="#e4216c" stroke-miterlimit="10" stroke-width="0.5"/>
    <path id="Path_349" data-name="Path 349" d="M215.561,72.4v53.953a10.141,10.141,0,0,1-1.8,6.311q-1.805,2.363-6.967,4.021a95.748,95.748,0,0,1-15.5,3.054c-1.617.214-4.828.583-9.63,1.054l-1.565.19a63.527,63.527,0,0,0-1.918-9.29,21,21,0,0,0-3.953-7.223c6-.5,10.645-1,13.936-1.428-4.177-1.974-7.177-3.513-9-4.581-2.821,2.906-7.388,6.428-13.7,10.44a48.485,48.485,0,0,0-5.871-7.005v20.355q-8.924.772-17.849,1.19v-62.9c8.977-.4,17.955-1.125,26.93-2.052q.039-1.714.078-3.43c6.367-.659,12.734-1.419,19.1-2.242q-.078,1.722-.156,3.442c9.29-1.2,18.581-2.525,27.871-3.854m-55.976,21.95V98.3a34.833,34.833,0,0,0,5.363-1.9,7.241,7.241,0,0,0,3.17-2.245,1.327,1.327,0,0,0,.157-.237,2.362,2.362,0,0,0,.157-.41q-4.424.454-8.847.84m0,22.021a30.743,30.743,0,0,0,4.97-2.3,9.839,9.839,0,0,0,3.172-3.033,10.62,10.62,0,0,0,1.565-3.494q-2.311,1.161-4.617,2.3-1.492-2.663-2.586-4.407a23.144,23.144,0,0,0-2.5-3.287Zm13.544-10.9q4.972-.548,9.943-1.169-2.39-1.106-4.776-2.23a37.192,37.192,0,0,1-5.167,3.4m25.05-15.61q-6.613.908-13.23,1.75c-.1.306-.207.612-.313.917A50.584,50.584,0,0,0,198.181,94.6V89.861m-12.918,19.257a40.515,40.515,0,0,0,12.918,2.323V94.949q-4.03,6.17-8.063,12.315-2-.79-3.993-1.59a19.24,19.24,0,0,1-.863,3.443m6.5,13.369a16.406,16.406,0,0,0,4.306-1.28,3.512,3.512,0,0,0,1.722-1.683,7.929,7.929,0,0,0,.391-2.817v-4.913q-3.209,5.356-6.419,10.694" transform="translate(104.762 53.517)" fill="#fff"/>
    <path id="Path_350" data-name="Path 350" d="M215.561,72.4v53.953a10.141,10.141,0,0,1-1.8,6.311q-1.805,2.363-6.967,4.021a95.748,95.748,0,0,1-15.5,3.054c-1.617.214-4.828.583-9.63,1.054l-1.565.19a63.527,63.527,0,0,0-1.918-9.29,21,21,0,0,0-3.953-7.223c6-.5,10.645-1,13.936-1.428-4.177-1.974-7.177-3.513-9-4.581-2.821,2.906-7.388,6.428-13.7,10.44a48.485,48.485,0,0,0-5.871-7.005v20.355q-8.924.772-17.849,1.19v-62.9c8.977-.4,17.955-1.125,26.93-2.052q.039-1.714.078-3.43c6.367-.659,12.734-1.419,19.1-2.242q-.078,1.722-.156,3.442C196.981,75.061,206.271,73.734,215.561,72.4Zm-55.976,21.95V98.3a34.833,34.833,0,0,0,5.363-1.9,7.241,7.241,0,0,0,3.17-2.245,1.327,1.327,0,0,0,.157-.237,2.362,2.362,0,0,0,.157-.41Q164.008,93.969,159.586,94.355Zm0,22.021a30.743,30.743,0,0,0,4.97-2.3,9.839,9.839,0,0,0,3.172-3.033,10.62,10.62,0,0,0,1.565-3.494q-2.311,1.161-4.617,2.3-1.492-2.663-2.586-4.407a23.144,23.144,0,0,0-2.5-3.287Zm13.544-10.9q4.972-.548,9.943-1.169-2.39-1.106-4.776-2.23A37.192,37.192,0,0,1,173.13,105.471Zm25.05-15.61q-6.613.908-13.23,1.75c-.1.306-.207.612-.313.917A50.584,50.584,0,0,0,198.181,94.6Zm-12.918,19.257a40.515,40.515,0,0,0,12.918,2.323V94.949q-4.03,6.17-8.063,12.315-2-.79-3.993-1.59A19.24,19.24,0,0,1,185.262,109.118Zm6.5,13.369a16.406,16.406,0,0,0,4.306-1.28,3.512,3.512,0,0,0,1.722-1.683,7.929,7.929,0,0,0,.391-2.817v-4.913Q194.972,117.149,191.761,122.487Z" transform="translate(104.762 53.517)" fill="none" stroke="#e4216c" stroke-miterlimit="10" stroke-width="0.5"/>
    <path id="Path_351" data-name="Path 351" d="M260.8,110.119q-.822,2.838-1.136,3.9c-.414,1.656-.809,3.045-1.174,4.172q1.37-.06,2.739-.108v14.037c-17.614.624-35.228,2.541-52.842,4.868V122.954q8.3-1.1,16.6-2.043-.318-1.1-1.1-3.3-2.348.269-4.7.551v1.93q-4.3.519-8.612,1.08v-13.51q-1.484,5.238-2.974,10.48-.509-2.783-1.019-5.567v25.706q-7.357.983-14.717,2.037V124.267a57.62,57.62,0,0,1-3.444,10.753,124.066,124.066,0,0,0-3.21-23.052q4.223-4.377,6.654-12.793V98.034q-2.113.3-4.226.6V81.265l4.226-.6v-7.72q7.359-1.043,14.717-2.038v7.722l1.88-.25V71.095c17.51-2.313,35.021-4.217,52.529-4.849V79.4c-10.41.376-20.824,1.2-31.237,2.3l-1.1,1.7q6.224-.665,12.449-1.193v23.336c0,1.346-.028,2.372-.078,3.078a17.5,17.5,0,0,0,4.071-2.431,46.591,46.591,0,0,1-3.915-6.443q2.23-2.995,4.463-5.967-1.448.107-2.9.224V82.067q8.337-.673,16.675-1.023.783,5.1,1.565,10.205a72.2,72.2,0,0,1-2.348,12.637q1.917.577,3.837,1.174-.863,2.22-1.683,5.059M206.59,96.349l1.88,2.381q1.059,1.31,2.113,2.619V91.523q2.426-.316,4.854-.621-1.1-1.09-2.193-2.179,1.411-2.723,2.821-5.443-3.446.428-6.889.882V95.655q-1.294.17-2.586.343v.351m11.431,11.781c.807-.1,1.617-.2,2.426-.292V98.976q-1.213.143-2.426.292v8.861m11.117-16.624q-.668.07-1.332.143l-.548.059v20.969a2.3,2.3,0,0,0,1.605-1.007,5.953,5.953,0,0,0,.353-2.45l-.078-17.713m8.3,28.13q3.133-.287,6.263-.534a17.816,17.816,0,0,0-3.289-6.221,14.807,14.807,0,0,1-2.974,6.755m19.1-1.353c-.887-.776-2.221-2-3.993-3.649a33.351,33.351,0,0,1-5.324,4.205q4.659-.331,9.317-.557m-8.69-24.666a24.945,24.945,0,0,0,2.191,4.064c.1-.475.341-1.892.706-4.256q-1.448.091-2.9.191" transform="translate(136.902 48.965)" fill="#fff"/>
    <path id="Path_352" data-name="Path 352" d="M260.8,110.119q-.822,2.838-1.136,3.9c-.414,1.656-.809,3.045-1.174,4.172q1.37-.06,2.739-.108v14.037c-17.614.624-35.228,2.541-52.842,4.868V122.954q8.3-1.1,16.6-2.043-.318-1.1-1.1-3.3-2.348.269-4.7.551v1.93q-4.3.519-8.612,1.08v-13.51q-1.484,5.238-2.974,10.48-.509-2.783-1.019-5.567v25.706q-7.357.983-14.717,2.037V124.267a57.62,57.62,0,0,1-3.444,10.753,124.066,124.066,0,0,0-3.21-23.052q4.223-4.377,6.654-12.793V98.034q-2.113.3-4.226.6V81.265l4.226-.6v-7.72q7.359-1.043,14.717-2.038v7.722l1.88-.25V71.095c17.51-2.313,35.021-4.217,52.529-4.849V79.4c-10.41.376-20.824,1.2-31.237,2.3l-1.1,1.7q6.224-.665,12.449-1.193v23.336c0,1.346-.028,2.372-.078,3.078a17.5,17.5,0,0,0,4.071-2.431,46.591,46.591,0,0,1-3.915-6.443q2.23-2.995,4.463-5.967-1.448.107-2.9.224V82.067q8.337-.673,16.675-1.023.783,5.1,1.565,10.205a72.2,72.2,0,0,1-2.348,12.637q1.917.577,3.837,1.174Q261.624,107.28,260.8,110.119ZM206.59,96.349l1.88,2.381q1.059,1.31,2.113,2.619V91.523q2.426-.316,4.854-.621-1.1-1.09-2.193-2.179,1.411-2.723,2.821-5.443-3.446.428-6.889.882V95.655q-1.294.17-2.586.343Zm11.431,11.781c.807-.1,1.617-.2,2.426-.292V98.976q-1.213.143-2.426.292Zm11.117-16.624q-.668.07-1.332.143l-.548.059v20.969a2.3,2.3,0,0,0,1.605-1.007,5.953,5.953,0,0,0,.353-2.45Zm8.3,28.13q3.133-.287,6.263-.534a17.816,17.816,0,0,0-3.289-6.221A14.807,14.807,0,0,1,237.436,119.636Zm19.1-1.353c-.887-.776-2.221-2-3.993-3.649a33.351,33.351,0,0,1-5.324,4.205Q251.881,118.508,256.538,118.283Zm-8.69-24.666a24.945,24.945,0,0,0,2.191,4.064c.1-.475.341-1.892.706-4.256Q249.3,93.516,247.848,93.616Z" transform="translate(136.902 48.965)" fill="none" stroke="#e4216c" stroke-miterlimit="10" stroke-width="0.5"/>
    <path id="Path_353" data-name="Path 353" d="M275.284,98.585v16.757a212.444,212.444,0,0,1,27.793,5.88v18.863c-23.487-6.664-46.972-8.755-70.457-8.358V112.862c7.67-.129,15.343.007,23.014.482V66.319c6.55.405,13.1,1.056,19.65,2V80.425a212.75,212.75,0,0,1,26.617,5.55v18.16a213.064,213.064,0,0,0-26.617-5.55" transform="translate(171.937 49.019)" fill="#fff"/>
    <path id="Path_354" data-name="Path 354" d="M275.284,98.585v16.757a212.444,212.444,0,0,1,27.793,5.88v18.863c-23.487-6.664-46.972-8.755-70.457-8.358V112.862c7.67-.129,15.343.007,23.014.482V66.319c6.55.405,13.1,1.056,19.65,2V80.425a212.75,212.75,0,0,1,26.617,5.55v18.16A213.064,213.064,0,0,0,275.284,98.585Z" transform="translate(171.937 49.019)" fill="none" stroke="#e4216c" stroke-miterlimit="10" stroke-width="0.5"/>
    <path id="Path_375" data-name="Path 375" d="M126.826,57.131a6.494,6.494,0,0,1-2.384-5.266V47.392a4.476,4.476,0,0,1,4.471-4.471h3.6a4.476,4.476,0,0,1,4.471,4.471V51.74l-5.057.753V48.312c0-.376-.167-.543-.544-.543h-1.336c-.377,0-.544.167-.544.543v1.965a3.979,3.979,0,0,0,1.337,3.176l3.217,3.136c1.882,1.838,2.927,3.343,2.927,5.977v5.141a4.476,4.476,0,0,1-4.471,4.471h-3.6a4.476,4.476,0,0,1-4.471-4.471V62.272l5.057-.711v5.226c0,.376.167.543.544.543h1.336c.377,0,.544-.167.544-.543V64.822a5.049,5.049,0,0,0-1.715-4.388Z" transform="translate(91.979 31.724)" fill="#fff"/>
    <path id="Path_376" data-name="Path 376" d="M137.672,66.786c0,.376.167.543.543.543h1.337c.377,0,.544-.167.544-.543V42.92h4.93V67.706a4.476,4.476,0,0,1-4.471,4.471h-3.47a4.476,4.476,0,0,1-4.471-4.471V42.92h5.057Z" transform="translate(98.02 31.724)" fill="#fff"/>
    <path id="Path_377" data-name="Path 377" d="M140.716,42.921h7.732a4.476,4.476,0,0,1,4.471,4.471v9.195a4.477,4.477,0,0,1-4.471,4.473h-2.675V72.178h-5.057Zm7.146,5.391c0-.376-.167-.543-.543-.543h-1.546v8.442h1.546c.376,0,.543-.167.543-.543Z" transform="translate(104.008 31.724)" fill="#fff"/>
    <path id="Path_378" data-name="Path 378" d="M155.938,61.394a1.187,1.187,0,0,0-1.3-1.3h-1.129v12.08h-5.057V42.921h8.068A4.476,4.476,0,0,1,161,47.392v6.856a3.425,3.425,0,0,1-2.466,3.426A3.414,3.414,0,0,1,161,61.06v6.9a16.357,16.357,0,0,0,.544,4.223h-5.268c-.04-.377-.125-.795-.165-1.3a29.87,29.87,0,0,1-.169-3.845Zm0-13.082c0-.376-.167-.543-.543-.543h-1.882v7.48H155.4c.376,0,.543-.165.543-.543Z" transform="translate(109.729 31.724)" fill="#fff"/>
    <path id="Path_379" data-name="Path 379" d="M156.581,42.921h11.452V47.77h-6.395v6.937h4.012v4.849h-4.012V67.33h6.395v4.849H156.581Z" transform="translate(115.734 31.724)" fill="#fff"/>
    <path id="Path_380" data-name="Path 380" d="M175.8,42.921h5.6V72.178h-5.059V59.764l-2.13,12.414H171.16L168.82,59.764V72.178h-4.932V42.921h6.271l2.675,15.548Z" transform="translate(121.134 31.724)" fill="#fff"/>
    <path id="Path_381" data-name="Path 381" d="M174.921,42.921h11.452V47.77h-6.395v6.937h4.012v4.849h-4.012V67.33h6.395v4.849H174.921Z" transform="translate(129.29 31.724)" fill="#fff"/>
    <path id="Path_382" data-name="Path 382" d="M192.139,52.868l2.257-9.948h4.557l-4.264,18.308v10.95h-5.056V61.228l-4.64-18.308h4.889Z" transform="translate(136.734 31.724)" fill="#fff"/>
    <path id="Path_383" data-name="Path 383" d="M200.464,67.33h-2.59l-.5,4.847H192.9l3.261-29.256h6.56l3.3,29.256h-5.056Zm-2.089-4.765h1.84L199.338,51.7Z" transform="translate(142.579 31.724)" fill="#fff"/>
    <path id="Path_384" data-name="Path 384" d="M206.227,54.456l2.633-11.536h4.89l-2.716,13.5,2.883,15.757h-5.266l-2.424-12.957V72.178h-5.057V42.921h5.057Z" transform="translate(148.691 31.724)" fill="#fff"/>
    <rect id="Rectangle_37" data-name="Rectangle 37" width="5.057" height="29.257" transform="translate(363.656 74.645)" fill="#fff"/>
    <path id="Path_385" data-name="Path 385" d="M220.747,55.961V42.921h4.93V72.178h-4.93L217.9,58.51V72.178h-4.932V42.921H217.9Z" transform="translate(157.414 31.724)" fill="#fff"/>
    <rect id="Rectangle_38" data-name="Rectangle 38" width="5.057" height="29.257" transform="translate(384.766 74.645)" fill="#fff"/>
    <path id="Path_386" data-name="Path 386" d="M230.168,54.456,232.8,42.921h4.89l-2.716,13.5,2.883,15.757h-5.266l-2.424-12.957V72.178h-5.057V42.921h5.057Z" transform="translate(166.387 31.724)" fill="#fff"/>
    <path id="Path_387" data-name="Path 387" d="M238.1,66.786c0,.376.167.543.543.543h1.337c.377,0,.544-.167.544-.543V42.92h4.93V67.706a4.476,4.476,0,0,1-4.471,4.471h-3.47a4.476,4.476,0,0,1-4.471-4.471V42.92H238.1Z" transform="translate(172.25 31.724)" fill="#fff"/>
  </g>
</svg>
