<svg xmlns="http://www.w3.org/2000/svg" width="300.894" height="188.574" viewBox="0 0 300.894 188.574">
  <g id="Relaxed_Izakaya" data-name="Relaxed Izakaya" transform="translate(-537.129 -31.2)">
    <path id="Rectangle_36" data-name="Rectangle 36" d="M10.618,0H286.8a10.619,10.619,0,0,1,10.619,10.619V174.477A10.619,10.619,0,0,1,286.8,185.1H10.618A10.618,10.618,0,0,1,0,174.478V10.618A10.618,10.618,0,0,1,10.618,0Z" transform="translate(538.87 32.939)" fill="#181217"/>
    <path id="Path_338" data-name="Path 338" d="M589.538,21.418a16.728,16.728,0,0,1,16.727,16.729v148.16a16.727,16.727,0,0,1-16.727,16.729H329.056a16.729,16.729,0,0,1-16.729-16.729V38.147a16.73,16.73,0,0,1,16.729-16.729Zm0-3.478H329.056a20.229,20.229,0,0,0-20.207,20.207v148.16a20.228,20.228,0,0,0,20.207,20.207H589.538a20.228,20.228,0,0,0,20.205-20.207V38.147A20.229,20.229,0,0,0,589.538,17.94" transform="translate(228.28 13.26)" fill="#e4216c"/>
    <path id="Path_355" data-name="Path 355" d="M453.628,51.613c-51.833,0-99.478,7.967-137.11,21.292V161.42a6.876,6.876,0,0,0,6.868,6.868H583.87a6.876,6.876,0,0,0,6.868-6.868V72.905c-37.631-13.325-85.277-21.292-137.11-21.292" transform="translate(233.949 38.149)" fill="#e4216c"/>
    <path id="Path_356" data-name="Path 356" d="M342.4,142.532q-6.318-.042-12.638-.082-2.225-.243-2.226-2.8-.042-3.637-.08-7.275c0-1.03.4-17.892,1.172-51.07a5.131,5.131,0,0,1,4.143-5.11,459.866,459.866,0,0,1,61.31-11.574c2.979-.287,4.477,1.2,4.492,4.416q.091,10.7.179,21.405c.012,3.153-1.336,4.814-4.042,5q-24.856,1.85-49.52,5.329-.287,19.39-.576,38.69-.068,3.07-2.214,3.066m8.823-.087q-4.294-.266-4.311-4.548-.068-7.769-.137-15.53c-.01-2.969,1.383-4.57,4.179-4.788q6.3-.48,12.612-.9-.008-1.487-.016-2.972-7.458.548-14.9,1.195-2.773.237-2.781-2.409-.013-3.681-.028-7.36c0-.854.859-1.393,2.605-1.609q7.513-.879,15.047-1.616c0-.541-.005-1.082-.009-1.621,0-.84.595-1.329,1.816-1.461q6.308-.642,12.626-1.172c1.32-.122,2.016.285,2.075,1.216,0,.5.005,1,.009,1.5q8.39-.7,16.795-1.219c1.381-.087,2.075.871,2.085,2.864q.055,3.326.111,6.652c.007,2-.863,3.028-2.614,3.1q-8.163.365-16.31.845l.016,3.085q6.916-.318,13.842-.56,4.062-.172,4.082,4.75,0,8.768,0,17.534.023,4.818-4.03,5.106-21.381-.05-42.763-.087m29.009-58.937q-.008-1.591-.017-3.181Q363.034,82.419,346,85.584l.01,2.911q17.035-3,34.219-4.988m.737,47.7q-.01-1.967-.021-3.932-8.747.258-17.482.586.008,1.891.019,3.783,8.739-.245,17.484-.436" transform="translate(242.03 47.74)" fill="#fff"/>
    <path id="Path_357" data-name="Path 357" d="M392.332,111.905q-4.148.073-8.292.172a4.117,4.117,0,0,1-3.955-2.4q-1.323-2.47-2.609-4.776a7.39,7.39,0,0,1-1.612-4.737l-.03-8.226q-.016-2.937,2.383-3.261,4.555-.232,9.11-.4a2.817,2.817,0,0,1,2.16,1.012q2.366,3.039,4.729,6.113a13.2,13.2,0,0,1,.887,5.144q-.081-.1-.064,7.946,0,3.18-2.706,3.419m.264-25.4q-4.156.125-8.311.3a3.964,3.964,0,0,1-3.923-2.278q-1.283-2.39-2.654-4.763a7.083,7.083,0,0,1-1.536-4.609q-.016-4.117-.03-8.23-.013-3.037,2.23-3.405,4.643-.342,9.289-.59a2.7,2.7,0,0,1,2.085.983q2.41,3.005,4.821,6.05a11.514,11.514,0,0,1,.729,4.346q.008,4.37.016,8.739c0,2.186-.9,3.334-2.715,3.454m-2.423,57.033-10.334,0q-3.183,0-3.271-3.527a42.942,42.942,0,0,1,.842-9.419q1.328-6.736,2.661-13.5a2.889,2.889,0,0,1,2.861-2.529q5.142-.07,10.282-.1,1.591-.023,1.838,1.861.021,10.925-.056,13.407-.944,5.121-1.89,10.231-.313,3.574-2.932,3.572m9.459.1q-2.784-.3-2.791-4.87-.12-24.947-.24-49.887-.005-4.67,2.711-4.73,4.638-.1,9.28-.12.042-2.343.078-4.685-5.564.031-11.125.17c-1.122.028-1.687-.85-1.687-2.638q-.01-5.416-.019-10.83c-.005-1.986.532-3,1.6-3.033a458.8,458.8,0,0,1,48.9,1.169c1.167.089,1.757,1.017,1.75,2.781q-.021,5.434-.04,10.87c-.009,1.762-.523,2.61-1.529,2.55q-6.673-.4-13.353-.652-.008,2.33-.01,4.657,5.917.253,11.83.619,2.4.13,2.381,4.64-.091,24.694-.179,49.388-.024,4.406-2.72,4.407-22.417.091-44.831.195m35.847-30.668.005-1.979q-5.7-.073-11.407-.085-1.677-.018-1.671-2.7.008-5.426.014-10.85-1.161-.016-2.318-.028-.164,5.875-.33,11.751c-.108.73-.426,1.092-.956,1.089q-4.268-.026-8.537-.021c-.268,0-.426-.363-.478-1.1q.117-5.883.237-11.763l-1.757.005q0,7.727.005,15.45,13.6-.042,27.195.231m-.038,14.838q0-1.63.009-3.264-13.578-.17-27.16-.144v3.29q13.576-.023,27.151.118m-13.087-43.7q.005-2.34.005-4.678-1.08-.021-2.162-.037l.157,4.685q1,.013,2,.03M435.51,101.1q.005-1.732.009-3.463-1.2-.037-2.4-.068,0,1.732-.007,3.468,1.2.029,2.395.063" transform="translate(277.792 46.432)" fill="#fff"/>
    <path id="Path_358" data-name="Path 358" d="M439.471,142.371q-6.4-.047-12.8-.1-2.223-.287-2.209-3.28-.021-4.39-.04-8.781.741-30.577,1.482-61.052c.12-3.137,1.565-4.591,4.332-4.325A459.64,459.64,0,0,1,491.69,76.425c2.917.767,4.377,2.5,4.376,5.16q.039,6.329.08,12.652c.005,2.609-1.336,3.666-4.007,3.195q-24.608-4.283-49.527-6.673-.488,24.083-.977,48.237c-.07,2.25-.786,3.374-2.163,3.376m38.365-56.732q.005-1.539.01-3.08-17.371-3.4-34.92-5.633-.05,1.68-.1,3.36,17.577,2.118,35.007,5.353m16.8,56.33q-24.837-.039-49.678-.063c-1.172,0-1.744-.438-1.741-1.313q.018-3.459.036-6.918.01-1.4,1.678-1.369,8.585.175,17.163.391c0-.776.009-1.553.01-2.329q-8.061-.256-16.129-.461c-1.162-.03-1.751-.447-1.741-1.257l.037-6.72q.005-1.492,1.678-1.419,8.105.363,16.2.812l.005-.807c.059-.951.59-1.4,1.595-1.334q5.2.323,10.388.687c1.214.085,1.821.59,1.819,1.5,0,.259,0,.517,0,.776q8.6.553,17.184,1.2c1.16.089,1.732.563,1.737,1.417q.039,2.9.078,5.791-.005,1.043-1.584.976-8.76-.378-17.53-.7,0,1.119-.009,2.238,9.29.274,18.569.6c1.156.042,1.741.461,1.744,1.261v5.917c0,.746-.508,1.118-1.51,1.117m-1.1-21.254q-23.794-2.061-47.729-3.282c-1.273-.188-1.929-.843-1.977-1.969q.018-3.457.038-6.913a2.345,2.345,0,0,1,.885-1.993q3.7-1.041,7.4-2.009-3.415-.295-6.833-.56c-1.167-.09-1.744-.569-1.743-1.442q.021-3.6.04-7.2c.01-1,.537-1.447,1.6-1.343q24.723,2.465,49.2,6.65c1.15.2,1.729.7,1.729,1.5v6.157c0,.748-.5,1.05-1.5.917q-12.094-1.63-24.25-2.925-4.4,1.544-8.817,3.235,8.885.67,17.743,1.51c0-.682.005-1.362.009-2.043q.078-1.012,1.426-.857,3.676.428,7.344.885a3.493,3.493,0,0,1,2.05.75q2.562,1.63,5.124,3.223a3.076,3.076,0,0,1,.87,2.344v3.6c.005,1.277-.871,1.866-2.609,1.77" transform="translate(313.706 47.9)" fill="#fff"/>
    <path id="Path_421" data-name="Path 421" d="M316.542,34.561h7.951c3.995.035,9.416,1.682,9.313,9.866a12.663,12.663,0,0,1-2.5,7.758q2.116,6.712,4.205,12.892-4.127,1.14-8.237,2.362Q325.9,62.457,324.5,57.2l-.106.021q-.031,5.551-.061,11.1-3.905,1.192-7.795,2.454V34.561m8.482,14.845c1.247-.169,1.81-1.381,1.823-2.793s-.567-2.457-1.793-2.357l-.586.05q-.01,2.588-.028,5.177l.584-.078" transform="translate(233.966 25.545)" fill="#fff"/>
    <path id="Path_422" data-name="Path 422" d="M328.319,34.561h13.95q-.094,4.469-.188,8.939-2.977.237-5.951.489-.013.762-.028,1.52,2.4-.235,4.8-.461-.068,3.209-.132,6.419-2.4.363-4.79.743c-.009.532-.017,1.066-.028,1.6q3.146-.545,6.3-1.059-.089,4.234-.179,8.468-7.1,1.7-14.157,3.635.2-15.144.4-30.29" transform="translate(242.376 25.545)" fill="#fff"/>
    <path id="Path_423" data-name="Path 423" d="M337.771,34.561h7.979q-.2,7.87-.409,15.743,2.99-.415,5.983-.8-.115,4.109-.231,8.221-6.971,1.4-13.9,3.028.292-13.093.583-26.19" transform="translate(249.227 25.545)" fill="#fff"/>
    <path id="Path_424" data-name="Path 424" d="M353.844,34.561h7.63c2.245,6.744,4.5,13.085,6.764,19.087q-4.33.631-8.65,1.35-.292-1.286-.584-2.584-2.225.323-4.451.668-.417,1.456-.838,2.93-3.963.715-7.917,1.5c2.678-8.137,5.362-15.767,8.047-22.95m4.036,12.821q-.363-2.063-.723-4.155l-.054,0q-.5,2.155-.993,4.341.887-.1,1.77-.19" transform="translate(255.59 25.545)" fill="#fff"/>
    <path id="Path_425" data-name="Path 425" d="M365.363,43.078q-2.559-4.093-5.1-8.517h8.755q.853,1.8,1.708,3.56c.017,0,.037,0,.054,0q.957-1.8,1.908-3.558h7.925q-2.844,3.926-5.711,8.12,2.992,4.3,6.016,8.282-4.513.428-9.019.946-1.148-1.933-2.292-3.929l-.052.005q-1.265,2.217-2.534,4.511-4.07.517-8.13,1.1,3.245-5.51,6.478-10.523" transform="translate(265.264 25.545)" fill="#fff"/>
    <path id="Path_426" data-name="Path 426" d="M372.786,34.561h13.95q-.052,2.543-.106,5.085-2.995.06-5.991.134l-.021.842q2.418-.07,4.84-.129-.039,1.816-.078,3.631-2.426.094-4.852.205c-.007.3-.014.59-.023.885q3.2-.159,6.393-.289-.05,2.413-.1,4.826-7.242.425-14.473,1.085.23-8.137.461-16.277" transform="translate(275.198 25.545)" fill="#fff"/>
    <path id="Path_427" data-name="Path 427" d="M381.8,49.639q.143-7.539.289-15.078H390.2c3.744,0,6.631.868,8.579,2.261a5.984,5.984,0,0,1,2.8,4.963,6.1,6.1,0,0,1-2.805,4.979,15.883,15.883,0,0,1-8.715,2.5q-4.132.146-8.261.37m8.136-5.16.188-.005a5.075,5.075,0,0,0,3.033-.892,2.221,2.221,0,0,0,.908-1.727,2.156,2.156,0,0,0-.87-1.744,4.591,4.591,0,0,0-2.95-.755l-.242,0q-.034,2.562-.068,5.122" transform="translate(282.2 25.545)" fill="#fff"/>
    <path id="Path_428" data-name="Path 428" d="M398.913,34.561h7.979q.083,7.32.17,14.64-4.038-.125-8.078-.177-.037-7.231-.071-14.463" transform="translate(294.85 25.545)" fill="#fff"/>
    <path id="Path_429" data-name="Path 429" d="M411.153,39.608l-.028-.042q-2.945-.05-5.887-.085-.034-2.46-.066-4.92h17.751l.029.043c-2.24,3.55-4.5,6.977-6.77,10.32l.028.043q3.264.138,6.527.306.063,2.494.125,4.99-9.2-.7-18.412-1.016l-.028-.042c2.261-3.153,4.5-6.341,6.73-9.6" transform="translate(298.922 25.545)" fill="#fff"/>
    <path id="Path_430" data-name="Path 430" d="M422.616,34.561h7.631c2.642,5.744,5.3,11.769,7.981,18.134q-4.338-.563-8.684-1.04-.37-1.158-.743-2.308c-1.49-.141-2.986-.275-4.478-.4-.228.7-.461,1.4-.692,2.1q-4-.386-8-.7c2.355-5.066,4.68-10.308,6.984-15.784m4.763,10.423q-.485-1.743-.967-3.464l-.052,0q-.381,1.688-.758,3.355.887.055,1.777.113" transform="translate(307.207 25.545)" fill="#fff"/>
    <path id="Path_431" data-name="Path 431" d="M429.053,34.561h7.979q.133,4.057.266,8.113l.054.031q1.516-3.968,3.028-8.144h8.729q-2.137,4.98-4.275,9.586,2.658,5.731,5.313,11.937-4.487-.811-8.984-1.529-1.873-4.983-3.741-9.7l-.052.023q.151,4.568.3,9.136-4-.608-8.019-1.141-.3-9.157-.6-18.311" transform="translate(317.127 25.545)" fill="#fff"/>
    <path id="Path_432" data-name="Path 432" d="M448.152,34.561h7.631c2.673,8.2,5.334,16.927,7.97,26.252q-4.276-1.007-8.567-1.927-.376-1.667-.75-3.315-2.215-.41-4.431-.8-.331,1.461-.663,2.9-3.952-.793-7.917-1.513c2.242-6.753,4.482-13.932,6.725-21.6m4.842,14.764q-.493-2.483-.984-4.929l-.054-.005q-.365,2.371-.725,4.708.882.112,1.763.226" transform="translate(326.273 25.545)" fill="#fff"/>
    <path id="Path_433" data-name="Path 433" d="M458.972,50.121q-3.7-8.275-7.443-15.56h8.995q1.161,3.123,2.313,6.369l.056,0q1.049-3.123,2.1-6.372h8.7q-3.43,8.708-6.8,16.35l.2,12.59q-3.937-1.03-7.892-1.99-.117-5.695-.235-11.39" transform="translate(333.739 25.545)" fill="#fff"/>
    <path id="Path_434" data-name="Path 434" d="M469.078,34.561h7.631q3.777,16.967,7.39,36.216-4.2-1.367-8.424-2.645-.342-2.3-.683-4.577-2.184-.571-4.372-1.12-.35,2.011-.7,3.995-3.89-1.122-7.8-2.172c2.285-9.247,4.6-19.124,6.958-29.7m4.59,20.37q-.449-3.428-.9-6.8a.44.44,0,0,0-.05-.007q-.4,3.271-.8,6.492.876.157,1.748.317" transform="translate(341.568 25.545)" fill="#fff"/>
  </g>
</svg>
