<svg xmlns="http://www.w3.org/2000/svg" width="209.195" height="241.558" viewBox="0 0 209.195 241.558">
  <g id="Best_in_World" data-name="Best in World" transform="translate(-652.818 -383.101)">
    <path id="Path_435" data-name="Path 435" d="M377.37,397.734V280.974l101.12-58.381,101.118,58.381v116.76L478.49,456.118Z" transform="translate(278.927 164.526)" fill="#181217"/>
    <path id="Path_436" data-name="Path 436" d="M479.968,228.316l97.64,56.374V397.433l-97.64,56.376-97.642-56.376V284.69Zm0-8.033-3.478,2.009-97.642,56.372-3.478,2.009V401.45l3.478,2.009,97.642,56.374,3.478,2.009,3.478-2.009,97.64-56.374,3.478-2.009V280.673l-3.478-2.009-97.64-56.372Z" transform="translate(277.448 162.818)" fill="#e4216c"/>
    <path id="Path_437" data-name="Path 437" d="M383.245,386.824V281.859l90.9-52.482,90.9,52.482V386.824l-90.9,52.482Z" transform="translate(283.269 169.54)" fill="#181217"/>
    <path id="Path_438" data-name="Path 438" d="M474.516,230.808l90.033,51.979v103.96l-90.033,51.981-90.033-51.981V282.787Zm0-2.009-.87.5-90.033,51.979-.87.5V387.752l.87.5,90.033,51.979.87.5.87-.5,90.033-51.979.87-.5V281.783l-.87-.5L475.386,229.3Z" transform="translate(282.899 169.113)" fill="#df9712"/>
    <path id="Path_439" data-name="Path 439" d="M484.94,253.769h1.513a15.3,15.3,0,0,1,8.141,2.122,5.4,5.4,0,0,1,2.4,4.525V262.4q2.46,0,6.562-.214a10.325,10.325,0,0,1,6.245,2.405q1.706,1.487,1.7,4.809v.849a16.886,16.886,0,0,1-2.965,9.05q-2.21,2.617-3.155,2.617c0,.047-.17.117-.5.21v-.07a2.856,2.856,0,0,0,.694-1.838q-.253-1.7-1.263-1.7-7.636.357-11.106.355a44.323,44.323,0,0,1-6.056,3.111l-.7.212a5.3,5.3,0,0,0,1.137.637,7.031,7.031,0,0,1,2.649,2.969,3.287,3.287,0,0,1,.19.71q1.2,0,3.471-.073a12.8,12.8,0,0,1,2.082-2.9,8.126,8.126,0,0,0,.758-4.1v-.21h.063a3.17,3.17,0,0,0,1.45,1.837,13.464,13.464,0,0,0,5.047,1.485q5.048.569,6,1.344a3.939,3.939,0,0,1,1.449,2.051,8.054,8.054,0,0,1,3.786,1.132,5.413,5.413,0,0,1,2.083,4.737v.706a14.831,14.831,0,0,1-2.84,8.414,7.535,7.535,0,0,1-3.28,2.477,1.036,1.036,0,0,1-.5.141h-.064a1.748,1.748,0,0,0,.631-1.061v-.071q-.19-.918-1.452-.918-13.124.5-16.847.494h-.882q.882,9.618,2.207,16.9a175.725,175.725,0,0,0,5.49,22.132q3.848,11.316,6.877,11.315,1.956,0,4.417-6.433.566-1.2,2.84-7A12.24,12.24,0,0,1,514.217,337a51.727,51.727,0,0,0-.757,8.979,140.951,140.951,0,0,0,2.144,20.437,9.326,9.326,0,0,1,.127,1.485,9.84,9.84,0,0,1-4.228,8.341,10.765,10.765,0,0,1-6.184,1.84h-.188q-7,0-13-9.83-7.951,10.61-13.882,10.607-4.291,0-6.374-6.93a31.586,31.586,0,0,0-2.586-5.727q-4.164,0-16.089,1.061a6.021,6.021,0,0,1-3.786,1.626,8.253,8.253,0,0,1-4.795-1.767,2.344,2.344,0,0,1-.758-1.273q.378-12.021.379-14.991v-39.1q0-2.549-1.452-3.256c-.379-.092-.588-.141-.631-.141v18.88a203.137,203.137,0,0,1-3.028,36.84,41.287,41.287,0,0,1-2.9,9.123,10.677,10.677,0,0,1-5.678,5.09,8.86,8.86,0,0,1-2.967.565h-.315q-4.479,0-8.958-5.374a17.551,17.551,0,0,0-5.238-3.958,9.261,9.261,0,0,0-3.03-.5v-.071a16.106,16.106,0,0,0,7.257-4.315,14.4,14.4,0,0,0,2.4-3.038,28.277,28.277,0,0,0,3.153-7.355,71.119,71.119,0,0,0,1.958-10.889q.123-.566.315-3.252a.46.46,0,0,1-.19.07l-2.209.141-.063.5v.069q0,10.255-4.038,17.536a10.953,10.953,0,0,1-5.678,4.951,5.134,5.134,0,0,1-1.515.282q-2.65,0-3.976-3.181-.5-.777-.694-4.6a17.753,17.753,0,0,0-1.136-3.605,11.715,11.715,0,0,0-2.209-3.183q-.506-.493-.63-.494v-.071h.063a5.943,5.943,0,0,0,1.325.141h.44q3.788,0,5.174-2.828a18.232,18.232,0,0,0,1.894-4.384V341.1a6.455,6.455,0,0,1-3.155-1.273,5.928,5.928,0,0,1-1.83-3.607q-.188-1.13-.569-4.6a27.768,27.768,0,0,0-1.388-5.16l-.821-1.416h.063a15.442,15.442,0,0,0,8.52,2.122h.567q.759,0,12.619-.991v-4.03q-2.776.214-2.776.424a25.333,25.333,0,0,1-2.713,1.769,10.279,10.279,0,0,1-4.165.777,7.818,7.818,0,0,1-6.183-2.97,5.25,5.25,0,0,1-.821-2.334q.063-1.836.379-17.96-.256-2.332-1.2-2.687a1.448,1.448,0,0,0-.885-.283,5.591,5.591,0,0,0-1.2.141,5.513,5.513,0,0,1,2.588-2.191,17.876,17.876,0,0,1,8.645-2.263q4.224,0,5.362,2.758a4.035,4.035,0,0,1,.19,1.273v3.817q0,1.98.063,6.01,1.957-.211,2.713-.212v-9.334q0-2.828-1.388-3.536a12.685,12.685,0,0,0-3.092-1.061l-1.073-.494q0-.918,4.732-5.233,1.641-1.555,2.9-2.828a4.051,4.051,0,0,1,2.271-.706,19.485,19.485,0,0,1,6.183,1.555q.884.143,3.659.353a3.489,3.489,0,0,1,2.271,3.323v16.83l4.23-2.475a6.625,6.625,0,0,1,3.092-.92q1.26,0,5.172,1.981a3.152,3.152,0,0,1,1.263,1.2q10.411-.775,15.395-.776h1.2a5.505,5.505,0,0,1,3.219,1.061v-.071q-.569-4.244-.694-4.88l-.315.071q-20.632.211-25.934.212-1.2,0-2.4-1.981a6.953,6.953,0,0,1-.317-2.546v-6.433q0-2.757,1.01-3.536a2.706,2.706,0,0,1,2.08-.99h.379q12.746,0,23.915-.212a8.478,8.478,0,0,0-2.713-4.313,8.662,8.662,0,0,0-1.579-1.416,34.052,34.052,0,0,0,6.374.779q.441,0,2.9-.143-2.21-1.2-2.209-2.4l-7.57.212q-1.516,0-2.59-1.979a5.254,5.254,0,0,1-.315-2.05v-8.414a3.605,3.605,0,0,1,2.525-3.821q4.983-.211,7.445-.21a.449.449,0,0,1,.188-.071,5.03,5.03,0,0,0-1.009-2.405,3.383,3.383,0,0,0-2.459-.99h-.57a7.87,7.87,0,0,0-1.261.143v-.073a7.54,7.54,0,0,1,2.334-2.543,22.922,22.922,0,0,1,11.99-3.325m-43.16.143h1.264q6.117,0,9.085,3.393a5.261,5.261,0,0,1,.946,2.97q0,1.059.064,3.393,3.973-.138,5.866-.141,1.328,0,2.461,1.838a3.558,3.558,0,0,1,.379,1.7v9.051a3.426,3.426,0,0,1-2.146,3.463q0,.287-10.41.424-6.183,3.608-9.844,4.172a3.036,3.036,0,0,1-.946.141q-2.144,0-5.741-2.757a2.539,2.539,0,0,1-.5-1.13q-12.368.352-15.776.494a7.274,7.274,0,0,1-6.372-3.748q-1.388-1.977-1.388-6.717-.318-6.222-.946-7.071a3.323,3.323,0,0,0-.631-1.414h.063a14.159,14.159,0,0,0,8.456,2.616q10.156-.211,16.531-.424a5.22,5.22,0,0,0-1.073-2.546,3.742,3.742,0,0,0-2.84-1.13h-.063a7.4,7.4,0,0,0-1.577.141v-.071q1.766-3.321,7.951-5.515a26.577,26.577,0,0,1,7.191-1.13m14.325,64.981v6.153c.84-.045,1.47-.07,1.892-.07h.694v-6.294h-.064a22.651,22.651,0,0,0-2.522.21m0,15.417v4.523q8.708-.423,8.706-.635,1.072-.707,1.073-1.2v-.779a2.03,2.03,0,0,0-1.325-2.122l-.567-.141q-2.969.211-7.887.355m0,14v6.649h.063q.629,0,3.344-.141.06-5.095.063-6.718h-.063Zm21.01-31.323a8.734,8.734,0,0,1-2.082,2.9A8.381,8.381,0,0,1,471,322.075h-.064v-.07a2.286,2.286,0,0,0,1.263-2.122v-.424q0-1.062-1.83-1.343h-.19V323a.48.48,0,0,1,.19-.071,5.793,5.793,0,0,1,4.038,1.91,39.651,39.651,0,0,1,3.849,3.111,2.225,2.225,0,0,1,.442,1.273,11.4,11.4,0,0,1-.758,2.122c-.083.376-.167.92-.252,1.626a8.08,8.08,0,0,1,.064.849q0,3.887-.064,11.878c0,.52-.463,1.13-1.388,1.84a6.379,6.379,0,0,1-3.28.847H471v5.727h3.028a5.323,5.323,0,0,1,4.859,3.042v.07h.125a32.77,32.77,0,0,0,5.743-6.433q-4.038-12.162-7.57-33.8Zm21.831-12.87a7.444,7.444,0,0,0,3.534,1.273l5.995-.353q3.154,0,4.416,3.463a7.051,7.051,0,0,1,.252,1.7v.918q0,11.739-5.805,27.718a2.978,2.978,0,0,1-2.4,1.556h-.5q-2.275,0-3.219-4.031a95.541,95.541,0,0,1-3.155-13.08,1.055,1.055,0,0,1-.063-.5v-.424q0-.211.631-2.97a48.411,48.411,0,0,0,.821-9.05v-.21a31.343,31.343,0,0,0-.506-6.012" transform="translate(297.714 187.569)" fill="#e4216c"/>
    <path id="Path_440" data-name="Path 440" d="M400.529,348.622a2.724,2.724,0,0,1,1.579.59,1.591,1.591,0,0,1,.473,1.28,3.733,3.733,0,0,1-.784,2.261,1.7,1.7,0,0,1-.955.642.637.637,0,0,0,.183-.445V352.9a.368.368,0,0,0-.325-.4q-1.962.089-14.654.652l-3.061.156a1.892,1.892,0,0,1-1.266-.47,2.591,2.591,0,0,1-.772-2.066,3.887,3.887,0,0,0-.4-2.026h.01a3.684,3.684,0,0,0,2.249.666q1.257,0,13.257-.576.128-.013,4.47-.209" transform="translate(281.272 257.678)" fill="#fff"/>
    <path id="Path_441" data-name="Path 441" d="M477.063,354.294a8.09,8.09,0,0,1,1.516.3c.167.033.393.078.68.13a.961.961,0,0,1,.5.444,1.319,1.319,0,0,1,.157.614V364.1c0,.087.009.362.028.823a.961.961,0,0,1-.445.9,3.084,3.084,0,0,1-.917.405,10.44,10.44,0,0,1-1.633.3h-.04a1.967,1.967,0,0,1-.993-.536.7.7,0,0,1-.157-.471q.013-6.1.012-8.377a1.682,1.682,0,0,0-.325-1.177.349.349,0,0,0-.236-.092h-.09a1.279,1.279,0,0,0-.275.04,2,2,0,0,1,1.1-.955,6.658,6.658,0,0,0,.536-.471.89.89,0,0,1,.588-.195m2.369-10.628a66.052,66.052,0,0,0,2.285.522,1.3,1.3,0,0,1,.682,1.282q0,1.9-.014,6.209l.038.8a1.1,1.1,0,0,1-.51,1.047,3.569,3.569,0,0,1-.993.482,10.829,10.829,0,0,1-1.621.327,2.21,2.21,0,0,1-1.151-.628.757.757,0,0,1-.169-.534q0-1.857.014-6.341-.042-1.163-.485-1.36c-.044-.009-.108-.017-.195-.026-.191.017-.311.026-.353.026a2.07,2.07,0,0,1,1.136-.993,4.861,4.861,0,0,0,.732-.614.984.984,0,0,1,.6-.2m4.586,10.628h.106a1.37,1.37,0,0,1,.718.3,8.77,8.77,0,0,1,1.557,1.256,1.766,1.766,0,0,1,.576,1.085c0,.217-.172.482-.511.8a1.11,1.11,0,0,0-.249.73v4.929c0,.3-.005.741-.014,1.306a2.1,2.1,0,0,1-.431.983,1.837,1.837,0,0,1-1.372.8h-.038a2.474,2.474,0,0,1-1.595-.77,1.018,1.018,0,0,0-.485-.277c-.52.037-.826.054-.913.054a.667.667,0,0,1-.562-.405l-.028-.183c.009-.393.014-.711.014-.955,0-.557-.005-1.016-.014-1.372a.66.66,0,0,1,.419-.588,6.71,6.71,0,0,1,1.019-.092c0-.009.026-.014.078-.014q-.026-3.36-.064-3.358c-.035-.106-.2-.157-.5-.157h-.052a2,2,0,0,1-.3.026.632.632,0,0,1-.523-.367.526.526,0,0,1-.064-.21c.009-.478.014-.779.014-.9a9.786,9.786,0,0,0-.092-1.358.665.665,0,0,1,.417-.59c0-.017.457-.05,1.372-.1a1.729,1.729,0,0,0,.485-.118,2.728,2.728,0,0,1,1.031-.443m9.191-10.692a1.846,1.846,0,0,1,1.017.443,8.1,8.1,0,0,1,1.464,1.19,2.108,2.108,0,0,1,.772,1.294v.04a1.275,1.275,0,0,1-.51.836,1.12,1.12,0,0,0-.327.744q-.013,2.63-.014,3.882a2.445,2.445,0,0,1-.8,1.739,1.57,1.57,0,0,1-1.073.417,3.909,3.909,0,0,1-1.934-.678,1.611,1.611,0,0,0-.574-.249q-1.925.052-7.191.143c-.017,0-.073.005-.17.014a.64.64,0,0,1-.6-.457l-.026-.118c.009-.226.014-.374.014-.443-.019-.367-.028-.605-.028-.72v-.718a.638.638,0,0,1,.5-.6q.574-.024,7.517-.195a23.481,23.481,0,0,0-.09-2.51.334.334,0,0,0-.341-.17H490.7q-.535,0-6.835.273a.641.641,0,0,1-.445-.195.684.684,0,0,1-.184-.51v-.2c0-.374.005-.833.014-1.372,0-.026-.014-.17-.038-.431a.655.655,0,0,1,.456-.6q0-.026,3.087-.092,4.847-.13,4.849-.195a4.637,4.637,0,0,1,1.452-.562Zm-4.158,10.692a9.881,9.881,0,0,1,1.7.339,1.312,1.312,0,0,1,.694.209,1.11,1.11,0,0,1,.457.981V364.1c0,.1.005.37.012.823a.982.982,0,0,1-.614.995,2.54,2.54,0,0,1-.81.327,10.351,10.351,0,0,1-1.555.287h-.04a1.956,1.956,0,0,1-1.007-.536.671.671,0,0,1-.157-.471q0-2.272.014-8.377a1.681,1.681,0,0,0-.329-1.177.317.317,0,0,0-.233-.092h-.092a1.294,1.294,0,0,0-.275.04V355.9a2.141,2.141,0,0,1,1.1-.943,5.629,5.629,0,0,0,.534-.471.913.913,0,0,1,.6-.195m6.732,0h.13a2.479,2.479,0,0,1,1.071.548q1.753,1.32,1.753,2.04v.04a.951.951,0,0,1-.469.7.826.826,0,0,0-.289.576v6.237a2.142,2.142,0,0,1-.929,1.711,1.5,1.5,0,0,1-.889.327h-.052a2.564,2.564,0,0,1-1.661-.849.925.925,0,0,0-.4-.2c-.543.037-.835.054-.877.054a.636.636,0,0,1-.576-.419,3.613,3.613,0,0,1-.064-.915v-1.595a.626.626,0,0,1,.51-.6,8.618,8.618,0,0,0,1.033-.09c0-.009-.005-.04-.014-.092q-.026-3.253-.064-3.254c-.045-.1-.15-.144-.315-.144-.026,0-.108,0-.249-.012a1.611,1.611,0,0,1-.289.026h-.01a.6.6,0,0,1-.51-.329.626.626,0,0,1-.092-.351v-1.635c0-.148-.005-.353-.014-.614a.708.708,0,0,1,.275-.417,2.021,2.021,0,0,1,1.019-.144q.916-.081.917-.158a6.583,6.583,0,0,1,.849-.405.525.525,0,0,1,.209-.038" transform="translate(350.971 253.967)" fill="#fff"/>
    <path id="Path_442" data-name="Path 442" d="M399.6,224.085a2.849,2.849,0,0,1,1.478.483,1.208,1.208,0,0,1,.485.654,2.127,2.127,0,0,1,.117.746,3.705,3.705,0,0,1-.73,2.169,2.246,2.246,0,0,1-.577.536,1.243,1.243,0,0,1-.431.184.756.756,0,0,0,.183-.459q-.05-.443-.339-.443-1.972.1-5.816.287v.419a24.748,24.748,0,0,1-.21,3.8,21.781,21.781,0,0,1-.706,3.163,23.107,23.107,0,0,1-1.543,3.739,21.083,21.083,0,0,1-1.45,2.339,19.423,19.423,0,0,1-1.294,1.595,13.5,13.5,0,0,1-1.358,1.282,9.4,9.4,0,0,1-3.478,1.908,3.252,3.252,0,0,1-.64.078h-.054q-1.437,0-1.711-1.934a8.179,8.179,0,0,0-.3-1.308,2.026,2.026,0,0,0-1.033-1.2c-.01,0-.082-.028-.21-.078v-.014a13.33,13.33,0,0,0,1.607-.3,11.913,11.913,0,0,0,1.779-.64,10.291,10.291,0,0,0,5.15-5.424H388.5l-5.543.235a1.889,1.889,0,0,1-1.633-.967,2.064,2.064,0,0,1-.273-.72,8.811,8.811,0,0,1-.118-1.581,4.657,4.657,0,0,0-.21-.993c-.068-.13-.124-.228-.157-.289h.014a3.609,3.609,0,0,0,2.184.654q1.07,0,6.823-.249a16.623,16.623,0,0,0,.181-2.353v-.953q-2.588.13-5.788.3a1.877,1.877,0,0,1-1.556-.812,2.991,2.991,0,0,1-.367-.758,8.65,8.65,0,0,1-.118-1.464,4.83,4.83,0,0,0-.193-1.15,2.155,2.155,0,0,0-.184-.353h.011a3.8,3.8,0,0,0,2.238.64q1.229,0,11.763-.562Zm-4.181,12.157a.7.7,0,0,1,.588.405,27.129,27.129,0,0,0,1.776,2.13,11.306,11.306,0,0,0,1.57,1.386,4.652,4.652,0,0,0,1.95.876,11.668,11.668,0,0,0,2.195.249h.026a3.269,3.269,0,0,0,.483-.04,5.115,5.115,0,0,0-.8.9,4.187,4.187,0,0,0-.6,1.843,8.117,8.117,0,0,1-.16,1.083,2.139,2.139,0,0,1-.442.812,1.409,1.409,0,0,1-.343.3,1.863,1.863,0,0,1-.873.237h-.146a4.673,4.673,0,0,1-2.156-.68,9.174,9.174,0,0,1-1.451-1.125,15.9,15.9,0,0,1-1.5-1.621,22.243,22.243,0,0,1-1.922-2.666,6.035,6.035,0,0,1-.628-1.177.4.4,0,0,1-.014-.1,2.081,2.081,0,0,1,.238-.692q.3-.733.652-1.765a.736.736,0,0,1,.706-.327c.461-.009.743-.017.849-.026m5.727-5.019a2.809,2.809,0,0,1,1.332.393,1.616,1.616,0,0,1,.6.6,2.666,2.666,0,0,1,.157.9,3.647,3.647,0,0,1-.849,2.313,1.915,1.915,0,0,1-.836.563h-.04a.644.644,0,0,0,.17-.431v-.04a.408.408,0,0,0-.276-.419h-.023c-2.644.141-4.779.245-6.421.315a.672.672,0,0,1-.6-.642c0-.052.083-.417.247-1.1.116-.55.207-1.106.275-1.673a.747.747,0,0,1,.355-.419,8.016,8.016,0,0,1,1.477-.117q2.037-.091,4.433-.249" transform="translate(280.854 165.629)" fill="#fff"/>
    <path id="Path_443" data-name="Path 443" d="M475.2,224.243h.01a3.833,3.833,0,0,0,2.261.654q8.682-.128,18.367-.353a2.756,2.756,0,0,1,1.412.485,1.518,1.518,0,0,1,.419.431,2.129,2.129,0,0,1,.2.927v.092a3.7,3.7,0,0,1-.6,1.948,2.443,2.443,0,0,1-.76.744,1.024,1.024,0,0,1-.364.144.7.7,0,0,0,.183-.471c-.036-.278-.139-.417-.315-.417,0-.009,0-.014-.014-.014q-2.624.078-14.169.263-3.5.078-4.156.117a1.944,1.944,0,0,1-1.791-1.1,3.5,3.5,0,0,1-.289-1.647,5.549,5.549,0,0,0-.221-1.49c-.078-.157-.136-.261-.169-.315m12.143,5.191a.647.647,0,0,1,.456.261.6.6,0,0,1,.118.327q.016,7.307.014,13.007c.017.452.028.723.028.81v.09a1.051,1.051,0,0,1-.51.981,6.648,6.648,0,0,1-1.139.732,3.831,3.831,0,0,1-1.426.51,2.078,2.078,0,0,1-1.162-.64.908.908,0,0,1-.156-.576q0-.457.01-2.012.016-8.118.014-12.263c0-.541.028-.81.078-.81a.623.623,0,0,1,.577-.365Zm2.836.64h.014q.337,1.424,3.607,3.922.8.6,1.739,1.19a6.509,6.509,0,0,0,2.024.967v.012q-.443.042-1.776,1.635c-.741.906-1.4,1.36-1.96,1.36a2.289,2.289,0,0,1-1.6-.981q-1.153-1.07-2.024-2.026-.527-.613-.969-1.2a4.752,4.752,0,0,1-1.009-2.052v-.118a1.53,1.53,0,0,1,.838-1.19,4.451,4.451,0,0,0,.795-.877,2.448,2.448,0,0,0,.316-.64" transform="translate(351.233 165.745)" fill="#fff"/>
  </g>
</svg>
